<svg xmlns="http://www.w3.org/2000/svg" viewBox="0 0 306.14 161.57"><defs><style>.cls-1{fill:#77756f;}</style></defs><g id="MPG_Minerva"><path class="cls-1" d="M249.36,16.18a31.46,31.46,0,1,0,31.46,31.46A31.5,31.5,0,0,0,249.36,16.18Zm0,62a30.58,30.58,0,1,1,30.58-30.58A30.62,30.62,0,0,1,249.36,78.22Z"/><path class="cls-1" d="M267.82,45.23c-.44-.91-.14-1.5-.27-2.17a33,33,0,0,0-1.29-3.23c-.22-.53,1.13-.4.13-2.3,0-.06,1.39-.58,0-1.65a8,8,0,0,1-1.78-2,.3.3,0,0,1,0-.39,1.32,1.32,0,0,0,0-2.25c-.63-.38-1.34,0-2,.43-.21.14-.32.23-.55.14a5.09,5.09,0,0,1-.54-.35,2.31,2.31,0,0,0,.91-1.69,4.34,4.34,0,0,0-3,.3l-.12-.07a2.12,2.12,0,0,0,.25-2.07h0a24.31,24.31,0,0,1,3.69-4l0,0c.08-.08.11-.17,0-.26l-.32-.19a27.68,27.68,0,0,0-41.1,24.19,28.3,28.3,0,0,0,11.81,22.65,4.16,4.16,0,0,0,.83.48.25.25,0,0,0,.32-.06l.11-.14a.4.4,0,0,0,.1-.25c0-.2-.3-.38-.64-.89a8.33,8.33,0,0,1-1.43-4.54,6.54,6.54,0,0,1,1.37-4.08c1.1,1.15,3.51,3.26,3.45,5.18-.05,2.16-2.08,2.06-1.64,3.68.27,1,1,.6,1.17,1.37a3,3,0,0,0,2.8,2.07c.19,0,.35.13.73.51a3.21,3.21,0,0,0,2.43.36c.56-.1,1.25.41,2.41.28C247,74.1,247.35,74,248,74a74.41,74.41,0,0,1,10.81.53c.7.11.93-.2.61-.75a8.53,8.53,0,0,1-.82-7.47,9.4,9.4,0,0,0,6.48-1.2,3.35,3.35,0,0,0,1.52-2.85,7.27,7.27,0,0,1-.14-2c.22-.82.38-.8.61-1,1.08-.76.3-1.37.14-1.43a1,1,0,0,0,.3-1.37c-.19-.21-.78-1.87-.1-2.21s1.57-.53,2.42-.9a1.37,1.37,0,0,0,.71-1.82C270.1,50.45,267.89,45.37,267.82,45.23ZM237.29,69.85c-.21.05-.89.07-.74-.82.09-.55.69-.78,1-.47C237.48,69,237.33,69.41,237.29,69.85Zm26.07-37.74c.35-.23.74-.32,1-.1.78.78-.86,1.22-.52,1.81a9,9,0,0,0,2.24,2.52c.37.29.42.93-1,1.22S258,39.35,255,42.51c-3.73,4-6.11,9.09-6.44,8.39s-1.07-.83-1-1C253,40.62,261.38,33.35,263.36,32.11Zm2.46,6.5c-.31.88-2.75,1.66-2.63,1,.05-.28,0-.64.19-.68s1-.31,2.24-.62C265.74,38.32,265.9,38.39,265.82,38.61Zm-6.18,1.6c-.07-.36,2.55-1.24,2.65-1a2.43,2.43,0,0,1-1.42,2.1c-1,.36-1.41.25-1.38.11A4,4,0,0,0,259.64,40.21Zm-6.09,13.67c-1.2.73-1.86-.68-2-.92a1.24,1.24,0,0,1-.16-1,7.77,7.77,0,0,0-.12-2.79c-.12-.79,1.52-2.75,1.88-3.1s.94.18,1,.76A2.35,2.35,0,0,1,252.92,49c-.78.58-.92,1.33-.78,1.53s.41.08.56-.24c.47-1,1.8-1.5,2-2a2.57,2.57,0,0,0,.05-1.67c0-.3.27-.38.49-.35s.41.43.55.81c.86,2.25-1.31,3.61-1.66,4.14C254,51.47,254.49,53.3,253.55,53.88Zm1.82-8.72c-.65.43-1.58-.16-1.39-.43a13.12,13.12,0,0,1,3.44-3.3c1-.64,1.13-.68,1.19-.32a3.1,3.1,0,0,1-.79,2.25,2.46,2.46,0,0,1-1.73.77C255.85,44.18,255.87,44.82,255.37,45.16Zm-5.77,7.67c-.3-.06-.41-.64-.35-.87a9,9,0,0,1,1.2-1.93c.07-.09.21,0,.23.1C250.85,51.35,250.68,53.07,249.6,52.83Zm9.64-22.21a5.28,5.28,0,0,1,2.24-.48c.25,0-.54,1.44-2,2a6.35,6.35,0,0,1-2.67.68C256.67,32.77,258.09,31.14,259.24,30.62Zm-25,23.45a2.41,2.41,0,0,0-.87-.74A6.79,6.79,0,0,0,232.34,56a19,19,0,0,1-2.24-8.36c-.42-10.61,8.47-19.15,19.31-19.12a17.23,17.23,0,0,1,6.73,1.37,8,8,0,0,0-1.11,2c0-.57-.16-1-.12-1.38s-1.53.27-2.92,2.47a5.31,5.31,0,0,0-.64,1.61,3.43,3.43,0,0,0-.28-1.46,4.82,4.82,0,0,0-2.56,2.62,5.81,5.81,0,0,0-.32,1,2.09,2.09,0,0,0-.27-1,4.74,4.74,0,0,0-2.58,2.68,5.09,5.09,0,0,0-.34,1.37c-.15-.69-.42-1.11-.5-1-.57.73-1.69,1.05-2.29,2.88A4.41,4.41,0,0,0,242,43c-.25-.62-.59-1-.67-1a6.2,6.2,0,0,0-2.11,3.26,4.91,4.91,0,0,0,.05,1.73,7.91,7.91,0,0,1-.93-1.43,4.55,4.55,0,0,0-1.74,3.21,6.47,6.47,0,0,0,.22,1.83c-.48-.87-1.15-1.27-1.23-1.22a5.54,5.54,0,0,0-1.44,3.3A3.5,3.5,0,0,0,234.28,54.07Zm22.2-23.88a5.43,5.43,0,0,1,2.46-1.72,3.78,3.78,0,0,1-1.17,2.58,9.44,9.44,0,0,1-2.58,1.82A6,6,0,0,1,256.48,30.19Zm-2.77,3.91A6.51,6.51,0,0,0,252,36c-.16.27-.56-1.49.51-3.18A5.83,5.83,0,0,1,254.48,31C254.38,31.4,255.11,33,253.71,34.1Zm-3,2.25c-1,1.51-1.07,1-2.18,2.47a7.11,7.11,0,0,1,.31-2.81,4.94,4.94,0,0,1,1.87-2.25A3.06,3.06,0,0,1,250.68,36.35Zm-3.32,3c-.52.91-1,.7-1.86,2-.1.14-.33-1.07.19-2.7a4,4,0,0,1,1.77-2.08C247.66,36.54,248,38.29,247.36,39.37Zm-3.09,3.2a5.79,5.79,0,0,1-1.49,1.92c-.11.12-.57-1.1-.12-2.64a4.4,4.4,0,0,1,1.58-2.1C244.4,39.58,244.83,41.34,244.27,42.57Zm-2.51,2a2.74,2.74,0,0,1-.15.9,6.65,6.65,0,0,1-1.56,2.44,3.92,3.92,0,0,1-.48-1.76,4.46,4.46,0,0,1,1.56-3.33C241.35,42.79,241.76,43.74,241.76,44.55Zm-2.56,3.84a4.56,4.56,0,0,1-1.52,3.24,5,5,0,0,1-.66-2.27,3.43,3.43,0,0,1,1.06-2.92C238.24,47,239.21,47.41,239.2,48.39Zm-3.63,1.88a2.72,2.72,0,0,1,1.23,2.45,3.46,3.46,0,0,1-1.37,2.82c-.27-1.09-.8-1.31-.79-2.4A5.59,5.59,0,0,1,235.57,50.27ZM237.75,54a5.8,5.8,0,0,1,2.94-.45A3.81,3.81,0,0,1,238.92,56a4.49,4.49,0,0,1-3,.61A3.65,3.65,0,0,1,237.75,54Zm-.1-1a4.47,4.47,0,0,1,2.12-2.5h0a5.58,5.58,0,0,1,2.81-.44c.16.06-.51,1.67-1.74,2.26C239.45,53,238.9,52.61,237.65,53Zm2.06-3.53A6.3,6.3,0,0,1,241.94,47a5.31,5.31,0,0,1,2.66-.4,3.72,3.72,0,0,1-1.87,2.28A5.52,5.52,0,0,1,239.71,49.48Zm2.67-3.58a7,7,0,0,1,2.5-2.47,4.54,4.54,0,0,1,2.52-.31,3.47,3.47,0,0,1-1.93,2.24A7.11,7.11,0,0,1,242.38,45.9Zm3.21-3.55A5.15,5.15,0,0,1,247.8,40a4.93,4.93,0,0,1,2.67,0c.28,0-.4,1.35-2,1.94A6.06,6.06,0,0,1,245.59,42.35Zm3.59-3.41a6.14,6.14,0,0,1,2.44-2.18,5.18,5.18,0,0,1,2.74-.07c.16.06-.82,1.52-2.32,2A6.62,6.62,0,0,1,249.18,38.94ZM252.81,36a5.44,5.44,0,0,1,2.45-2.16,5.36,5.36,0,0,1,2.48-.3,4,4,0,0,1-2.13,2A5.54,5.54,0,0,1,252.81,36ZM232.94,68.72a27.16,27.16,0,0,1-10.36-21.08,26.81,26.81,0,0,1,26.78-26.78,27.09,27.09,0,0,1,12.42,3.06.12.12,0,0,1,0,.2,28.22,28.22,0,0,0-3.05,3.41,22,22,0,0,0-9.39-2.08,22.22,22.22,0,0,0-22.2,22.19,21.57,21.57,0,0,0,5.35,14.44A7,7,0,0,0,232,64.9,7.6,7.6,0,0,0,232.94,68.72Zm0-7.45h0A20.71,20.71,0,0,1,228,47.64a21.34,21.34,0,0,1,21.32-21.31,21.1,21.1,0,0,1,8.87,1.92A5.73,5.73,0,0,0,257,29a19.06,19.06,0,0,0-7.64-1.53,20.16,20.16,0,0,0-20.14,20.14,19.16,19.16,0,0,0,4.45,12.59C233.5,60.49,233.26,60.86,233,61.27ZM234,59.6a4.05,4.05,0,0,1-1.31-2.5,1.09,1.09,0,0,1,0-.18,5.66,5.66,0,0,1,.71-2.7c.14-.14,1.6,1,1.62,2.61A4.27,4.27,0,0,1,234,59.6Zm2.41-2.16a5,5,0,0,1,2.78-.34,4.75,4.75,0,0,1-1.85,2.4,3.67,3.67,0,0,1-2.63.39C235.45,59.13,235.3,58,236.45,57.44ZM238,71.36a3.15,3.15,0,0,1,.15-2.17c.52-.26,1.47-.35,1.49,0a8,8,0,0,0,.09,3.06C239.64,72.43,238.35,72.33,238,71.36Zm.09-3.31c-.1-.6.47-1.17.46-2.47,0-1.59-2-3.77-3.31-5.17a5.67,5.67,0,0,0,2.36-.58,4.79,4.79,0,0,0,2.42-3.1,2.86,2.86,0,0,0-1.12-.14l.22-.11a4.65,4.65,0,0,0,2.35-3.34,5.9,5.9,0,0,0-1.19-.07l.58-.22a4.34,4.34,0,0,0,2.55-3.16,3.08,3.08,0,0,0-1-.13,5.38,5.38,0,0,0,.56-.25,4.62,4.62,0,0,0,2.42-3.09,3.51,3.51,0,0,0-1-.11,7,7,0,0,0,1.34-.44,4.33,4.33,0,0,0,2.57-2.87,2.67,2.67,0,0,0-.89-.17,12.13,12.13,0,0,0,1.3-.38,4.15,4.15,0,0,0,2.67-2.58c-.27,0-.64-.15-1.12-.23a8,8,0,0,0,2-.4c2.14-.73,2.9-2,2.94-2.58a1.71,1.71,0,0,0-.67-.24,7.49,7.49,0,0,0,1.38-.37,5.69,5.69,0,0,0,2.9-2.94,11,11,0,0,0,1.17-.45,4.37,4.37,0,0,0,.57-.3,5.12,5.12,0,0,0,.49.34c.3.19.41.24.26.36a76.23,76.23,0,0,0-14.13,16.68c-.06.1-.18.08-.37.07-2.38-.16-3.73,2.67-2.66,5.33a6,6,0,0,1-1.35,1.66c-.09.08-.32.41.07.37.56,0,1.27-.94,1.61-1.34.14.18.66.61.41.86a18.48,18.48,0,0,1-4.19,3.13c-.75.38,1.27.63,4.72-2.49.2-.18.44.72.75,1.11-.59,1.95.87,5.73.64,6.91a.87.87,0,0,1-.85.81c-3.42.07-3.76-.09-5.49.42-.81.24-.6.78,0,.62s1.36-.46,5.06-.23c.91.06,1.94-.18,1.95-1.7s-1.1-5.51-.73-6.08a2.05,2.05,0,0,0,1,.42c0,1.34,2.11,5.69,1.15,8.09-.36.89-1.93.83-4.62.56C239.68,67.61,238.19,68.6,238.1,68.05Zm10.52,3a1.67,1.67,0,0,1-2.19-1.91c.17-.27,1.3.31,2.17-.26C249.28,68.4,249.65,70.65,248.62,71Zm-8.09,1.31c-.25-1.11-.35-3,.11-3.44.09-.09,1.46-.28,1.44,0-.11,1.32-.64,2.79.36,4.25C242.82,73.7,240.86,73.78,240.53,72.31Zm3.4,1.26c-.48-.12-1.8-2.23-.73-4.73.12-.27,1.77-.1,2,0s-.23,2.05,2,2.93C247.51,71.84,247.27,74.39,243.93,73.57Zm14.16-7c-.77,2.65-1.15,3.71,0,6.58.16.39.27.67-.06.62-2.32-.4-2.82-.78-10.09-.17-.52,0,.17-1,.09-1.73A2.07,2.07,0,0,0,250,70.39c.27-1.31-.64-2.27-.55-2.46,1-2-.06-4.24-.93-8-.09-.35.12-.5.27-.34,4.67,5.06,7.65,6.06,9.25,6.54C258.17,66.21,258.14,66.39,258.09,66.56ZM270,52.76c-1,.86-2.48.93-3.08,1.48-.32.29-.46.74-.12,1.55.2.47.33.52-.34.7-1.09.29-1.23,1.72-2.62,1.46-.55-.11-.16.25,0,.27a1.54,1.54,0,0,0,1.39-.41,3.91,3.91,0,0,1,1.07-.89c.44-.17.89-.16.89.17s-.55.65-.78.76c.28.15,1.15.59.41,1.09-.57.39-1.37-.15-1.48-.22s-.5,0-.39.09c.43.52,1.57.38,1.37.66-1.06,1.42-.2,2.26-.52,3.69s-2.31,2.25-3.84,2.52c-5.21.94-10.27-3.49-13.23-6.82.27-.63.23-1.46,0-1.17s-.21.74-.83.9c-1.19.3-1.71-1.77-2.08-2.13a4.47,4.47,0,0,1-1.16-5.18,1.92,1.92,0,0,1,3.42-.35c.9,1.33.48,2.09,1,2.49a1.5,1.5,0,0,0,1.63,0c.55-.15.51,1.3,2.38,1.23s1.78-3.2,2.07-3.48c2.58-2.51,1.26-4.76.79-5.28-.13-.14.29-1.07.44-1.1a3.92,3.92,0,0,0,2.83-2.33s2.52,0,3.41-1.85c.24-.48,1,.47,2.66-.85a.26.26,0,0,1,.44.09c1.08,2.65,1.54,3.38,1.45,4.73-.06,1,2.62,6.43,2.82,6.91S270.28,52.54,270,52.76Z"/><path class="cls-1" d="M264,43.16c-1.46.05-3.16,1.84-3.72,2.09s-.37.43,0,.31c.73-.27,1.76-1.38,3.2-1.9,1.13-.41,1.06.52,1.49.47C265.1,44.11,264.82,43.12,264,43.16Z"/><path class="cls-1" d="M264.3,44.59c-.12,0,.13.66-.5.7-1.38.08-2.47,1.38-3.31,1.78a3.91,3.91,0,0,1-1.14.41c-.11,0-.07.18,0,.19,3.51.47,4.86.34,4.89.21s-.19-.36-.14-.51a3.22,3.22,0,0,0,.05-1.64c-.07-.25.52-.08.52-.41C264.69,45.15,264.51,44.54,264.3,44.59Zm-.54,2.77c-.06.28-1.63.15-2.48.08-.21,0-.55,0,.1-.44a6.68,6.68,0,0,1,2.14-1,.23.23,0,0,1,.26.18A2.86,2.86,0,0,1,263.76,47.36Z"/><path class="cls-1" d="M268.35,52.37a6.54,6.54,0,0,0-1.76.74c-.23.15-1.33.83-1.25-.24,0-.38.27-1.31.26-1.56s-.32-.24-.32,0a9.87,9.87,0,0,1-.23,1.58.74.74,0,0,0,1.1.82,8.93,8.93,0,0,1,2.16-1C268.5,52.65,268.53,52.37,268.35,52.37Z"/><path class="cls-1" d="M248,56.2c-.21-.08-.15.35-.43.31s-.06-.4-.54-.9c-.24-.26-.84-.36-1.28-1.07-.7-1.12-.1-3.61.93-3.26.56.2.47,1.53.29,2.42-.1.55.76.82.84.63s-.32-.29-.42-.59c-.16-.45,1-2.27-.53-2.8-1.15-.38-1.91,1.07-1.77,2.67a2.34,2.34,0,0,0,1.53,2.11c.69.26.17,1.21,1.1,1.21C248.15,56.94,248.24,56.29,248,56.2Z"/><path class="cls-1" d="M257.24,26.18a.11.11,0,0,0,.13,0l1.95-2.47a.12.12,0,0,0,0-.19l-.34-.13a.11.11,0,0,0-.14,0l-2,2.47a.12.12,0,0,0,.06.19Z"/><path class="cls-1" d="M253.62,25.18l.33.07a.12.12,0,0,0,.14-.08l1.14-2.82a.13.13,0,0,0-.08-.17l-.38-.08a.06.06,0,0,0-.08,0c-.15.36-.94,2.33-1.16,2.87A.12.12,0,0,0,253.62,25.18Z"/><path class="cls-1" d="M249.6,24.78h.34a.13.13,0,0,0,.12-.11l.28-3a.12.12,0,0,0-.12-.13h-.34a.12.12,0,0,0-.12.11l-.28,3A.12.12,0,0,0,249.6,24.78Z"/><path class="cls-1" d="M245.69,25.08l.33,0a.13.13,0,0,0,.11-.15l-.58-2.95a.11.11,0,0,0-.13-.1l-.34.05a.13.13,0,0,0-.1.15l.57,2.95A.12.12,0,0,0,245.69,25.08Z"/><path class="cls-1" d="M241.7,26a.12.12,0,0,0,.15.06l.32-.11a.12.12,0,0,0,.07-.17l-1.35-2.72a.13.13,0,0,0-.15-.06l-.33.12a.12.12,0,0,0-.06.17Z"/><path class="cls-1" d="M238,27.71a.11.11,0,0,0,.15,0l.3-.17a.13.13,0,0,0,0-.19l-2-2.31a.12.12,0,0,0-.15,0l-.3.17a.13.13,0,0,0,0,.19Z"/><path class="cls-1" d="M234.51,30.16a.11.11,0,0,0,.14,0l.27-.22a.13.13,0,0,0,0-.2L232.36,28a.11.11,0,0,0-.15,0l-.27.23a.12.12,0,0,0,0,.19Z"/><path class="cls-1" d="M231.49,33.27a.1.1,0,0,0,.13,0l.23-.27a.12.12,0,0,0,0-.19l-2.94-1.15a.12.12,0,0,0-.14,0l-.22.29a.12.12,0,0,0,.06.18Z"/><path class="cls-1" d="M225.93,36.49l3.15.44a.12.12,0,0,0,.12-.07l.18-.31a.12.12,0,0,0-.09-.18l-3.17-.45A.15.15,0,0,0,226,36a3.18,3.18,0,0,1-.16.32A.13.13,0,0,0,225.93,36.49Z"/><path class="cls-1" d="M224.2,41.27l3.22-.31a.12.12,0,0,0,.1-.09,3.58,3.58,0,0,0,.11-.35.12.12,0,0,0-.12-.16l-3.24.31a.12.12,0,0,0-.1.09c0,.12-.07.24-.1.35A.13.13,0,0,0,224.2,41.27Z"/><path class="cls-1" d="M226.64,45.09c0-.13,0-.25.05-.38a.12.12,0,0,0-.16-.13l-3.14,1.09a.15.15,0,0,0-.08.11c0,.12,0,.24,0,.37a.12.12,0,0,0,.16.12l3.11-1.08A.11.11,0,0,0,226.64,45.09Z"/><path class="cls-1" d="M226.56,49.36c0-.13,0-.26,0-.39a.12.12,0,0,0-.19-.09l-2.84,1.86a.11.11,0,0,0,0,.12c0,.13,0,.25,0,.38a.12.12,0,0,0,.19.08l2.81-1.85A.09.09,0,0,0,226.56,49.36Z"/><path class="cls-1" d="M227.27,53.64l-.09-.4a.13.13,0,0,0-.21-.05l-2.31,2.54a.14.14,0,0,0,0,.12c.05.13.09.25.13.37a.12.12,0,0,0,.21,0l2.28-2.51A.14.14,0,0,0,227.27,53.64Z"/><path class="cls-1" d="M228.45,57.43l-1.62,3.1a.13.13,0,0,0,0,.12l.2.34a.13.13,0,0,0,.22,0l1.61-3.06a.14.14,0,0,0,0-.11c-.06-.12-.13-.25-.19-.38A.12.12,0,0,0,228.45,57.43Z"/><path class="cls-1" d="M230.74,60.91a.12.12,0,0,0-.21.05l-.88,3.59a.2.2,0,0,0,0,.11c.09.1.18.21.28.31a.12.12,0,0,0,.21,0l.86-3.55a.14.14,0,0,0,0-.11Z"/></g><g id="FHI"><path class="cls-1" d="M96.36,110.53l3.33,8,3.34-8h1v9h-.76v-3.93l.06-4-3.36,8H99.4l-3.35-7.93.07,4v4h-.77v-9Z"/><path class="cls-1" d="M112,117h-4.1l-.93,2.54h-.8l3.42-9h.72l3.42,9h-.79Zm-3.86-.64h3.62l-1.81-4.92Z"/><path class="cls-1" d="M118.38,114.35l2.54-3.82h.91l-3,4.45,3.08,4.58H121l-2.63-3.94-2.64,3.94h-.9l3.08-4.58-3-4.45h.91Z"/><path class="cls-1" d="M125.88,115.89h-3v-.63h3Z"/><path class="cls-1" d="M128.78,115.88v3.68H128v-9h3.07a3.22,3.22,0,0,1,2.22.72,2.52,2.52,0,0,1,.82,2,2.45,2.45,0,0,1-.79,2,3.33,3.33,0,0,1-2.27.69Zm0-.64h2.31a2.44,2.44,0,0,0,1.69-.53,1.87,1.87,0,0,0,.58-1.47,2,2,0,0,0-.57-1.49,2.35,2.35,0,0,0-1.65-.57h-2.36Z"/><path class="cls-1" d="M137.23,118.91h4.46v.65h-5.23v-9h.77Z"/><path class="cls-1" d="M148.77,117h-4.09l-.93,2.54H143l3.41-9h.73l3.41,9h-.79Zm-3.86-.64h3.62l-1.81-4.92Z"/><path class="cls-1" d="M159.18,119.56h-.76l-5.19-7.73v7.73h-.77v-9h.77l5.19,7.73v-7.73h.76Z"/><path class="cls-1" d="M168.5,116.74a3.28,3.28,0,0,1-1,2.18,3.37,3.37,0,0,1-2.31.76,3.19,3.19,0,0,1-1.77-.5,3.27,3.27,0,0,1-1.19-1.42,4.91,4.91,0,0,1-.43-2.11v-1.17a5.12,5.12,0,0,1,.42-2.13,3.24,3.24,0,0,1,1.21-1.44,3.36,3.36,0,0,1,1.82-.5,3.23,3.23,0,0,1,2.29.78,3.31,3.31,0,0,1,1,2.16h-.77a2.3,2.3,0,0,0-2.5-2.3,2.35,2.35,0,0,0-1.95.92,4,4,0,0,0-.73,2.54v1.1a4,4,0,0,0,.71,2.5,2.27,2.27,0,0,0,1.91.93,2.57,2.57,0,0,0,1.81-.58,2.78,2.78,0,0,0,.75-1.72Z"/><path class="cls-1" d="M173,115.08l-1.27,1.25v3.23H171v-9h.77v4.87l4.62-4.87h1l-3.78,4,4.07,5h-.93Z"/><path class="cls-1" d="M181.36,115.89h-3v-.63h3Z"/><path class="cls-1" d="M190,118.48a2.47,2.47,0,0,1-1.24.88,5.35,5.35,0,0,1-1.89.32,3.46,3.46,0,0,1-1.88-.51,3.39,3.39,0,0,1-1.28-1.44,4.83,4.83,0,0,1-.46-2.13v-1.14a4.35,4.35,0,0,1,.95-3,3.19,3.19,0,0,1,2.55-1.09,3.42,3.42,0,0,1,2.24.71,3,3,0,0,1,1,1.95h-.76a2.4,2.4,0,0,0-.81-1.5,2.63,2.63,0,0,0-1.68-.52,2.45,2.45,0,0,0-2,.9,3.92,3.92,0,0,0-.74,2.54v1.07a4.54,4.54,0,0,0,.35,1.82,2.84,2.84,0,0,0,1,1.22,2.62,2.62,0,0,0,1.5.44,4.29,4.29,0,0,0,1.69-.31,1.85,1.85,0,0,0,.68-.48v-2.33h-2.42v-.65H190Z"/><path class="cls-1" d="M197.78,115.23h-4.22v3.68h4.85v.65H192.8v-9h5.58v.65h-4.82v3.41h4.22Z"/><path class="cls-1" d="M205.76,117.34a1.47,1.47,0,0,0-.53-1.19,5.51,5.51,0,0,0-1.92-.83,6.66,6.66,0,0,1-2.05-.86,2.07,2.07,0,0,1-.06-3.4,3.48,3.48,0,0,1,2.17-.65,3.63,3.63,0,0,1,1.61.35,2.65,2.65,0,0,1,1.1,1,2.58,2.58,0,0,1,.39,1.39h-.77a1.89,1.89,0,0,0-.63-1.49,2.44,2.44,0,0,0-1.7-.57,2.62,2.62,0,0,0-1.64.47,1.44,1.44,0,0,0-.62,1.2,1.4,1.4,0,0,0,.55,1.13,5.13,5.13,0,0,0,1.77.76,8.15,8.15,0,0,1,1.84.69,2.61,2.61,0,0,1,.94.85,2.15,2.15,0,0,1,.32,1.18,2.06,2.06,0,0,1-.85,1.71,3.71,3.71,0,0,1-2.25.64,4.34,4.34,0,0,1-1.75-.34,2.73,2.73,0,0,1-1.21-1,2.45,2.45,0,0,1-.41-1.4h.76a1.8,1.8,0,0,0,.71,1.5,3,3,0,0,0,1.9.56,2.8,2.8,0,0,0,1.69-.47A1.44,1.44,0,0,0,205.76,117.34Z"/><path class="cls-1" d="M213.79,115.23h-4.22v3.68h4.85v.65H208.8v-9h5.59v.65h-4.82v3.41h4.22Z"/><path class="cls-1" d="M217.43,118.91h4.45v.65h-5.22v-9h.77Z"/><path class="cls-1" d="M224.75,118.91h4.45v.65H224v-9h.77Z"/><path class="cls-1" d="M236.4,117.34a1.46,1.46,0,0,0-.52-1.19,5.58,5.58,0,0,0-1.93-.83,6.77,6.77,0,0,1-2-.86,2.08,2.08,0,0,1-.06-3.4,3.51,3.51,0,0,1,2.18-.65,3.58,3.58,0,0,1,1.6.35,2.67,2.67,0,0,1,1.11,1,2.58,2.58,0,0,1,.39,1.39h-.77a1.87,1.87,0,0,0-.64-1.49,2.42,2.42,0,0,0-1.69-.57,2.67,2.67,0,0,0-1.65.47,1.43,1.43,0,0,0-.61,1.2,1.37,1.37,0,0,0,.55,1.13,5,5,0,0,0,1.76.76,8,8,0,0,1,1.84.69,2.73,2.73,0,0,1,1,.85,2.14,2.14,0,0,1,.31,1.18,2,2,0,0,1-.85,1.71,3.71,3.71,0,0,1-2.25.64,4.37,4.37,0,0,1-1.75-.34,2.73,2.73,0,0,1-1.21-1,2.45,2.45,0,0,1-.41-1.4h.76a1.78,1.78,0,0,0,.72,1.5,3,3,0,0,0,1.89.56,2.78,2.78,0,0,0,1.69-.47A1.44,1.44,0,0,0,236.4,117.34Z"/><path class="cls-1" d="M245.84,116.74a3.28,3.28,0,0,1-1,2.18,3.37,3.37,0,0,1-2.31.76,3.21,3.21,0,0,1-1.77-.5,3.34,3.34,0,0,1-1.19-1.42,5.06,5.06,0,0,1-.43-2.11v-1.17a5.12,5.12,0,0,1,.42-2.13,3.31,3.31,0,0,1,1.21-1.44,3.36,3.36,0,0,1,1.82-.5,3.23,3.23,0,0,1,2.29.78,3.26,3.26,0,0,1,1,2.16h-.77a2.3,2.3,0,0,0-2.5-2.3,2.35,2.35,0,0,0-1.95.92,4,4,0,0,0-.73,2.54v1.1a4,4,0,0,0,.71,2.5,2.27,2.27,0,0,0,1.91.93,2.57,2.57,0,0,0,1.81-.58,2.78,2.78,0,0,0,.75-1.72Z"/><path class="cls-1" d="M255,119.56h-.77v-4.33h-5.15v4.33h-.77v-9h.77v4.06h5.15v-4.06H255Z"/><path class="cls-1" d="M262.92,117h-4.1l-.93,2.54h-.8l3.42-9h.72l3.42,9h-.8Zm-3.86-.64h3.62l-1.81-4.92Z"/><path class="cls-1" d="M271.58,115.34h-4.21v4.22h-.76v-9h5.59v.65h-4.83v3.51h4.21Z"/><path class="cls-1" d="M280.62,111.18h-3.09v8.38h-.76v-8.38h-3.08v-.65h6.93Z"/><path class="cls-1" d="M88.2,101.75H83.5v4.85H81.05V94.73h7.73v2H83.5v3.07h4.7Z"/><path class="cls-1" d="M95.43,102.26h-2v4.34H91V94.73h4.41a5,5,0,0,1,3.24.94,3.24,3.24,0,0,1,1.15,2.65,3.63,3.63,0,0,1-.53,2,3.53,3.53,0,0,1-1.59,1.3l2.56,4.85v.11H97.66Zm-2-2h2a2,2,0,0,0,1.42-.47,1.69,1.69,0,0,0,.51-1.3,1.78,1.78,0,0,0-.48-1.32,2,2,0,0,0-1.46-.48h-2Z"/><path class="cls-1" d="M105.13,106.6h-2.45V94.73h2.45Z"/><path class="cls-1" d="M116.93,96.71H113.3v9.89h-2.45V96.71h-3.59v-2h9.67Z"/><path class="cls-1" d="M121.76,104.64h6v2h-9v-1.43l5.87-8.46h-5.86v-2h8.9v1.4Z"/><path class="cls-1" d="M134.54,102.47H130v-1.9h4.59Z"/><path class="cls-1" d="M147.09,106.6h-2.45v-5.08h-4.77v5.08h-2.44V94.73h2.44v4.81h4.77V94.73h2.45Z"/><path class="cls-1" d="M156.76,104.16h-4.29l-.81,2.44h-2.6l4.42-11.87h2.26l4.45,11.87h-2.6Zm-3.63-2h3l-1.49-4.45Z"/><path class="cls-1" d="M162.13,106.6V94.73h4.16a5.49,5.49,0,0,1,3.28.83A2.84,2.84,0,0,1,170.69,98a2.61,2.61,0,0,1-1.7,2.52,2.45,2.45,0,0,1,1.44.92,2.72,2.72,0,0,1,.52,1.69,3.15,3.15,0,0,1-1.09,2.6,5,5,0,0,1-3.11.89Zm2.45-6.9h1.81c1.23,0,1.85-.51,1.85-1.47a1.36,1.36,0,0,0-.47-1.16,2.44,2.44,0,0,0-1.48-.36h-1.71Zm0,1.73v3.21h2.09a2,2,0,0,0,1.35-.41,1.41,1.41,0,0,0,.49-1.14,1.49,1.49,0,0,0-1.69-1.66Z"/><path class="cls-1" d="M180.77,101.46h-4.7v3.18h5.51v2h-8V94.73h7.95v2h-5.5v2.83h4.7Z"/><path class="cls-1" d="M188.58,102.26h-2v4.34h-2.44V94.73h4.41a5,5,0,0,1,3.24.94A3.23,3.23,0,0,1,193,98.32a3.63,3.63,0,0,1-.52,2,3.51,3.51,0,0,1-1.6,1.3l2.57,4.85v.11h-2.62Zm-2-2h2a2,2,0,0,0,1.42-.47,1.69,1.69,0,0,0,.51-1.3,1.78,1.78,0,0,0-.48-1.32,2,2,0,0,0-1.46-.48h-2Z"/><path class="cls-1" d="M200.11,102.47h-4.59v-1.9h4.59Z"/><path class="cls-1" d="M205.59,106.6h-2.45V94.73h2.45Z"/><path class="cls-1" d="M218.35,106.6H215.9l-4.76-7.81v7.81h-2.45V94.73h2.45l4.77,7.83V94.73h2.44Z"/><path class="cls-1" d="M227.31,103.49a1.29,1.29,0,0,0-.49-1.07,6.87,6.87,0,0,0-1.76-.78,12,12,0,0,1-2-.81,3.29,3.29,0,0,1-2-2.94,2.86,2.86,0,0,1,.54-1.72A3.52,3.52,0,0,1,223.12,95a5.94,5.94,0,0,1,2.28-.42,5.32,5.32,0,0,1,2.27.46,3.65,3.65,0,0,1,1.54,1.3,3.39,3.39,0,0,1,.55,1.91h-2.44A1.61,1.61,0,0,0,226.8,97a2.11,2.11,0,0,0-1.44-.45,2.24,2.24,0,0,0-1.4.38,1.18,1.18,0,0,0-.49,1,1.16,1.16,0,0,0,.58,1,6.68,6.68,0,0,0,1.72.73,7.46,7.46,0,0,1,3,1.56,3.11,3.11,0,0,1,.95,2.31,2.87,2.87,0,0,1-1.16,2.42,5.15,5.15,0,0,1-3.14.88,6,6,0,0,1-2.5-.51,3.88,3.88,0,0,1-1.71-1.37,3.46,3.46,0,0,1-.6-2h2.46c0,1.31.78,2,2.35,2a2.27,2.27,0,0,0,1.36-.35A1.18,1.18,0,0,0,227.31,103.49Z"/><path class="cls-1" d="M240.94,96.71H237.3v9.89h-2.44V96.71h-3.59v-2h9.67Z"/><path class="cls-1" d="M245.77,106.6h-2.45V94.73h2.45Z"/><path class="cls-1" d="M257.57,96.71h-3.64v9.89h-2.44V96.71H247.9v-2h9.67Z"/><path class="cls-1" d="M268.79,94.73v7.82a4,4,0,0,1-1.22,3.08,4.71,4.71,0,0,1-3.33,1.14,4.79,4.79,0,0,1-3.31-1.1,4,4,0,0,1-1.24-3V94.73h2.44v7.84a2.29,2.29,0,0,0,.56,1.7,2.17,2.17,0,0,0,1.55.53c1.37,0,2.07-.72,2.09-2.17v-7.9Z"/><path class="cls-1" d="M280.56,96.71h-3.63v9.89h-2.45V96.71h-3.59v-2h9.67Z"/></g></svg>