<svg xmlns="http://www.w3.org/2000/svg" viewBox="0 0 368.5 94.96"><defs><style>.cls-1{fill:#fff;}.cls-2{fill:none;}</style></defs><g id="MPG_Minerva"><path class="cls-1" d="M311.72,16.18a31.46,31.46,0,1,0,31.46,31.46A31.5,31.5,0,0,0,311.72,16.18Zm0,62A30.58,30.58,0,1,1,342.3,47.64,30.62,30.62,0,0,1,311.72,78.22Z"/><path class="cls-1" d="M330.18,45.23c-.44-.91-.14-1.5-.27-2.17a33,33,0,0,0-1.29-3.23c-.22-.53,1.13-.4.13-2.3,0-.06,1.39-.58,0-1.65a8,8,0,0,1-1.79-2,.32.32,0,0,1,0-.39,1.32,1.32,0,0,0-.05-2.25c-.62-.38-1.34,0-2,.43-.22.14-.33.23-.56.14a5.09,5.09,0,0,1-.54-.35,2.31,2.31,0,0,0,.91-1.69,4.34,4.34,0,0,0-3,.3l-.11-.07a2.16,2.16,0,0,0,.25-2.07h0a24.33,24.33,0,0,1,3.7-4l0,0c.08-.08.11-.17,0-.26l-.32-.19a27.67,27.67,0,0,0-41.09,24.19,28.29,28.29,0,0,0,11.8,22.65,4.16,4.16,0,0,0,.83.48.25.25,0,0,0,.32-.06l.11-.14a.4.4,0,0,0,.1-.25c0-.2-.29-.38-.64-.89a8.31,8.31,0,0,1-1.42-4.54,6.53,6.53,0,0,1,1.36-4.08C297.63,62,300,64.07,300,66c-.06,2.16-2.08,2.06-1.65,3.68.28,1,1,.6,1.17,1.37a3,3,0,0,0,2.81,2.07c.19,0,.35.13.72.51a3.22,3.22,0,0,0,2.43.36c.56-.1,1.26.41,2.42.28,1.45-.16,1.82-.27,2.44-.28a74.46,74.46,0,0,1,10.81.53c.7.11.92-.2.6-.75a8.53,8.53,0,0,1-.82-7.47,9.43,9.43,0,0,0,6.49-1.2,3.4,3.4,0,0,0,1.52-2.85,6.92,6.92,0,0,1-.15-2c.22-.82.38-.8.61-1,1.09-.76.3-1.37.14-1.43a1,1,0,0,0,.31-1.37c-.2-.21-.79-1.87-.11-2.21s1.57-.53,2.42-.9a1.37,1.37,0,0,0,.71-1.82C332.46,50.45,330.25,45.37,330.18,45.23ZM299.65,69.85c-.21.05-.89.07-.74-.82.1-.55.69-.78,1-.47C299.84,69,299.69,69.41,299.65,69.85Zm26.07-37.74c.36-.23.74-.32,1-.1.78.78-.85,1.22-.51,1.81a9.13,9.13,0,0,0,2.23,2.52c.37.29.43.93-1,1.22s-7.08,1.79-10.06,4.95c-3.74,4-6.12,9.09-6.44,8.39s-1.08-.83-1-1C315.33,40.62,323.74,33.35,325.72,32.11Zm2.46,6.5c-.31.88-2.74,1.66-2.63,1,.05-.28,0-.64.19-.68s1-.31,2.24-.62C328.1,38.32,328.26,38.39,328.18,38.61ZM322,40.21c-.06-.36,2.56-1.24,2.65-1,.17.48-.54,1.77-1.42,2.1s-1.41.25-1.37.11A4.38,4.38,0,0,0,322,40.21Zm-6.09,13.67c-1.2.73-1.85-.68-2-.92a1.24,1.24,0,0,1-.16-1,7.28,7.28,0,0,0-.12-2.79c-.12-.79,1.52-2.75,1.89-3.1s.94.18,1,.76A2.35,2.35,0,0,1,315.28,49c-.77.58-.92,1.33-.77,1.53s.4.08.55-.24c.47-1,1.81-1.5,2-2a2.66,2.66,0,0,0,.06-1.67c0-.3.26-.38.48-.35s.41.43.55.81c.87,2.25-1.31,3.61-1.66,4.14C316.35,51.47,316.85,53.3,315.91,53.88Zm1.82-8.72c-.64.43-1.58-.16-1.39-.43a13.12,13.12,0,0,1,3.44-3.3c1-.64,1.14-.68,1.19-.32a3.12,3.12,0,0,1-.78,2.25,2.49,2.49,0,0,1-1.73.77C318.22,44.18,318.23,44.82,317.73,45.16ZM312,52.83c-.3-.06-.41-.64-.35-.87a9,9,0,0,1,1.2-1.93c.07-.09.22,0,.23.1C313.21,51.35,313,53.07,312,52.83Zm9.64-22.21a5.28,5.28,0,0,1,2.24-.48c.25,0-.54,1.44-2,2a6.32,6.32,0,0,1-2.67.68C319,32.77,320.45,31.14,321.6,30.62Zm-25,23.45a2.41,2.41,0,0,0-.87-.74A6.68,6.68,0,0,0,294.71,56a19,19,0,0,1-2.25-8.36c-.41-10.61,8.47-19.15,19.31-19.12a17.23,17.23,0,0,1,6.73,1.37,7.6,7.6,0,0,0-1.1,2c0-.57-.17-1-.12-1.38s-1.54.27-2.93,2.47a5.31,5.31,0,0,0-.64,1.61,3.43,3.43,0,0,0-.28-1.46,4.81,4.81,0,0,0-2.55,2.62,5.86,5.86,0,0,0-.33,1,2.09,2.09,0,0,0-.27-1,4.8,4.8,0,0,0-2.58,2.68,5.09,5.09,0,0,0-.34,1.37c-.15-.69-.41-1.11-.5-1-.57.73-1.69,1.05-2.28,2.88a4.43,4.43,0,0,0-.21,1.26c-.24-.62-.59-1-.67-1a6.14,6.14,0,0,0-2.1,3.26,4.93,4.93,0,0,0,0,1.73,7.91,7.91,0,0,1-.93-1.43A4.58,4.58,0,0,0,299,48.78a6.47,6.47,0,0,0,.22,1.83c-.47-.87-1.15-1.27-1.22-1.22a5.46,5.46,0,0,0-1.45,3.3A3.91,3.91,0,0,0,296.64,54.07Zm22.2-23.88a5.39,5.39,0,0,1,2.47-1.72,3.86,3.86,0,0,1-1.18,2.58,9.44,9.44,0,0,1-2.58,1.82A6,6,0,0,1,318.84,30.19Zm-2.77,3.91a6.47,6.47,0,0,0-1.68,1.9c-.17.27-.57-1.49.51-3.18A5.84,5.84,0,0,1,316.84,31C316.75,31.4,317.48,33,316.07,34.1Zm-3,2.25c-1,1.51-1.07,1-2.18,2.47a7.31,7.31,0,0,1,.31-2.81A5,5,0,0,1,313,33.76,3.06,3.06,0,0,1,313,36.35Zm-3.32,3c-.52.91-1,.7-1.86,2-.1.14-.33-1.07.19-2.7a4,4,0,0,1,1.77-2.08C310,36.54,310.34,38.29,309.72,39.37Zm-3.09,3.2a5.79,5.79,0,0,1-1.49,1.92c-.1.12-.57-1.1-.12-2.64a4.4,4.4,0,0,1,1.58-2.1C306.76,39.58,307.19,41.34,306.63,42.57Zm-2.51,2a2.74,2.74,0,0,1-.15.9,6.52,6.52,0,0,1-1.56,2.44,4.06,4.06,0,0,1-.48-1.76,4.46,4.46,0,0,1,1.56-3.33C303.72,42.79,304.12,43.74,304.12,44.55Zm-2.56,3.84A4.56,4.56,0,0,1,300,51.63a5.16,5.16,0,0,1-.66-2.27,3.43,3.43,0,0,1,1.06-2.92C300.6,47,301.57,47.41,301.56,48.39Zm-3.62,1.88a2.74,2.74,0,0,1,1.22,2.45,3.46,3.46,0,0,1-1.36,2.82c-.28-1.09-.81-1.31-.8-2.4A5.49,5.49,0,0,1,297.94,50.27ZM300.12,54a5.76,5.76,0,0,1,2.93-.45A3.81,3.81,0,0,1,301.28,56a4.46,4.46,0,0,1-3,.61A3.62,3.62,0,0,1,300.12,54ZM300,53a4.45,4.45,0,0,1,2.13-2.5h0a5.53,5.53,0,0,1,2.8-.44c.16.06-.51,1.67-1.74,2.26S301.26,52.61,300,53Zm2.06-3.53A6.47,6.47,0,0,1,304.3,47a5.32,5.32,0,0,1,2.66-.4,3.72,3.72,0,0,1-1.86,2.28A5.56,5.56,0,0,1,302.07,49.48Zm2.67-3.58a7,7,0,0,1,2.51-2.47,4.5,4.5,0,0,1,2.51-.31,3.47,3.47,0,0,1-1.93,2.24A7.1,7.1,0,0,1,304.74,45.9ZM308,42.35A5.13,5.13,0,0,1,310.17,40a4.88,4.88,0,0,1,2.66,0c.28,0-.4,1.35-2,1.94A6.06,6.06,0,0,1,308,42.35Zm3.59-3.41A6.22,6.22,0,0,1,314,36.76a5.18,5.18,0,0,1,2.74-.07c.16.06-.82,1.52-2.32,2A6.62,6.62,0,0,1,311.54,38.94ZM315.18,36c-.16-.11,1.27-1.71,2.44-2.16a5.37,5.37,0,0,1,2.48-.3,4,4,0,0,1-2.13,2A5.51,5.51,0,0,1,315.18,36ZM295.3,68.72a27.16,27.16,0,0,1-10.36-21.08,26.77,26.77,0,0,1,39.2-23.72.12.12,0,0,1,0,.2,28.22,28.22,0,0,0-3.05,3.41,22,22,0,0,0-9.39-2.08,22.21,22.21,0,0,0-22.19,22.19,21.61,21.61,0,0,0,5.34,14.44,7.23,7.23,0,0,0-.56,2.82A7.7,7.7,0,0,0,295.3,68.72Zm0-7.45h0a20.75,20.75,0,0,1-4.92-13.64,21.33,21.33,0,0,1,21.31-21.31,21.1,21.1,0,0,1,8.87,1.92,5.73,5.73,0,0,0-1.23.78,19.06,19.06,0,0,0-7.64-1.53,20.17,20.17,0,0,0-20.14,20.14A19.22,19.22,0,0,0,296,60.23C295.86,60.49,295.62,60.86,295.34,61.27Zm1.06-1.67a4.05,4.05,0,0,1-1.31-2.5c0-.06,0-.12,0-.18a5.66,5.66,0,0,1,.71-2.7c.15-.14,1.6,1,1.62,2.61A4.27,4.27,0,0,1,296.4,59.6Zm2.41-2.16a5,5,0,0,1,2.79-.34,4.8,4.8,0,0,1-1.86,2.4,3.67,3.67,0,0,1-2.63.39C297.81,59.13,297.67,58,298.81,57.44Zm1.56,13.92a3.27,3.27,0,0,1,.15-2.17c.52-.26,1.47-.35,1.49,0a8.23,8.23,0,0,0,.09,3.06C302,72.43,300.71,72.33,300.37,71.36Zm.09-3.31c-.1-.6.47-1.17.46-2.47,0-1.59-2-3.77-3.31-5.17a5.67,5.67,0,0,0,2.36-.58,4.71,4.71,0,0,0,2.42-3.1,2.83,2.83,0,0,0-1.11-.14l.22-.11a4.72,4.72,0,0,0,2.35-3.34,6.05,6.05,0,0,0-1.2-.07l.59-.22a4.32,4.32,0,0,0,2.54-3.16,3.05,3.05,0,0,0-1-.13,5.25,5.25,0,0,0,.55-.25,4.62,4.62,0,0,0,2.42-3.09,3.51,3.51,0,0,0-1-.11,7.27,7.27,0,0,0,1.35-.44,4.34,4.34,0,0,0,2.56-2.87,2.67,2.67,0,0,0-.89-.17,13,13,0,0,0,1.31-.38,4.15,4.15,0,0,0,2.66-2.58c-.27,0-.64-.15-1.11-.23a7.84,7.84,0,0,0,1.95-.4c2.14-.73,2.9-2,2.94-2.58a1.63,1.63,0,0,0-.67-.24,7.83,7.83,0,0,0,1.39-.37,5.65,5.65,0,0,0,2.89-2.94,10.27,10.27,0,0,0,1.17-.45,3.81,3.81,0,0,0,.57-.3c.1.08.26.19.49.34s.41.24.26.36A76.13,76.13,0,0,0,309.5,49.54c-.07.1-.18.08-.37.07-2.39-.16-3.74,2.67-2.67,5.33a6,6,0,0,1-1.35,1.66c-.09.08-.31.41.07.37.56,0,1.27-.94,1.61-1.34.14.18.66.61.41.86A18.79,18.79,0,0,1,303,59.62c-.76.38,1.26.63,4.71-2.49.2-.18.44.72.75,1.11-.59,1.95.87,5.73.64,6.91a.87.87,0,0,1-.85.81c-3.42.07-3.75-.09-5.49.42-.81.24-.6.78,0,.62s1.37-.46,5.06-.23c.91.06,1.94-.18,1.95-1.7s-1.1-5.51-.72-6.08a2,2,0,0,0,1,.42c0,1.34,2.12,5.69,1.15,8.09-.36.89-1.93.83-4.62.56C302,67.61,300.55,68.6,300.46,68.05ZM311,71a1.67,1.67,0,0,1-2.19-1.91c.17-.27,1.3.31,2.17-.26C311.64,68.4,312,70.65,311,71Zm-8.09,1.31c-.25-1.11-.35-3,.11-3.44.09-.09,1.46-.28,1.44,0-.11,1.32-.64,2.79.36,4.25C305.18,73.7,303.23,73.78,302.89,72.31Zm3.4,1.26c-.48-.12-1.8-2.23-.72-4.73.11-.27,1.76-.1,2,0s-.22,2.05,2,2.93C309.87,71.84,309.63,74.39,306.29,73.57Zm14.16-7c-.77,2.65-1.15,3.71,0,6.58.15.39.26.67-.07.62-2.32-.4-2.82-.78-10.08-.17-.53,0,.17-1,.08-1.73a2.06,2.06,0,0,0,1.95-1.47c.27-1.31-.64-2.27-.54-2.46,1-2-.07-4.24-.94-8-.08-.35.12-.5.27-.34,4.67,5.06,7.65,6.06,9.26,6.54C320.54,66.21,320.5,66.39,320.45,66.56Zm11.94-13.8c-1,.86-2.47.93-3.08,1.48-.32.29-.46.74-.12,1.55.2.47.33.52-.34.7-1.08.29-1.23,1.72-2.62,1.46-.55-.11-.15.25,0,.27a1.53,1.53,0,0,0,1.38-.41,3.91,3.91,0,0,1,1.07-.89c.44-.17.89-.16.9.17s-.55.65-.79.76c.29.15,1.15.59.41,1.09-.57.39-1.37-.15-1.48-.22s-.5,0-.39.09c.43.52,1.58.38,1.37.66-1.06,1.42-.2,2.26-.52,3.69s-2.31,2.25-3.84,2.52c-5.21.94-10.27-3.49-13.23-6.82.27-.63.23-1.46,0-1.17s-.21.74-.83.9c-1.19.3-1.7-1.77-2.07-2.13a4.46,4.46,0,0,1-1.16-5.18,1.91,1.91,0,0,1,3.41-.35c.9,1.33.49,2.09,1,2.49a1.52,1.52,0,0,0,1.64,0c.54-.15.5,1.3,2.37,1.23s1.78-3.2,2.07-3.48c2.58-2.51,1.26-4.76.79-5.28-.12-.14.29-1.07.44-1.1a3.9,3.9,0,0,0,2.83-2.33s2.52,0,3.42-1.85c.23-.48,1,.47,2.66-.85a.25.25,0,0,1,.43.09c1.08,2.65,1.54,3.38,1.46,4.73-.06,1,2.62,6.43,2.81,6.91S332.64,52.54,332.39,52.76Z"/><path class="cls-1" d="M326.34,43.16c-1.47.05-3.17,1.84-3.73,2.09s-.37.43,0,.31c.73-.27,1.77-1.38,3.2-1.9,1.14-.41,1.06.52,1.49.47C327.47,44.11,327.18,43.12,326.34,43.16Z"/><path class="cls-1" d="M326.67,44.59c-.12,0,.12.66-.51.7-1.38.08-2.47,1.38-3.31,1.78a3.81,3.81,0,0,1-1.14.41c-.11,0-.07.18,0,.19,3.52.47,4.86.34,4.89.21s-.19-.36-.14-.51a3.22,3.22,0,0,0,0-1.64c-.07-.25.52-.08.52-.41C327.05,45.15,326.87,44.54,326.67,44.59Zm-.54,2.77c-.07.28-1.64.15-2.49.08-.2,0-.54,0,.11-.44a6.51,6.51,0,0,1,2.13-1,.22.22,0,0,1,.26.18A2.72,2.72,0,0,1,326.13,47.36Z"/><path class="cls-1" d="M330.71,52.37a6.36,6.36,0,0,0-1.75.74c-.24.15-1.34.83-1.26-.24,0-.38.27-1.31.27-1.56s-.32-.24-.33,0a9.87,9.87,0,0,1-.23,1.58.74.74,0,0,0,1.1.82,8.82,8.82,0,0,1,2.17-1C330.86,52.65,330.9,52.37,330.71,52.37Z"/><path class="cls-1" d="M310.37,56.2c-.2-.08-.15.35-.43.31s-.06-.4-.54-.9c-.23-.26-.83-.36-1.28-1.07-.7-1.12-.09-3.61.93-3.26.57.2.47,1.53.3,2.42-.11.55.75.82.83.63s-.32-.29-.42-.59c-.16-.45,1.05-2.27-.53-2.8-1.15-.38-1.91,1.07-1.77,2.67A2.37,2.37,0,0,0,309,55.72c.7.26.17,1.21,1.11,1.21C310.51,56.94,310.6,56.29,310.37,56.2Z"/><path class="cls-1" d="M319.6,26.18a.12.12,0,0,0,.14,0l1.95-2.47a.13.13,0,0,0-.05-.19l-.33-.13a.11.11,0,0,0-.14,0l-2,2.47a.12.12,0,0,0,.05.19Z"/><path class="cls-1" d="M316,25.18l.34.07a.12.12,0,0,0,.13-.08l1.15-2.82a.14.14,0,0,0-.09-.17l-.38-.08a.07.07,0,0,0-.08,0c-.15.36-.94,2.33-1.16,2.87A.12.12,0,0,0,316,25.18Z"/><path class="cls-1" d="M312,24.78h.34a.12.12,0,0,0,.12-.11l.28-3a.11.11,0,0,0-.11-.13h-.35a.13.13,0,0,0-.12.11l-.28,3A.12.12,0,0,0,312,24.78Z"/><path class="cls-1" d="M308.05,25.08l.34,0a.13.13,0,0,0,.1-.15l-.57-2.95a.13.13,0,0,0-.14-.1l-.34.05a.13.13,0,0,0-.1.15l.57,2.95A.12.12,0,0,0,308.05,25.08Z"/><path class="cls-1" d="M304.06,26a.12.12,0,0,0,.15.06l.32-.11a.12.12,0,0,0,.07-.17l-1.35-2.72a.13.13,0,0,0-.15-.06l-.32.12a.12.12,0,0,0-.07.17Z"/><path class="cls-1" d="M300.33,27.71a.11.11,0,0,0,.15,0l.31-.17a.13.13,0,0,0,0-.19l-2-2.31a.14.14,0,0,0-.16,0l-.3.17a.13.13,0,0,0,0,.19Z"/><path class="cls-1" d="M296.87,30.16a.12.12,0,0,0,.15,0l.27-.22a.13.13,0,0,0,0-.2L294.72,28a.11.11,0,0,0-.15,0l-.26.23a.12.12,0,0,0,0,.19Z"/><path class="cls-1" d="M293.85,33.27a.11.11,0,0,0,.14,0l.22-.27a.12.12,0,0,0,0-.19l-2.94-1.15a.12.12,0,0,0-.14,0l-.21.29a.11.11,0,0,0,.05.18Z"/><path class="cls-1" d="M288.29,36.49l3.15.44a.15.15,0,0,0,.13-.07l.17-.31a.12.12,0,0,0-.09-.18l-3.17-.44a.1.1,0,0,0-.12.06l-.16.32A.12.12,0,0,0,288.29,36.49Z"/><path class="cls-1" d="M286.57,41.27l3.21-.31a.12.12,0,0,0,.1-.09l.12-.35a.13.13,0,0,0-.13-.16l-3.23.31a.13.13,0,0,0-.11.09l-.09.35A.12.12,0,0,0,286.57,41.27Z"/><path class="cls-1" d="M289,45.09c0-.13,0-.25.05-.38a.12.12,0,0,0-.16-.13l-3.13,1.09a.14.14,0,0,0-.09.11c0,.12,0,.24,0,.37a.12.12,0,0,0,.16.12l3.11-1.08A.11.11,0,0,0,289,45.09Z"/><path class="cls-1" d="M288.93,49.36l0-.39a.12.12,0,0,0-.19-.09l-2.83,1.86a.14.14,0,0,0-.06.12c0,.13,0,.25.05.38a.13.13,0,0,0,.19.08l2.81-1.85A.11.11,0,0,0,288.93,49.36Z"/><path class="cls-1" d="M289.64,53.64c0-.13-.07-.26-.1-.4a.13.13,0,0,0-.21-.05L287,55.73a.11.11,0,0,0,0,.12l.12.37a.12.12,0,0,0,.21,0l2.28-2.51A.11.11,0,0,0,289.64,53.64Z"/><path class="cls-1" d="M290.82,57.43l-1.63,3.1a.13.13,0,0,0,0,.12l.21.34a.12.12,0,0,0,.21,0l1.61-3.06a.11.11,0,0,0,0-.11c-.06-.12-.13-.25-.19-.38A.12.12,0,0,0,290.82,57.43Z"/><path class="cls-1" d="M293.11,60.91a.12.12,0,0,0-.22.05L292,64.55a.14.14,0,0,0,0,.11l.28.31a.12.12,0,0,0,.21,0l.86-3.55a.11.11,0,0,0,0-.1Z"/></g><g id="MPI_DE_Master_einzeilig"><g id="MPI_DE_Editierbare_Unterzeile_einzeilig"><path class="cls-1" d="M85.58,64.86l3.33,8,3.34-8h1v9H92.5V70l.06-4-3.35,8h-.59L85.27,66l.06,4v3.95h-.76v-9Z"/><path class="cls-1" d="M101.17,71.35h-4.1l-.93,2.53h-.8l3.42-9h.72l3.42,9h-.8Zm-3.86-.65h3.61l-1.8-4.91Z"/><path class="cls-1" d="M107.6,68.67l2.54-3.81h.91l-3,4.45,3.08,4.57h-.91l-2.63-3.94L105,73.88h-.9l3.08-4.57-3-4.45h.91Z"/><path class="cls-1" d="M115.1,70.21h-3v-.62h3Z"/><path class="cls-1" d="M118,70.2v3.68h-.77v-9h3.08a3.24,3.24,0,0,1,2.22.72,2.83,2.83,0,0,1,0,3.93,3.28,3.28,0,0,1-2.27.69Zm0-.64h2.31A2.44,2.44,0,0,0,122,69a1.87,1.87,0,0,0,.58-1.47,2,2,0,0,0-.58-1.49,2.31,2.31,0,0,0-1.64-.57H118Z"/><path class="cls-1" d="M126.45,73.24h4.46v.64h-5.23v-9h.77Z"/><path class="cls-1" d="M138,71.35h-4.1L133,73.88h-.8l3.42-9h.72l3.42,9h-.79Zm-3.86-.65h3.62l-1.81-4.91Z"/><path class="cls-1" d="M148.4,73.88h-.77l-5.18-7.72v7.72h-.77v-9h.77l5.19,7.72V64.86h.76Z"/><path class="cls-1" d="M157.71,71.07a3.21,3.21,0,0,1-1,2.18,3.37,3.37,0,0,1-2.3.75,3.11,3.11,0,0,1-1.77-.5,3.23,3.23,0,0,1-1.2-1.42A5.14,5.14,0,0,1,151,70V68.8a5.13,5.13,0,0,1,.43-2.13,3.22,3.22,0,0,1,1.21-1.43,3.19,3.19,0,0,1,5.08,2.44h-.77a2.29,2.29,0,0,0-2.49-2.3,2.36,2.36,0,0,0-2,.92,4,4,0,0,0-.73,2.53v1.11a4,4,0,0,0,.71,2.49,2.29,2.29,0,0,0,1.92.93,2.53,2.53,0,0,0,1.8-.57,2.72,2.72,0,0,0,.75-1.72Z"/><path class="cls-1" d="M162.23,69.4,161,70.65v3.23h-.76v-9H161v4.86l4.62-4.86h1l-3.78,4,4.08,5h-.93Z"/><path class="cls-1" d="M170.57,70.21h-3v-.62h3Z"/><path class="cls-1" d="M179.22,72.81a2.58,2.58,0,0,1-1.24.88,5.43,5.43,0,0,1-1.89.31,3.6,3.6,0,0,1-1.89-.5,3.37,3.37,0,0,1-1.27-1.44,4.7,4.7,0,0,1-.46-2.13V68.79a4.37,4.37,0,0,1,.94-3A3.25,3.25,0,0,1,176,64.73a3.38,3.38,0,0,1,2.24.71,2.91,2.91,0,0,1,1,2h-.76a2.33,2.33,0,0,0-.81-1.51,2.58,2.58,0,0,0-1.67-.51,2.44,2.44,0,0,0-2,.9,3.84,3.84,0,0,0-.74,2.53v1.07a4.51,4.51,0,0,0,.35,1.82,2.79,2.79,0,0,0,1,1.23,2.75,2.75,0,0,0,1.51.43,4.15,4.15,0,0,0,1.69-.31,1.94,1.94,0,0,0,.68-.48V70.24H176V69.6h3.18Z"/><path class="cls-1" d="M187,69.55h-4.22v3.69h4.85v.64H182v-9h5.58v.64h-4.82v3.41H187Z"/><path class="cls-1" d="M195,71.66a1.48,1.48,0,0,0-.53-1.19,5.69,5.69,0,0,0-1.93-.83,6.72,6.72,0,0,1-2-.85,2,2,0,0,1-.92-1.73,2,2,0,0,1,.85-1.68,3.53,3.53,0,0,1,2.18-.65,3.63,3.63,0,0,1,1.61.35,2.6,2.6,0,0,1,1.1,1,2.52,2.52,0,0,1,.39,1.38h-.77a1.91,1.91,0,0,0-.63-1.49,2.49,2.49,0,0,0-1.7-.56,2.67,2.67,0,0,0-1.65.46,1.44,1.44,0,0,0-.61,1.21,1.35,1.35,0,0,0,.55,1.12,5.12,5.12,0,0,0,1.77.77,8.15,8.15,0,0,1,1.84.69,2.6,2.6,0,0,1,.94.85,2.13,2.13,0,0,1,.31,1.17,2,2,0,0,1-.85,1.71,3.61,3.61,0,0,1-2.24.64,4.34,4.34,0,0,1-1.75-.34,2.6,2.6,0,0,1-1.21-1,2.43,2.43,0,0,1-.41-1.41H190a1.82,1.82,0,0,0,.71,1.51,3,3,0,0,0,1.9.55,2.82,2.82,0,0,0,1.69-.47A1.47,1.47,0,0,0,195,71.66Z"/><path class="cls-1" d="M203,69.55h-4.22v3.69h4.85v.64H198v-9h5.58v.64h-4.82v3.41H203Z"/><path class="cls-1" d="M206.64,73.24h4.46v.64h-5.23v-9h.77Z"/><path class="cls-1" d="M214,73.24h4.46v.64h-5.23v-9H214Z"/><path class="cls-1" d="M225.62,71.66a1.48,1.48,0,0,0-.53-1.19,5.71,5.71,0,0,0-1.92-.83,6.69,6.69,0,0,1-2-.85,2,2,0,0,1-.92-1.73,2,2,0,0,1,.86-1.68,3.48,3.48,0,0,1,2.17-.65,3.63,3.63,0,0,1,1.61.35,2.57,2.57,0,0,1,1.49,2.35h-.77a1.91,1.91,0,0,0-.63-1.49,2.49,2.49,0,0,0-1.7-.56,2.62,2.62,0,0,0-1.64.46,1.45,1.45,0,0,0-.62,1.21,1.38,1.38,0,0,0,.55,1.12,5.12,5.12,0,0,0,1.77.77,8.15,8.15,0,0,1,1.84.69,2.52,2.52,0,0,1,.94.85,2.14,2.14,0,0,1,.32,1.17,2.06,2.06,0,0,1-.85,1.71,3.64,3.64,0,0,1-2.25.64,4.34,4.34,0,0,1-1.75-.34,2.65,2.65,0,0,1-1.21-1,2.51,2.51,0,0,1-.41-1.41h.76a1.82,1.82,0,0,0,.71,1.51,3,3,0,0,0,1.9.55,2.8,2.8,0,0,0,1.69-.47A1.44,1.44,0,0,0,225.62,71.66Z"/><path class="cls-1" d="M235.05,71.07a3.21,3.21,0,0,1-1,2.18,3.37,3.37,0,0,1-2.3.75,3.11,3.11,0,0,1-1.77-.5,3.23,3.23,0,0,1-1.2-1.42,5,5,0,0,1-.42-2.1V68.8a5.12,5.12,0,0,1,.42-2.13A3.22,3.22,0,0,1,230,65.24a3.19,3.19,0,0,1,5.08,2.44h-.77a2.29,2.29,0,0,0-2.49-2.3,2.36,2.36,0,0,0-2,.92,4,4,0,0,0-.73,2.53v1.11a4,4,0,0,0,.71,2.49,2.31,2.31,0,0,0,1.92.93,2.53,2.53,0,0,0,1.8-.57,2.72,2.72,0,0,0,.75-1.72Z"/><path class="cls-1" d="M244.23,73.88h-.77V69.55H238.3v4.33h-.76v-9h.76v4h5.16v-4h.77Z"/><path class="cls-1" d="M252.14,71.35H248l-.93,2.53h-.8l3.41-9h.73l3.41,9h-.79Zm-3.86-.65h3.61l-1.81-4.91Z"/><path class="cls-1" d="M260.79,69.66h-4.2v4.22h-.77v-9h5.59v.64h-4.82V69h4.2Z"/><path class="cls-1" d="M269.84,65.5h-3.09v8.38H266V65.5H262.9v-.64h6.94Z"/></g><g id="MPI_DE_Editierbare_Unterzeile_einzeilig_Kopie" data-name="MPI_DE_Editierbare_Unterzeile_einzeilig Kopie"><path class="cls-1" d="M77.41,56.08H72.72v4.85H70.27V49.05H78v2H72.72V54.1h4.69Z"/><path class="cls-1" d="M84.65,56.58h-2v4.35H80.26V49.05h4.41a5,5,0,0,1,3.24.94,3.25,3.25,0,0,1,1.14,2.65,3.67,3.67,0,0,1-.52,2A3.56,3.56,0,0,1,86.93,56l2.57,4.85v.12H86.88Zm-2-2h2a2,2,0,0,0,1.43-.47,1.66,1.66,0,0,0,.51-1.29,1.78,1.78,0,0,0-.48-1.32A2,2,0,0,0,84.67,51h-2Z"/><path class="cls-1" d="M94.35,60.93H91.9V49.05h2.45Z"/><path class="cls-1" d="M106.15,51h-3.64v9.89h-2.44V51H96.48v-2h9.67Z"/><path class="cls-1" d="M111,59h6v2h-9V59.49L113.79,51h-5.87v-2h8.91v1.41Z"/><path class="cls-1" d="M123.76,56.79h-4.59v-1.9h4.59Z"/><path class="cls-1" d="M136.31,60.93h-2.45V55.84h-4.77v5.09h-2.45V49.05h2.45v4.82h4.77V49.05h2.45Z"/><path class="cls-1" d="M146,58.48h-4.29l-.81,2.45h-2.61l4.42-11.88H145l4.45,11.88H146.8Zm-3.63-2h3l-1.49-4.44Z"/><path class="cls-1" d="M151.35,60.93V49.05h4.16a5.49,5.49,0,0,1,3.28.83,2.84,2.84,0,0,1,1.11,2.43,2.7,2.7,0,0,1-.45,1.54,2.57,2.57,0,0,1-1.24,1,2.5,2.5,0,0,1,1.44.92,2.73,2.73,0,0,1,.52,1.7A3.13,3.13,0,0,1,159.08,60a4.91,4.91,0,0,1-3.12.9ZM153.8,54h1.81c1.23,0,1.85-.51,1.85-1.48a1.37,1.37,0,0,0-.47-1.16,2.54,2.54,0,0,0-1.48-.35H153.8Zm0,1.73V59h2.09a2,2,0,0,0,1.35-.41,1.42,1.42,0,0,0,.49-1.14A1.49,1.49,0,0,0,156,55.76Z"/><path class="cls-1" d="M170,55.78h-4.69V59h5.51v2h-8V49.05h7.94v2h-5.49v2.83H170Z"/><path class="cls-1" d="M177.8,56.58h-2v4.35H173.4V49.05h4.42a5,5,0,0,1,3.24.94,3.25,3.25,0,0,1,1.14,2.65,3.67,3.67,0,0,1-.52,2,3.61,3.61,0,0,1-1.6,1.29l2.57,4.85v.12H180Zm-2-2h2a2,2,0,0,0,1.43-.47,1.66,1.66,0,0,0,.51-1.29,1.78,1.78,0,0,0-.48-1.32,2,2,0,0,0-1.46-.48h-2Z"/><path class="cls-1" d="M189.32,56.79h-4.59v-1.9h4.59Z"/><path class="cls-1" d="M194.81,60.93h-2.45V49.05h2.45Z"/><path class="cls-1" d="M207.56,60.93h-2.44l-4.76-7.81v7.81h-2.45V49.05h2.45l4.77,7.83V49.05h2.43Z"/><path class="cls-1" d="M216.53,57.81a1.27,1.27,0,0,0-.49-1.06,6.33,6.33,0,0,0-1.77-.78,12.64,12.64,0,0,1-2-.82,3.27,3.27,0,0,1-2-2.94,2.9,2.9,0,0,1,.54-1.72,3.51,3.51,0,0,1,1.56-1.17,5.69,5.69,0,0,1,2.28-.43,5.43,5.43,0,0,1,2.26.46,3.62,3.62,0,0,1,1.55,1.3,3.39,3.39,0,0,1,.55,1.91h-2.45a1.61,1.61,0,0,0-.51-1.27,2.11,2.11,0,0,0-1.44-.45,2.29,2.29,0,0,0-1.4.38,1.2,1.2,0,0,0-.5,1,1.14,1.14,0,0,0,.59,1,6.4,6.4,0,0,0,1.71.73A7.44,7.44,0,0,1,218,55.48,3.12,3.12,0,0,1,219,57.8a2.84,2.84,0,0,1-1.17,2.41,5,5,0,0,1-3.14.88,6.12,6.12,0,0,1-2.49-.5,4,4,0,0,1-1.72-1.38,3.53,3.53,0,0,1-.59-2h2.46c0,1.31.78,2,2.34,2A2.28,2.28,0,0,0,216,58.8,1.15,1.15,0,0,0,216.53,57.81Z"/><path class="cls-1" d="M230.16,51h-3.64v9.89h-2.45V51h-3.58v-2h9.67Z"/><path class="cls-1" d="M235,60.93h-2.45V49.05H235Z"/><path class="cls-1" d="M246.79,51h-3.64v9.89h-2.44V51h-3.59v-2h9.67Z"/><path class="cls-1" d="M258,49.05v7.82A4,4,0,0,1,256.78,60a4.71,4.71,0,0,1-3.33,1.13,4.78,4.78,0,0,1-3.3-1.1,4,4,0,0,1-1.25-3V49.05h2.45v7.84a2.26,2.26,0,0,0,.56,1.7,2.13,2.13,0,0,0,1.54.54c1.38,0,2.08-.73,2.1-2.17V49.05Z"/><path class="cls-1" d="M269.78,51h-3.63v9.89H263.7V51h-3.59v-2h9.67Z"/><rect class="cls-2" x="-0.25" y="-0.27" width="368.5" height="95.25"/></g></g></svg>