<?xml version="1.0" encoding="UTF-8" standalone="no"?>
<!-- Created with Inkscape (http://www.inkscape.org/) -->

<svg
   width="82.646637mm"
   height="82.646637mm"
   viewBox="0 0 82.646637 82.646637"
   version="1.1"
   id="svg1"
   sodipodi:docname="chevron_down.svg"
   xmlns:inkscape="http://www.inkscape.org/namespaces/inkscape"
   xmlns:sodipodi="http://sodipodi.sourceforge.net/DTD/sodipodi-0.dtd"
   xmlns="http://www.w3.org/2000/svg"
   xmlns:svg="http://www.w3.org/2000/svg">
  <sodipodi:namedview
     id="namedview1"
     pagecolor="#ffffff"
     bordercolor="#cccccc"
     borderopacity="1"
     inkscape:showpageshadow="0"
     inkscape:pageopacity="1"
     inkscape:pagecheckerboard="0"
     inkscape:deskcolor="#d1d1d1"
     inkscape:document-units="mm" />
  <defs
     id="defs1" />
  <g
     inkscape:label="Ebene 1"
     inkscape:groupmode="layer"
     id="layer1"
     transform="translate(-75.853768,-81.137166)">
    <path
       id="path1"
       style="fill:#006c66;stroke-width:4.99999"
       d="M 117.17683,163.7838 A 41.323376,41.323376 0 0 0 158.5004,122.46023 41.323376,41.323376 0 0 0 117.17683,81.137166 41.323376,41.323376 0 0 0 75.853768,122.46023 41.323376,41.323376 0 0 0 117.17683,163.7838 Z m 22.18727,-28.55381 c -1.11091,0 -2.22196,-0.42569 -3.0732,-1.27692 l -19.23758,-19.23759 -19.238102,19.23759 c -1.70248,1.70247 -4.4434,1.70247 -6.14588,0 l -0.19689,-0.19637 c -1.70247,-1.70248 -1.70247,-4.44392 0,-6.1464 l 22.249292,-22.24877 c 0.0207,-0.0216 0.0346,-0.047 0.0558,-0.0682 l 0.19637,-0.19637 c 0.0396,-0.0396 0.0864,-0.0661 0.12713,-0.10387 0.14272,-0.1331 0.29162,-0.255 0.44648,-0.36536 0.0735,-0.0521 0.1469,-0.10185 0.22272,-0.14882 0.17996,-0.11219 0.36562,-0.21069 0.55656,-0.29404 0.0528,-0.0229 0.10467,-0.046 0.15813,-0.0667 0.22339,-0.0871 0.452,-0.15496 0.6842,-0.2036 0.0252,-0.005 0.0497,-0.0123 0.0749,-0.017 0.26119,-0.0499 0.52623,-0.075 0.79116,-0.0765 0.005,-2e-5 0.0107,-5.3e-4 0.016,-5.2e-4 1.11368,-0.002 2.22811,0.42305 3.08147,1.27641 l 0.19637,0.19637 c 0.0419,0.0419 0.078,0.0871 0.11782,0.13022 l 22.18682,22.18675 c 1.70247,1.70248 1.70247,4.44392 0,6.1464 l -0.19637,0.19637 c -0.85124,0.85123 -1.96229,1.27692 -3.0732,1.27692 z" />
  </g>
</svg>
