<?xml version="1.0" encoding="UTF-8" standalone="no"?>
<!-- Created with Inkscape (http://www.inkscape.org/) -->

<svg
   width="75.640862mm"
   height="75.640343mm"
   viewBox="0 0 75.640862 75.640343"
   version="1.1"
   id="svg1"
   inkscape:export-filename="Rastergrafik.svg"
   inkscape:export-xdpi="50"
   inkscape:export-ydpi="50"
   xmlns:inkscape="http://www.inkscape.org/namespaces/inkscape"
   xmlns:sodipodi="http://sodipodi.sourceforge.net/DTD/sodipodi-0.dtd"
   xmlns="http://www.w3.org/2000/svg"
   xmlns:svg="http://www.w3.org/2000/svg">
  <sodipodi:namedview
     id="namedview1"
     pagecolor="#ffffff"
     bordercolor="#cccccc"
     borderopacity="1"
     inkscape:showpageshadow="0"
     inkscape:pageopacity="1"
     inkscape:pagecheckerboard="0"
     inkscape:deskcolor="#d1d1d1"
     inkscape:document-units="mm"
     inkscape:zoom="0.99150695"
     inkscape:cx="104.89084"
     inkscape:cy="531.00989"
     inkscape:window-width="1920"
     inkscape:window-height="1001"
     inkscape:window-x="-9"
     inkscape:window-y="-9"
     inkscape:window-maximized="1"
     inkscape:current-layer="layer1" />
  <defs
     id="defs1" />
  <g
     inkscape:label="Ebene 1"
     inkscape:groupmode="layer"
     id="layer1"
     transform="translate(-70.570368,-60.971991)">
    <path
       id="path1"
       style="fill:#006c66;fill-opacity:1;stroke:none;stroke-width:5.35923;stroke-dasharray:none;stroke-opacity:1"
       d="M 108.3908,60.971989 A 37.820332,37.820332 0 0 0 70.570369,98.791903 37.820332,37.820332 0 0 0 108.3908,136.61233 37.820332,37.820332 0 0 0 146.21123,98.791903 37.820332,37.820332 0 0 0 108.3908,60.971989 Z m 0,12.08195 a 6.0981264,6.0981264 0 0 1 6.09834,6.098336 6.0981264,6.0981264 0 0 1 -6.09834,6.097819 6.0981264,6.0981264 0 0 1 -6.09834,-6.097819 6.0981264,6.0981264 0 0 1 6.09834,-6.098336 z m -4.82089,17.153992 h 9.6423 v 34.322449 h -9.6423 z" />
  </g>
</svg>
