<?xml version="1.0" encoding="UTF-8" standalone="no"?>
<svg
   xmlns:dc="http://purl.org/dc/elements/1.1/"
   xmlns:cc="http://creativecommons.org/ns#"
   xmlns:rdf="http://www.w3.org/1999/02/22-rdf-syntax-ns#"
   xmlns:svg="http://www.w3.org/2000/svg"
   xmlns="http://www.w3.org/2000/svg"
   xmlns:sodipodi="http://sodipodi.sourceforge.net/DTD/sodipodi-0.dtd"
   xmlns:inkscape="http://www.inkscape.org/namespaces/inkscape"
   width="1910"
   height="388"
   viewBox="0 0 1432.4999 291"
   version="1.2"
   id="svg4141"
   inkscape:version="1.0.2 (e86c870879, 2021-01-15)"
   sodipodi:docname="FHI_MPG-Minerva.svg">
  <metadata
     id="metadata4232">
    <rdf:RDF>
      <cc:Work
         rdf:about="">
        <dc:format>image/svg+xml</dc:format>
        <dc:type
           rdf:resource="http://purl.org/dc/dcmitype/StillImage" />
        <dc:title />
      </cc:Work>
    </rdf:RDF>
  </metadata>
  <defs
     id="defs4230">
    <linearGradient
       gradientTransform="matrix(51.9973,-31.1563,31.1563,51.9973,69.2412,75.457)"
       gradientUnits="userSpaceOnUse"
       y2="0"
       x2="1"
       y1="0"
       x1="0"
       id="_Linear1">
      <stop
         id="stop4649"
         style="stop-color:rgb(2,93,88);stop-opacity:1"
         offset="0" />
      <stop
         id="stop4651"
         style="stop-color:rgb(86,186,164);stop-opacity:1"
         offset="1" />
    </linearGradient>
    <linearGradient
       gradientTransform="matrix(16.0029,0,0,16.0029,17.8022,43.1484)"
       gradientUnits="userSpaceOnUse"
       y2="0"
       x2="1"
       y1="0"
       x1="0"
       id="_Linear2">
      <stop
         id="stop4654"
         style="stop-color:rgb(3,99,94);stop-opacity:1"
         offset="0" />
      <stop
         id="stop4656"
         style="stop-color:rgb(5,110,104);stop-opacity:1"
         offset="1" />
    </linearGradient>
    <linearGradient
       gradientTransform="matrix(51.7443,31.3778,-31.3778,51.7443,18.0435,44.1679)"
       gradientUnits="userSpaceOnUse"
       y2="0"
       x2="1"
       y1="0"
       x1="0"
       id="_Linear3">
      <stop
         id="stop4659"
         style="stop-color:rgb(3,99,94);stop-opacity:1"
         offset="0" />
      <stop
         id="stop4661"
         style="stop-color:rgb(2,93,88);stop-opacity:1"
         offset="1" />
    </linearGradient>
  </defs>
  <sodipodi:namedview
     pagecolor="#ffffff"
     bordercolor="#666666"
     borderopacity="1"
     objecttolerance="10"
     gridtolerance="10"
     guidetolerance="10"
     inkscape:pageopacity="0"
     inkscape:pageshadow="2"
     inkscape:window-width="1647"
     inkscape:window-height="480"
     id="namedview4228"
     showgrid="false"
     units="px"
     inkscape:zoom="0.75811518"
     inkscape:cx="698.44268"
     inkscape:cy="194"
     inkscape:current-layer="svg4141"
     inkscape:document-rotation="0"
     inkscape:window-x="280"
     inkscape:window-y="536"
     inkscape:window-maximized="0" />
  <g
     inkscape:groupmode="layer"
     id="layer2"
     inkscape:label="Draw"
     transform="translate(0,177.61398)" />
  <g
     style="stroke-width:0.411777"
     transform="matrix(2.4285011,0,0,2.4285011,10.738723,12.766246)"
     id="g4981"
     inkscape:export-xdpi="200.12784"
     inkscape:export-ydpi="200.12784">
    <path
       inkscape:connector-curvature="0"
       id="path4186"
       d="m 55.143806,95.986734 c -22.79297,0 -41.33203,-18.539063 -41.33203,-41.332031 0,-22.789063 18.53906,-41.328125 41.33203,-41.328125 22.78515,0 41.32812,18.539062 41.32812,41.328125 0,22.792968 -18.54297,41.332031 -41.32812,41.332031 m 0,-83.847656 c -23.44922,0 -42.51953,19.074219 -42.51953,42.515625 0,23.445312 19.07031,42.519531 42.51953,42.519531 23.4414,0 42.51953,-19.074219 42.51953,-42.519531 0,-23.441406 -19.07813,-42.515625 -42.51953,-42.515625"
       style="fill:#006b63;fill-opacity:1;fill-rule:nonzero;stroke:none;stroke-width:0.411777" />
    <path
       inkscape:connector-curvature="0"
       id="path4188"
       d="m 83.077396,61.572671 c -1.3164,1.164063 -3.34375,1.261719 -4.16406,2.007813 -0.42969,0.386719 -0.62109,1 -0.15625,2.089844 0.26172,0.628906 0.44531,0.707031 -0.45703,0.949219 -1.47266,0.394531 -1.67188,2.324218 -3.54297,1.96875 -0.75,-0.140626 -0.21094,0.339843 0.0586,0.363281 1.07032,0.101562 1.49219,-0.199219 1.8711,-0.550781 0.375,-0.351563 0.875,-0.984376 1.44922,-1.203126 0.59375,-0.226562 1.19531,-0.210937 1.20312,0.234376 0.008,0.339843 -0.73828,0.878906 -1.05469,1.023437 0.38282,0.199219 1.55469,0.796875 0.55469,1.472656 -0.78125,0.53125 -1.85156,-0.203125 -2.00781,-0.292969 -0.23047,-0.136718 -0.67188,-0.06641 -0.52344,0.113282 0.57813,0.707031 2.12891,0.519531 1.84766,0.894531 -1.42969,1.925781 -0.26563,3.050781 -0.69922,4.984375 -0.44141,1.964844 -3.12891,3.039062 -5.19141,3.410156 -7.03515,1.265625 -13.87109,-4.710937 -17.8789,-9.21875 0.36328,-0.855468 0.3164,-1.972656 -0.0508,-1.578125 -0.34375,0.375 -0.28515,1 -1.12109,1.210938 -1.61328,0.40625 -2.30469,-2.390625 -2.80469,-2.878907 -1.96093,-1.921874 -2.73437,-4.628906 -1.5664,-7 1.17968,-2.398437 3.63281,-1.914062 4.61328,-0.46875 1.21875,1.804688 0.65625,2.828126 1.34765,3.363282 0.97266,0.757812 1.94922,0.08203 2.21094,0.01172 0.74219,-0.203124 0.6836,1.753907 3.21094,1.660157 2.71484,-0.09375 2.41016,-4.320313 2.79297,-4.695313 3.48828,-3.398437 1.70703,-6.433594 1.07422,-7.140625 -0.17188,-0.1875 0.38672,-1.4375 0.58984,-1.480469 2.05078,-0.453124 3.20703,-1.761718 3.83203,-3.144531 0,0 3.39844,-0.05859 4.60938,-2.507812 0.32422,-0.65625 1.32422,0.628906 3.59765,-1.152344 0.25391,-0.203125 0.4961,-0.105469 0.58985,0.128906 1.46093,3.578125 2.07422,4.566407 1.96093,6.390625 -0.082,1.328125 3.54297,8.691406 3.80469,9.332032 0.29297,0.707031 0.33985,1.402343 0,1.703124 m -16.14062,18.65625 c -1.03125,3.578126 -1.55078,5.007813 0,8.890626 0.20703,0.515624 0.36328,0.90625 -0.0899,0.828124 -3.1289,-0.535156 -3.80468,-1.046874 -13.6289,-0.214843 -0.70313,0.05859 0.23047,-1.371094 0.11718,-2.347657 0.89454,-0.113281 2.32813,-0.523437 2.63282,-1.984374 0.37109,-1.773438 -0.86719,-3.074219 -0.73438,-3.328126 1.39063,-2.714843 -0.0898,-5.726562 -1.26562,-10.769531 -0.11328,-0.46875 0.16015,-0.675781 0.36718,-0.453125 6.3125,6.828125 10.33204,8.1875 12.50782,8.832032 0.21484,0.06641 0.17187,0.3125 0.0937,0.546874 m -19.12891,9.464844 c -0.64844,-0.164062 -2.43359,-3.003906 -0.98047,-6.390625 0.15625,-0.359375 2.37891,-0.136719 2.75391,-0.02344 0.37109,0.113281 -0.3086,2.777344 2.75,3.957031 0.3125,0.121094 -0.0117,3.574219 -4.52344,2.457031 m -4.59375,-1.703125 c -0.33594,-1.492187 -0.47266,-4.074219 0.14844,-4.648437 0.12109,-0.113282 1.97656,-0.378906 1.9414,0.04297 -0.14062,1.78125 -0.85937,3.765626 0.49219,5.746094 0.50781,0.738282 -2.1289,0.855469 -2.58203,-1.140625 m 10.92969,-1.757812 c -2.41016,0.832031 -3.35938,-1.980469 -2.96094,-2.589844 0.23828,-0.363281 1.75781,0.414063 2.94141,-0.347656 0.91015,-0.585938 1.41406,2.453125 0.0195,2.9375 m -14.21485,-4 c -0.14062,-0.804688 0.63282,-1.574219 0.61719,-3.328125 -0.0195,-2.148438 -2.67187,-5.101563 -4.46875,-6.996094 0.84375,0 1.94531,-0.199219 3.1875,-0.773438 2.67188,-1.238281 3.19531,-4.082031 3.27344,-4.195312 0.0352,-0.05469 -0.59766,-0.179688 -1.50781,-0.191406 0.0977,-0.04687 0.19531,-0.09766 0.29687,-0.152344 2.61328,-1.398438 3.30078,-4.433594 3.17578,-4.5 -0.0508,-0.02734 -0.69922,-0.128906 -1.61328,-0.105469 0.25391,-0.08594 0.51953,-0.179687 0.78906,-0.289062 2.76563,-1.101563 3.54297,-4.179688 3.44141,-4.277344 -0.043,-0.04297 -0.59766,-0.15625 -1.40234,-0.175781 0.24609,-0.09766 0.49609,-0.203125 0.7539,-0.332032 2.52344,-1.253906 3.40235,-4.078124 3.26953,-4.171874 -0.0586,-0.04297 -0.57031,-0.140626 -1.3164,-0.152344 0.5625,-0.125 1.17578,-0.3125 1.82422,-0.59375 2.70703,-1.1875 3.58203,-3.777344 3.46484,-3.886719 -0.0508,-0.04687 -0.51172,-0.171875 -1.19922,-0.230469 0.53906,-0.121094 1.12891,-0.285156 1.75781,-0.5 2.67969,-0.914062 3.76172,-3.472656 3.60157,-3.488281 -0.35938,-0.03516 -0.85938,-0.210937 -1.50391,-0.324219 0.73047,-0.04687 1.57813,-0.179687 2.64453,-0.539062 2.89063,-0.980469 3.91797,-2.71875 3.96875,-3.476563 0.004,-0.04687 -0.34375,-0.199219 -0.91015,-0.324219 0.66406,-0.117187 1.32812,-0.28125 1.8789,-0.507812 2.69922,-1.089844 3.82422,-3.746094 3.91406,-3.964844 0.48829,-0.160156 1.01954,-0.359375 1.57032,-0.609375 0.28515,-0.128906 0.54297,-0.265625 0.78125,-0.402343 0.1289,0.09766 0.33984,0.25 0.65234,0.449218 0.41016,0.265625 0.55469,0.324219 0.35156,0.496094 -9.1914,7.832031 -16.07812,17.722656 -19.08203,22.527344 -0.0859,0.136718 -0.24609,0.113281 -0.5,0.09766 -3.21875,-0.214844 -5.04297,3.617188 -3.60547,7.210938 -0.18359,0.730468 -1.71093,2.140624 -1.82422,2.242187 -0.11328,0.101563 -0.42187,0.550781 0.0977,0.503906 0.75391,-0.06641 1.71484,-1.273437 2.17188,-1.8125 0.19531,0.238281 0.90234,0.828125 0.55859,1.160157 -2.73438,2.683593 -5.44141,4.128906 -5.65625,4.234374 -1.02344,0.5 1.71094,0.847657 6.36719,-3.367187 0.27734,-0.246094 0.60156,0.972656 1.01562,1.496094 -0.79687,2.640625 1.17188,7.734375 0.86719,9.335937 -0.0547,0.28125 -0.22266,1.070313 -1.15234,1.089844 -4.61719,0.09375 -5.07032,-0.117188 -7.41797,0.574219 -1.09375,0.324219 -0.8086,1.046875 -0.0117,0.832031 0.89844,-0.246094 1.84375,-0.613281 6.84375,-0.300781 1.21875,0.07813 2.61719,-0.246094 2.625,-2.308594 0.008,-1.871094 -1.47656,-7.445313 -0.97656,-8.207031 0.66406,0.496094 1.14453,0.515625 1.39843,0.5625 -0.0664,1.816406 2.86328,7.695312 1.5586,10.9375 -0.48438,1.203125 -2.60938,1.113281 -6.25,0.753906 -6.1875,-0.617188 -8.19532,0.722656 -8.32032,-0.01953 m -0.11718,4.476562 c -0.26563,-1.066406 -0.16016,-2.535156 0.20312,-2.933593 0.70313,-0.339844 1.98438,-0.472657 2.00781,-0.0625 0.0352,0.652343 -0.4414,2.203124 0.11719,4.136718 -0.125,0.304688 -1.875,0.171875 -2.32812,-1.140625 m -2.11719,-18.808593 c 1.56641,-0.742188 3.89844,-0.5625 3.76953,-0.460938 -0.12891,0.101562 -0.74219,2.367188 -2.50781,3.25 -1.75781,0.882812 -2.92188,0.648438 -3.55469,0.527344 0.94922,-1.039063 0.75,-2.582032 2.29297,-3.316406 m -3.24609,2.917968 c -0.52735,-0.5 -1.66797,-1.761718 -1.77735,-3.382812 -0.004,-0.08203 -0.008,-0.15625 -0.008,-0.238282 -0.004,-1.742187 0.76562,-3.457031 0.95703,-3.652343 0.19531,-0.191407 2.16406,1.339843 2.19141,3.535156 0.0273,1.902344 -0.84375,2.996094 -1.36328,3.738281 m -1.4336,2.257813 c -0.008,0.0078 -0.0117,0.01172 -0.0195,0.01563 -4.35547,-5.128906 -6.65234,-11.484375 -6.65234,-18.4375 0,-15.878906 12.91797,-28.796875 28.80078,-28.796875 4.1875,0 8.21484,0.875 11.98437,2.601562 -0.49609,0.230469 -1.0664,0.570313 -1.65625,1.050781 -3.3164,-1.402343 -6.65234,-2.0625 -10.32812,-2.0625 -15.00391,0 -27.21094,12.207032 -27.21094,27.207032 0,6.507812 2.02734,12.226562 6.00391,17.023437 -0.23047,0.347657 -0.55078,0.839844 -0.92188,1.398438 m -0.0586,10.0625 c -8.75781,-6.972657 -13.9961,-17.503907 -13.9961,-28.484375 0,-19.949219 16.23047,-36.179688 36.1836,-36.179688 5.82031,0 11.66015,1.457032 16.78515,4.128906 0.10157,0.05078 0.11719,0.191407 0.0312,0.269532 -1.50781,1.3125 -3.59765,3.890625 -4.125,4.613281 -3.98437,-1.867187 -8.24609,-2.820313 -12.6914,-2.820313 -16.53516,0 -29.99219,13.453126 -29.99219,29.988282 0,7.378906 2.5,14.109375 7.21875,19.511718 -0.26953,0.625 -0.75391,2 -0.75391,3.820313 0,1.503906 0.27735,3.234375 1.33985,5.152344 m 26.85937,-44.222657 c -0.21484,-0.148437 1.72657,-2.320312 3.30469,-2.917968 1.54297,-0.585938 3.21094,-0.480469 3.34766,-0.402344 0.13281,0.07422 -1.01172,1.953125 -2.875,2.710938 -1.75,0.707031 -3.56641,0.757812 -3.77735,0.609374 m -4.91015,3.988282 c 0.0312,-0.117188 1.63672,-2.378906 3.29297,-2.953125 1.57421,-0.542969 3.5,-0.179688 3.70703,-0.09375 0.20703,0.08984 -1.11328,2.0625 -3.13672,2.667969 -1.82031,0.546874 -3.89063,0.496093 -3.86328,0.378906 m -4.85938,4.609375 c -0.10547,-0.05078 1.35547,-2.542969 2.9961,-3.175781 1.57031,-0.601563 3.125,-0.05469 3.60156,-0.02344 0.38281,0.02344 -0.53906,1.832031 -2.69141,2.625 -1.79297,0.660156 -3.63281,0.710938 -3.90625,0.574219 m -4.32812,4.789062 c -0.13282,-0.09766 1.78125,-2.601562 3.38281,-3.339843 1.40234,-0.648438 3.23828,-0.511719 3.39062,-0.410157 0.15625,0.101563 -0.74609,2.210938 -2.59765,3.023438 -1.76953,0.769531 -4.04688,0.824219 -4.17578,0.726562 m -3.61328,4.839844 c 0.0742,-0.1875 1.42578,-2.609375 3.00781,-3.351563 1.57422,-0.738281 3.47265,-0.582031 3.60156,-0.539062 0.12891,0.04297 -0.72266,2.183594 -2.51953,3.078125 -1.77734,0.882813 -4.16797,1 -4.08984,0.8125 m -2.78125,4.777344 c 0.11328,-0.617188 1.21484,-2.652344 2.86718,-3.386719 1.66016,-0.738281 3.57813,-0.6875 3.79297,-0.59375 0.21875,0.08984 -0.6875,2.261719 -2.35547,3.058594 -1.86718,0.890625 -2.61328,0.371094 -4.30468,0.921875 m 0.14062,1.371093 c 1.85547,-0.808593 3.87891,-0.683593 3.96484,-0.605468 0.0859,0.07813 -0.59375,2.359375 -2.39453,3.328125 -1.80078,0.964843 -3.83203,1.054687 -4.01562,0.824219 -0.10547,-0.128907 0.58984,-2.742188 2.44531,-3.546876 m -2.94922,-5.085937 c 0.71485,0.359375 1.57422,1.398437 1.65235,3.316406 0.082,1.929688 -1.30079,3.5625 -1.83985,3.816407 -0.375,-1.472657 -1.08594,-1.78125 -1.07422,-3.242188 0.0156,-1.597656 0.82422,-3.351562 1.26172,-3.890625 m 4.89453,-2.535156 c -0.0352,2.472656 -1.58984,3.921875 -2.05078,4.378906 -0.28906,-0.488281 -0.85547,-1.75 -0.89453,-3.070313 -0.0742,-2.550781 0.98047,-3.453124 1.43359,-3.945312 0.21875,0.730469 1.53516,1.308594 1.51172,2.636719 m 3.46094,-5.183594 c 0,0.476563 -0.0586,0.746094 -0.19531,1.214844 -0.51172,1.757812 -1.54688,2.496093 -2.10938,3.292969 -0.22656,-0.523438 -0.64062,-1.257813 -0.64453,-2.375 -0.008,-2.125 1.28906,-3.933594 2.09766,-4.507813 0.30859,-0.01172 0.85156,1.28125 0.85156,2.375 m 3.39453,-2.675781 c -0.71484,1.5625 -1.17969,1.613281 -2.01172,2.585937 -0.14062,0.167969 -0.76562,-1.484375 -0.16015,-3.5625 0.48047,-1.660156 1.59765,-2.277343 2.13281,-2.839843 0.21484,-0.222657 0.80078,2.15625 0.0391,3.816406 m 4.17578,-4.328125 c -0.70312,1.230469 -1.34375,0.945312 -2.51562,2.691406 -0.12891,0.191406 -0.44141,-1.441406 0.26172,-3.652344 0.54297,-1.703125 2.21875,-2.761719 2.39453,-2.804687 0.26953,-0.0625 0.69922,2.304687 -0.14063,3.765625 m 4.48438,-4.085938 c -1.36719,2.042969 -1.44531,1.34375 -2.94531,3.34375 -0.082,0.109375 -0.11329,-2.609375 0.42187,-3.804687 0.84375,-1.886719 2.30469,-2.996094 2.52344,-3.035156 0.21875,-0.03516 0.75781,2.371093 0,3.496093 m 4.10156,-3.039062 c -1.11719,0.90625 -1.625,1.507812 -2.27734,2.570312 -0.22266,0.363281 -0.76563,-2.011719 0.6875,-4.292969 0.89062,-1.398437 2.66406,-2.652343 2.625,-2.484374 -0.12891,0.558593 0.86328,2.667968 -1.03516,4.207031 m 3.74219,-5.277344 c 1.15234,-1.367187 3.10937,-2.464844 3.32812,-2.332031 0.22657,0.136718 -0.32812,2.25 -1.58984,3.492187 -1.27734,1.257813 -3.25,2.476563 -3.48047,2.464844 -0.22656,-0.01563 0.70313,-2.394531 1.74219,-3.625 m -30,32.261719 c -0.58203,-0.671875 -1.125,-1.042969 -1.17969,-1 -0.16406,0.113281 -1.10937,1.730468 -1.4375,3.617187 -1.84375,-3.523437 -2.86328,-7.085937 -3.03125,-11.304687 -0.5625,-14.335938 11.44141,-25.878906 26.09375,-25.828125 3.34375,0.01172 6.08984,0.628906 9.09375,1.847656 -0.67187,0.839844 -1.16406,1.847656 -1.49219,2.6875 -0.0156,-0.773437 -0.21875,-1.378906 -0.16406,-1.863281 0.0352,-0.300782 -2.07422,0.359375 -3.94922,3.339844 -0.43359,0.695312 -0.70312,1.457031 -0.87109,2.164062 -0.0391,-1.121094 -0.30469,-1.992188 -0.37891,-1.972656 -0.1914,0.05469 -2.33203,0.9375 -3.44922,3.550781 -0.19531,0.457031 -0.33593,0.929687 -0.4414,1.386719 -0.0937,-0.796875 -0.29688,-1.320313 -0.36328,-1.316406 -0.14063,0.0039 -2.38282,0.925781 -3.48829,3.609374 -0.25781,0.625 -0.39453,1.265626 -0.45703,1.859376 -0.19922,-0.9375 -0.55859,-1.507813 -0.67578,-1.363282 -0.77344,0.980469 -2.28515,1.417969 -3.08984,3.890625 -0.1875,0.582031 -0.26172,1.164063 -0.26953,1.707031 -0.33569,-0.839852 -0.80444,-1.320321 -0.90991,-1.30079 -0.21875,0.04687 -2.50391,2.21875 -2.84375,4.40625 -0.13672,0.863281 -0.0742,1.664063 0.0586,2.335938 -0.4375,-0.703125 -1.01562,-1.21875 -1.25,-1.9375 -0.35937,0.191406 -2.29687,2.007812 -2.35546,4.339843 -0.0273,0.902344 0.10937,1.753907 0.29687,2.472657 -0.64453,-1.167969 -1.55859,-1.714844 -1.65625,-1.65625 -0.16797,0.105469 -1.61328,1.664062 -1.94922,4.472656 -0.0781,0.65625 0.004,1.285156 0.16016,1.855469 m 33.72656,-31.6875 c 1.46484,-0.65625 2.88281,-0.667969 3.03516,-0.652344 0.33203,0.04297 -0.74219,1.945312 -2.65235,2.765625 -1.96875,0.847656 -3.4414,1 -3.60547,0.917969 -0.2539,-0.125 1.66797,-2.328125 3.22266,-3.03125 m -13.02344,30.019531 c -0.40234,-0.08594 -0.55468,-0.871094 -0.47265,-1.179687 0.18359,-0.6875 1.23828,-2.109376 1.62109,-2.609376 0.0937,-0.125 0.28906,-0.0078 0.30859,0.140626 0.23047,1.652343 0,3.96875 -1.45703,3.648437 m 7.79688,-10.375 c -0.875,0.59375 -2.13281,-0.207031 -1.87891,-0.566406 1.6211,-2.316407 3.78125,-3.925781 4.64453,-4.464844 1.39063,-0.863281 1.53907,-0.925781 1.60938,-0.4375 0.043,0.296875 0.0586,1.808594 -1.0586,3.039063 -0.92968,1.019531 -1.85937,0.933593 -2.33984,1.039062 -0.32422,0.07422 -0.30469,0.933594 -0.97656,1.390625 m -2.45703,11.785156 c -1.62891,1 -2.51172,-0.910156 -2.74219,-1.242187 -0.0977,-0.144532 -0.35938,-0.5625 -0.21875,-1.28125 0.11328,-0.5625 0.20703,-1.332032 -0.16406,-3.765625 -0.16407,-1.070313 2.05078,-3.722657 2.54687,-4.1875 0.51953,-0.480469 1.26953,0.238281 1.32031,1.023437 0.0899,1.492188 -0.74609,2.273438 -1.59765,2.910156 -1.04688,0.78125 -1.2461,1.796876 -1.04688,2.066407 0.0781,0.105469 0.54688,0.109375 0.75391,-0.332031 0.62891,-1.34375 2.43359,-2.019532 2.72266,-2.722657 0.44921,-1.097656 0.12109,-1.804687 0.0742,-2.265625 -0.0351,-0.402344 0.35938,-0.507812 0.65625,-0.460937 0.38282,0.05859 0.55469,0.578125 0.7461,1.085937 1.16797,3.039063 -1.76563,4.875 -2.23828,5.59375 -0.21875,0.332032 0.45312,2.800782 -0.8125,3.578125 m 8.21875,-18.46875 c -0.082,-0.484375 3.46093,-1.675781 3.58203,-1.324219 0.23047,0.648438 -0.73047,2.398438 -1.91797,2.832032 -1.34375,0.496094 -1.90625,0.347656 -1.85547,0.15625 0.0937,-0.351563 0.26953,-1.214844 0.19141,-1.664063 m 8.35937,-2.164062 c -0.41797,1.191406 -3.71094,2.25 -3.55469,1.414062 0.0703,-0.378906 0.008,-0.875 0.25782,-0.917969 0.36328,-0.0625 1.40625,-0.425781 3.02343,-0.839843 0.16407,-0.04297 0.375,0.05078 0.27344,0.34375 m -3.32812,-8.78125 c 0.48437,-0.304688 1.0039,-0.433594 1.30859,-0.132813 1.0625,1.050782 -1.15234,1.640625 -0.69141,2.449219 0.75782,1.320313 1.96094,2.585937 3.02344,3.402344 0.5,0.386719 0.57031,1.25 -1.33594,1.648437 -1.92187,0.394532 -9.57031,2.410156 -13.60546,6.6875 -5.05469,5.355469 -8.26563,12.285156 -8.70313,11.335938 -0.44141,-0.960938 -1.45312,-1.117188 -1.29297,-1.390625 7.25,-12.5 18.6211,-22.316407 21.29688,-24 m -35.22657,51.003906 c -0.28906,0.05859 -1.20703,0.09375 -1,-1.113281 0.125,-0.742188 0.9336,-1.054688 1.34375,-0.632813 -0.0859,0.578125 -0.28515,1.144531 -0.34375,1.746094 m 41.25782,-33.269531 c -0.58985,-1.230469 -0.1875,-2.035156 -0.36328,-2.9375 -0.12891,-0.664063 -1.11719,-2.847656 -1.7461,-4.363282 -0.29687,-0.714843 1.52344,-0.539062 0.17969,-3.113281 -0.0391,-0.07422 1.87109,-0.78125 -0.0391,-2.226562 -1.06641,-0.808594 -1.81641,-1.804688 -2.40625,-2.703125 -0.082,-0.125 -0.16016,-0.371094 0.0117,-0.523438 1.07812,-0.960937 1.10156,-2.339844 -0.0703,-3.046875 -0.84375,-0.507812 -1.8164,0.0078 -2.70703,0.585938 -0.29687,0.191406 -0.4414,0.308593 -0.75,0.183593 -0.15625,-0.0625 -0.45703,-0.277343 -0.72656,-0.460937 1.09766,-1.066406 1.3125,-2.117187 1.22656,-2.289063 -0.0586,-0.121093 -1.86719,-0.527343 -4.10547,0.402344 -0.0508,-0.02734 -0.10156,-0.05859 -0.16015,-0.08984 0.92187,-1.59375 0.40625,-2.71875 0.33593,-2.796874 0,0 -0.004,-0.0039 -0.004,-0.0039 1.67578,-2.34375 3.34375,-3.902343 4.99219,-5.398437 0,0 0.0351,-0.03906 0.0351,-0.04297 0.10938,-0.109375 0.14844,-0.226563 -0.0586,-0.355469 -0.17188,-0.109375 -0.21875,-0.136718 -0.42969,-0.25 -5.52344,-3.074218 -11.8125,-4.6875 -18.16406,-4.6875 -20.60938,0 -37.3711,16.761719 -37.3711,37.367188 0,11.9375 6.0586,23.453125 15.95704,30.605468 0.66015,0.476563 1.11718,0.660157 1.11718,0.660157 0.16407,0.05469 0.33594,0.05469 0.4375,-0.08203 l 0.14844,-0.191407 c 0.0937,-0.121093 0.12891,-0.238281 0.12891,-0.34375 0,-0.273437 -0.39453,-0.515625 -0.85938,-1.203125 -1.33594,-1.984375 -1.92969,-4.242187 -1.92969,-6.132812 0,-2.066406 0.62891,-3.949219 1.83985,-5.519532 1.49219,1.554688 4.74609,4.414063 4.67578,7.011719 -0.0781,2.921875 -2.8125,2.777344 -2.22266,4.964844 0.3711,1.375 1.39844,0.808594 1.57422,1.851563 0.3086,1.808593 2.73828,2.960937 3.79688,2.804687 0.2539,-0.03906 0.47265,0.171875 0.98047,0.683594 0.72265,0.734375 2.5,0.636719 3.28906,0.492187 0.74609,-0.136718 1.6875,0.546875 3.25781,0.375 1.96094,-0.214844 2.46094,-0.367187 3.29688,-0.378906 1.41796,-0.02344 9.1289,-0.136719 14.60937,0.722656 0.94531,0.148438 1.24219,-0.277344 0.82031,-1.015625 -1.98828,-3.460937 -2.26172,-6.398437 -1.11718,-10.097656 2.02734,0.136719 4.9375,0.683594 8.76953,-1.617187 1.35937,-0.820313 2.11718,-2.5625 2.05078,-3.859376 -0.043,-0.839843 -0.41016,-1.90625 -0.19141,-2.726562 0.29297,-1.105469 0.50781,-1.078125 0.82422,-1.300781 1.46484,-1.03125 0.40625,-1.847657 0.18359,-1.929688 0.44141,-0.179687 0.92579,-1.140625 0.41407,-1.855469 -0.26172,-0.28125 -1.0586,-2.519531 -0.14063,-2.988281 0.99219,-0.503906 2.125,-0.714843 3.26563,-1.214843 0.78515,-0.328126 1.41015,-1.242188 0.96093,-2.457032 -0.53515,-1.457031 -3.52734,-8.316406 -3.61718,-8.507812"
       style="fill:#006b63;fill-opacity:1;fill-rule:nonzero;stroke:none;stroke-width:0.411777" />
    <path
       inkscape:connector-curvature="0"
       id="path4190"
       d="m 74.893806,48.600015 c -1.97656,0.07031 -4.27735,2.496094 -5.02735,2.832032 -0.78906,0.355468 -0.50781,0.578124 -0.0508,0.410156 0.98828,-0.359375 2.39063,-1.863282 4.33203,-2.566406 1.53125,-0.550782 1.4336,0.707031 2.00782,0.636718 0.26562,-0.03125 -0.11719,-1.355468 -1.26172,-1.3125"
       style="fill:#006b63;fill-opacity:1;fill-rule:nonzero;stroke:none;stroke-width:0.411777" />
    <path
       inkscape:connector-curvature="0"
       id="path4192"
       d="m 74.612556,54.287515 c -0.0899,0.367188 -2.21094,0.199219 -3.35938,0.09766 -0.27734,-0.02344 -0.73828,-0.0625 0.14063,-0.589843 0.69531,-0.414063 1.64453,-1.109375 2.88672,-1.347657 0.10156,-0.01953 0.30078,0.01172 0.35156,0.242188 0.12891,0.582031 0.0742,1.21875 -0.0195,1.597656 m 0.73047,-3.75 c -0.16407,0.03906 0.17187,0.886719 -0.6875,0.9375 -1.85938,0.117188 -3.33594,1.878906 -4.46875,2.40625 -1.13672,0.53125 -1.3711,0.519532 -1.53907,0.566406 -0.15234,0.03906 -0.0976,0.234376 0.0274,0.25 4.74609,0.636719 6.57031,0.460938 6.60937,0.289063 0.0781,-0.328125 -0.26562,-0.488281 -0.1914,-0.699219 0.17578,-0.527344 0.26562,-1.53125 0.0625,-2.21875 -0.0859,-0.324218 0.70312,-0.105468 0.70312,-0.542968 0,-0.238282 -0.23828,-1.054688 -0.51562,-0.988282"
       style="fill:#006b63;fill-opacity:1;fill-rule:nonzero;stroke:none;stroke-width:0.411777" />
    <path
       inkscape:connector-curvature="0"
       id="path4194"
       d="m 80.807866,61.045328 c -0.36328,-0.0078 -1.82422,0.660156 -2.37109,1.011719 -0.31641,0.199218 -1.80469,1.117187 -1.69532,-0.332032 0.0352,-0.507812 0.36329,-1.765625 0.35547,-2.109375 -0.0117,-0.523437 -0.42968,-0.316406 -0.4375,-0.0078 -0.0195,0.726562 -0.16406,1.277343 -0.3164,2.132812 -0.125,0.730469 0.50781,1.632813 1.49218,1.105469 0.82032,-0.433594 1.9336,-1.183594 2.92579,-1.371094 0.25,-0.05078 0.29687,-0.425781 0.0469,-0.429687"
       style="fill:#006b63;fill-opacity:1;fill-rule:nonzero;stroke:none;stroke-width:0.411777" />
    <path
       inkscape:connector-curvature="0"
       id="path4196"
       d="m 53.323496,66.228921 c -0.27735,-0.105468 -0.20313,0.472657 -0.58204,0.410157 -0.49609,-0.08203 -0.0781,-0.53125 -0.72656,-1.21875 -0.32422,-0.339844 -1.13281,-0.484375 -1.73047,-1.4375 -0.94531,-1.515625 -0.13281,-4.882813 1.25,-4.402344 0.76953,0.269531 0.63282,2.058594 0.40235,3.265625 -0.14063,0.746094 1.01953,1.113281 1.125,0.855469 0.17578,-0.4375 -0.42578,-0.398438 -0.56641,-0.796875 -0.21094,-0.613282 1.42188,-3.074219 -0.71484,-3.785156 -1.5586,-0.519532 -2.58203,1.441406 -2.39453,3.613281 0.16015,1.828125 1.375,2.585937 2.07031,2.84375 0.9414,0.347656 0.22656,1.632812 1.49609,1.636719 0.5586,0.0039 0.67578,-0.871094 0.3711,-0.984376"
       style="fill:#006b63;fill-opacity:1;fill-rule:nonzero;stroke:none;stroke-width:0.411777" />
    <path
       inkscape:connector-curvature="0"
       id="path4198"
       d="m 65.792246,25.662515 c 0.0664,0.02344 0.14062,0.0039 0.18359,-0.05078 l 2.63672,-3.335937 c 0.0664,-0.08594 0.0351,-0.214844 -0.0664,-0.253907 -0.14844,-0.0625 -0.29687,-0.121093 -0.44531,-0.179687 -0.0703,-0.02734 -0.14844,-0.0039 -0.19141,0.05078 l -2.64843,3.351563 c -0.0703,0.08594 -0.0312,0.21875 0.0742,0.253906 0.15235,0.05469 0.30469,0.109375 0.45704,0.164062"
       style="fill:#006b63;fill-opacity:1;fill-rule:nonzero;stroke:none;stroke-width:0.411777" />
    <path
       inkscape:connector-curvature="0"
       id="path4200"
       d="m 60.901616,24.30314 c 0.15234,0.03125 0.30078,0.0625 0.45313,0.09375 0.0781,0.01563 0.15625,-0.02734 0.1875,-0.101562 l 1.54296,-3.816407 c 0.0391,-0.09375 -0.0195,-0.199218 -0.11718,-0.222656 -0.17188,-0.03906 -0.33985,-0.07422 -0.51172,-0.109375 -0.0469,-0.01172 -0.0937,0.01172 -0.11328,0.05859 -0.19532,0.484375 -1.26953,3.144531 -1.56641,3.875 -0.0391,0.09766 0.0234,0.203125 0.125,0.222656"
       style="fill:#006b63;fill-opacity:1;fill-rule:nonzero;stroke:none;stroke-width:0.411777" />
    <path
       inkscape:connector-curvature="0"
       id="path4202"
       d="m 55.468026,23.77189 c 0.15234,0 0.30468,0.0039 0.45703,0.0078 0.0859,0 0.16015,-0.0625 0.16797,-0.148438 l 0.38281,-4.054687 c 0.008,-0.09375 -0.0664,-0.175781 -0.16016,-0.179688 -0.15625,-0.0039 -0.30859,-0.0078 -0.46484,-0.01172 -0.0859,-0.0039 -0.16016,0.0625 -0.16797,0.148438 l -0.37891,4.058594 c -0.008,0.09766 0.0664,0.179687 0.16407,0.179687"
       style="fill:#006b63;fill-opacity:1;fill-rule:nonzero;stroke:none;stroke-width:0.411777" />
    <path
       inkscape:connector-curvature="0"
       id="path4204"
       d="m 50.186776,24.166421 c 0.14843,-0.02344 0.30078,-0.04687 0.45312,-0.06641 0.0937,-0.01563 0.15625,-0.105468 0.13672,-0.195312 l -0.77344,-3.99609 c -0.0156,-0.08594 -0.0976,-0.144531 -0.18359,-0.132812 -0.15234,0.02344 -0.30469,0.04687 -0.45703,0.07422 -0.0937,0.01563 -0.15235,0.101563 -0.13672,0.195313 l 0.77344,3.992187 c 0.0156,0.08594 0.0976,0.144532 0.1875,0.128906"
       style="fill:#006b63;fill-opacity:1;fill-rule:nonzero;stroke:none;stroke-width:0.411777" />
    <path
       inkscape:connector-curvature="0"
       id="path4206"
       d="m 44.792246,25.400797 c 0.0391,0.07422 0.125,0.109374 0.20312,0.08203 0.14453,-0.05078 0.28906,-0.101563 0.4375,-0.148438 0.0937,-0.03516 0.14063,-0.140625 0.0937,-0.230469 l -1.82812,-3.667968 c -0.0391,-0.07813 -0.125,-0.113282 -0.20313,-0.08594 -0.14453,0.05469 -0.29297,0.105469 -0.4375,0.15625 -0.0937,0.03516 -0.13672,0.140625 -0.0937,0.230469 z m 0,0"
       style="fill:#006b63;fill-opacity:1;fill-rule:nonzero;stroke:none;stroke-width:0.411777" />
    <path
       inkscape:connector-curvature="0"
       id="path4208"
       d="m 39.753176,27.728921 c 0.0547,0.05859 0.13672,0.07422 0.20703,0.03516 0.13282,-0.07813 0.27344,-0.152344 0.40625,-0.226563 0.0937,-0.05078 0.11719,-0.175781 0.0469,-0.253906 l -2.73438,-3.125 c -0.0547,-0.05859 -0.14062,-0.07422 -0.20703,-0.03125 -0.13672,0.07813 -0.26953,0.15625 -0.40625,0.238281 -0.0859,0.05078 -0.10547,0.171875 -0.0391,0.25 z m 0,0"
       style="fill:#006b63;fill-opacity:1;fill-rule:nonzero;stroke:none;stroke-width:0.411777" />
    <path
       inkscape:connector-curvature="0"
       id="path4210"
       d="m 35.073496,31.037515 c 0.0625,0.04297 0.14453,0.03906 0.19921,-0.01172 0.1211,-0.101563 0.24219,-0.203126 0.36719,-0.304688 0.0859,-0.06641 0.0781,-0.199219 -0.008,-0.261719 l -3.45703,-2.402343 c -0.0625,-0.04297 -0.14844,-0.03906 -0.20703,0.01172 -0.11719,0.105469 -0.23828,0.210938 -0.35547,0.316406 -0.0781,0.07422 -0.0703,0.199219 0.0195,0.257813 z m 0,0"
       style="fill:#006b63;fill-opacity:1;fill-rule:nonzero;stroke:none;stroke-width:0.411777" />
    <path
       inkscape:connector-curvature="0"
       id="path4212"
       d="m 30.991456,35.24064 c 0.0664,0.02734 0.14454,0.0078 0.1875,-0.05078 0.10157,-0.125 0.20313,-0.246094 0.30469,-0.371094 0.0742,-0.08594 0.043,-0.21875 -0.0625,-0.257812 l -3.97656,-1.546875 c -0.0664,-0.02734 -0.14453,-0.0078 -0.1875,0.05078 -0.10156,0.128906 -0.19922,0.253906 -0.29297,0.382812 -0.0664,0.08984 -0.0312,0.214844 0.0703,0.253907 z m 0,0"
       style="fill:#006b63;fill-opacity:1;fill-rule:nonzero;stroke:none;stroke-width:0.411777" />
    <path
       inkscape:connector-curvature="0"
       id="path4214"
       d="m 23.483646,39.588297 4.25781,0.59375 c 0.0703,0.0078 0.13672,-0.02734 0.16797,-0.08594 0.0781,-0.144531 0.15625,-0.289062 0.23438,-0.429688 0.0547,-0.101562 -0.008,-0.226562 -0.1211,-0.242187 l -4.28125,-0.597656 c -0.0703,-0.01172 -0.14062,0.02734 -0.17187,0.08984 -0.0703,0.144532 -0.14453,0.289063 -0.21484,0.433594 -0.0469,0.101563 0.0156,0.21875 0.1289,0.238282"
       style="fill:#006b63;fill-opacity:1;fill-rule:nonzero;stroke:none;stroke-width:0.411777" />
    <path
       inkscape:connector-curvature="0"
       id="path4216"
       d="m 21.151616,46.045328 4.34375,-0.417969 c 0.0664,-0.0039 0.12109,-0.05078 0.14063,-0.113281 0.0508,-0.160157 0.10156,-0.316407 0.15234,-0.472657 0.0352,-0.113281 -0.0547,-0.230468 -0.17188,-0.21875 l -4.36718,0.417969 c -0.0703,0.0078 -0.12891,0.05469 -0.14453,0.121094 -0.0469,0.160156 -0.0859,0.316406 -0.12891,0.476563 -0.0273,0.109374 0.0625,0.214843 0.17578,0.207031"
       style="fill:#006b63;fill-opacity:1;fill-rule:nonzero;stroke:none;stroke-width:0.411777" />
    <path
       inkscape:connector-curvature="0"
       id="path4218"
       d="m 24.448496,51.205484 c 0.0195,-0.167969 0.0391,-0.335937 0.0586,-0.503906 0.0156,-0.125 -0.10156,-0.21875 -0.21484,-0.179688 l -4.23438,1.472657 c -0.0625,0.02344 -0.10547,0.07812 -0.10937,0.144531 -0.0117,0.167969 -0.0234,0.332031 -0.0312,0.5 -0.008,0.117187 0.10546,0.203125 0.21875,0.164062 l 4.20312,-1.460937 c 0.0586,-0.01953 0.10156,-0.07422 0.10938,-0.136719"
       style="fill:#006b63;fill-opacity:1;fill-rule:nonzero;stroke:none;stroke-width:0.411777" />
    <path
       inkscape:connector-curvature="0"
       id="path4220"
       d="m 24.343026,56.986734 c -0.0156,-0.175781 -0.0234,-0.351563 -0.0352,-0.523437 -0.008,-0.128907 -0.14844,-0.199219 -0.25391,-0.128907 l -3.83593,2.515625 c -0.0508,0.03516 -0.082,0.09766 -0.0742,0.160156 0.0234,0.167969 0.0469,0.339844 0.0703,0.507813 0.0195,0.117187 0.15625,0.179687 0.25391,0.113281 l 3.80078,-2.496094 c 0.0508,-0.03125 0.0781,-0.08984 0.0742,-0.148437"
       style="fill:#006b63;fill-opacity:1;fill-rule:nonzero;stroke:none;stroke-width:0.411777" />
    <path
       inkscape:connector-curvature="0"
       id="path4222"
       d="m 25.300056,62.764078 c -0.0469,-0.175781 -0.0898,-0.355469 -0.13281,-0.53125 -0.0312,-0.128907 -0.19141,-0.171875 -0.28125,-0.07422 l -3.1211,3.433594 c -0.0391,0.04687 -0.0508,0.109375 -0.0312,0.167968 0.0547,0.164063 0.11328,0.328126 0.17188,0.492188 0.043,0.117188 0.19531,0.148438 0.27734,0.05469 l 3.08203,-3.394532 c 0.0352,-0.03906 0.0508,-0.09375 0.0352,-0.148437"
       style="fill:#006b63;fill-opacity:1;fill-rule:nonzero;stroke:none;stroke-width:0.411777" />
    <path
       inkscape:connector-curvature="0"
       id="path4224"
       d="m 26.893806,67.889078 -2.19922,4.183593 c -0.0234,0.05078 -0.0234,0.113282 0.004,0.160157 0.0937,0.15625 0.18359,0.3125 0.27734,0.46875 0.0664,0.109375 0.23047,0.101562 0.28906,-0.01172 l 2.17578,-4.136719 c 0.0234,-0.05078 0.0234,-0.105469 0,-0.152343 -0.0859,-0.167969 -0.16797,-0.335938 -0.25,-0.507813 -0.0586,-0.121094 -0.23437,-0.121094 -0.29687,-0.0039"
       style="fill:#006b63;fill-opacity:1;fill-rule:nonzero;stroke:none;stroke-width:0.411777" />
    <path
       inkscape:connector-curvature="0"
       id="path4226"
       d="m 29.987556,72.592203 c -0.082,-0.113282 -0.25781,-0.07813 -0.29297,0.05859 l -1.17578,4.859374 c -0.0117,0.05078 0,0.105469 0.0352,0.144532 0.1211,0.144531 0.2461,0.285156 0.3711,0.425781 0.0859,0.101563 0.2539,0.05859 0.28125,-0.07031 l 1.16406,-4.800781 c 0.0156,-0.05078 0.004,-0.101562 -0.0273,-0.140625 -0.1211,-0.15625 -0.23828,-0.316406 -0.35547,-0.476562"
       style="fill:#006b63;fill-opacity:1;fill-rule:nonzero;stroke:none;stroke-width:0.411777" />
  </g>
</svg>
