<?xml version="1.0" encoding="UTF-8"?>
<svg version="1.1" xmlns="http://www.w3.org/2000/svg" width="113" height="113">
<path d="M0 0 C0 3.93235469 -1.54945341 5.02964049 -4 8 C-4.33 8.99 -4.66 9.98 -5 11 C-3.68 11 -2.36 11 -1 11 C-0.505 12.485 -0.505 12.485 0 14 C1.32 14 2.64 14 4 14 C4.28875 15.0725 4.5775 16.145 4.875 17.25 C5.78999111 20.79760013 5.78999111 20.79760013 7.125 23 C8 25 8 25 7.9375 28.125 C8.03902121 34.41931478 10.08294146 40.1196792 12.6875 45.8125 C13.94669707 48.87055002 14.29575647 50.74667878 14 54 C12.35 54.66 10.7 55.32 9 56 C9.020625 57.299375 9.04125 58.59875 9.0625 59.9375 C9.08399454 61.29165633 9.07148199 62.64756083 9 64 C8.67 64.33 8.34 64.66 8 65 C7.54717286 67.25068541 7.1655971 69.50815228 6.79296875 71.7734375 C5.76041927 74.67271437 4.67331136 75.51276785 2 77 C-1.34064654 77.66306772 -4.58897849 77.77559069 -8 78 C-7.01 84.93 -7.01 84.93 -6 92 C-10.3126712 92.05424744 -14.6246509 92.09379592 -18.9375 92.125 C-20.75604492 92.15013672 -20.75604492 92.15013672 -22.61132812 92.17578125 C-38.13926319 92.2599435 -38.13926319 92.2599435 -44.5625 88.5 C-46 87 -46 87 -46 85 C-46.66 85 -47.32 85 -48 85 C-48.2540107 80.42780749 -48.2540107 80.42780749 -46.8125 78 C-46.544375 77.34 -46.27625 76.68 -46 76 C-47.57463928 72.51921843 -48.78882551 71.14078299 -52 69 C-52.32896703 74.59243959 -52.41814116 78.30005591 -49 83 C-49 83.66 -49 84.32 -49 85 C-55.92880567 84.3194923 -59.62108948 78.94975859 -64 74 C-72.1482057 63.8245837 -74.48279804 50.74489728 -73.8515625 38.00390625 C-72.18609258 24.06947463 -64.51088007 12.02147606 -53.8125 3.1953125 C-38.34636494 -7.90716302 -16.62434486 -9.6975345 0 0 Z M-40 -1 C-39.01 -0.505 -39.01 -0.505 -38 0 C-37.27840576 1.64363134 -36.60648579 3.31050386 -36 5 C-34.35 4.67 -32.7 4.34 -31 4 C-31.33 2.02 -31.66 0.04 -32 -2 C-31.34 -2 -30.68 -2 -30 -2 C-29.67 -0.02 -29.34 1.96 -29 4 C-27.35 4 -25.7 4 -24 4 C-24 1.69 -24 -0.62 -24 -3 C-29.77807024 -3.2358396 -34.51324804 -2.86783046 -40 -1 Z M-22 -3 C-22.33 -0.69 -22.66 1.62 -23 4 C-21.02 4 -19.04 4 -17 4 C-16.34 1.69 -15.68 -0.62 -15 -3 C-17.31 -3 -19.62 -3 -22 -3 Z M-13 -2 C-13.28875 -1.030625 -13.5775 -0.06125 -13.875 0.9375 C-15 4 -15 4 -17 5 C-14.03 5.495 -14.03 5.495 -11 6 C-8.74114676 2.74602492 -8.74114676 2.74602492 -8 -1 C-9.65 -1.33 -11.3 -1.66 -13 -2 Z M-47 3 C-45.68 4.65 -44.36 6.3 -43 8 C-41.35 7.34 -39.7 6.68 -38 6 C-39.485 3.03 -39.485 3.03 -41 0 C-43.76223278 0 -44.89281454 1.31425163 -47 3 Z M-6 0 C-7.32 2.31 -8.64 4.62 -10 7 C-6.75728494 6.4409112 -5.06942576 5.5867822 -3 3 C-3 2.34 -3 1.68 -3 1 C-3.99 0.67 -4.98 0.34 -6 0 Z M-49 3 C-50.7074998 4.28062485 -52.37373596 5.61767557 -54 7 C-54.23137852 9.16523212 -54.23137852 9.16523212 -52.3125 10.75 C-49.99973549 12.3513984 -49.99973549 12.3513984 -47.25 11.1875 C-46.13625 10.5996875 -46.13625 10.5996875 -45 10 C-46.20381448 7.50638429 -47.45428722 5.31856917 -49 3 Z M-33 7 C-33 7.33 -33 7.66 -33 8 C-27.06 8 -21.12 8 -15 8 C-15 7.67 -15 7.34 -15 7 C-20.99776106 5.50055974 -27.00223894 5.50055974 -33 7 Z M-37 8 C-37.66 8.66 -38.32 9.32 -39 10 C-37.02 9.67 -35.04 9.34 -33 9 C-34.89179203 8.3185177 -34.89179203 8.3185177 -37 8 Z M-15 8 C-13.515 8.99 -13.515 8.99 -12 10 C-11.34 9.67 -10.68 9.34 -10 9 C-11.65 8.67 -13.3 8.34 -15 8 Z M-56 9 C-57.65 10.98 -59.3 12.96 -61 15 C-57.535 16.485 -57.535 16.485 -54 18 C-52.68 16.35 -51.36 14.7 -50 13 C-50.804375 12.71125 -51.60875 12.4225 -52.4375 12.125 C-55 11 -55 11 -56 9 Z M-51.8125 23.20703125 C-57.3260018 30.98690037 -58.90865005 38.55794082 -58 48 C-57.22472453 51.10558324 -56.22581773 54.04490368 -55 57 C-52.08772731 53.71195019 -50.50298788 51.40114397 -50 47 C-49.01 47 -48.02 47 -47 47 C-46.7525 46.0925 -46.505 45.185 -46.25 44.25 C-44.93508191 40.83121296 -43.7120041 39.38327633 -41 37 C-39.20468212 35.27948703 -37.67154509 33.58395712 -36.125 31.625 C-31.59863875 26.03361257 -26.349552 20.96604139 -20.125 17.3125 C-19.073125 16.6628125 -19.073125 16.6628125 -18 16 C-18 15.34 -18 14.68 -18 14 C-16.35 14 -14.7 14 -13 14 C-13 13.34 -13 12.68 -13 12 C-27.26668055 7.24443982 -42.18494764 11.48382632 -51.8125 23.20703125 Z M-45 12 C-45.33 12.66 -45.66 13.32 -46 14 C-45.01 13.67 -44.02 13.34 -43 13 C-43.66 12.67 -44.32 12.34 -45 12 Z M-11.0625 13 C-11.701875 13.66 -12.34125 14.32 -13 15 C-12.01 15 -11.02 15 -10 15 C-9.34 13.68 -8.68 12.36 -8 11 C-9.35917681 10.88397569 -9.35917681 10.88397569 -11.0625 13 Z M-5 13 C-5.99 13.99 -6.98 14.98 -8 16 C-6.35 15.34 -4.7 14.68 -3 14 C-3.66 13.67 -4.32 13.34 -5 13 Z M-62 15 C-64.91171789 18.66980204 -64.91171789 18.66980204 -66 23 C-63.36 23 -60.72 23 -58 23 C-57.34 21.35 -56.68 19.7 -56 18 C-56.804375 17.87625 -57.60875 17.7525 -58.4375 17.625 C-59.283125 17.41875 -60.12875 17.2125 -61 17 C-61.33 16.34 -61.66 15.68 -62 15 Z M-51.125 17 C-51.74375 17.66 -52.3625 18.32 -53 19 C-52.67 19.66 -52.34 20.32 -52 21 C-50.35 19.02 -48.7 17.04 -47 15 C-49.24362573 14.7715451 -49.24362573 14.7715451 -51.125 17 Z M-16 15 C-17.485 16.98 -17.485 16.98 -19 19 C-18.67 19.66 -18.34 20.32 -18 21 C-17.01 20.01 -16.02 19.02 -15 18 C-15.33 17.01 -15.66 16.02 -16 15 Z M1 16 C-14.54730127 29.32936509 -14.54730127 29.32936509 -26 46 C-25.67 46.99 -25.34 47.98 -25 49 C-24.40832031 48.19175781 -23.81664062 47.38351563 -23.20703125 46.55078125 C-22.40907382 45.47119178 -21.61088428 44.39177384 -20.8125 43.3125 C-20.03519531 42.25675781 -19.25789063 41.20101562 -18.45703125 40.11328125 C-11.57345655 31.39116832 -4.38469149 28.17310018 6 25 C5.360625 24.2575 4.72125 23.515 4.0625 22.75 C2.15903404 20.21204538 1.60535059 18.98214819 1 16 Z M-13 23 C-13.804375 23.804375 -14.60875 24.60875 -15.4375 25.4375 C-18.23027291 28.23027291 -21.18989964 30.73657083 -24.23046875 33.25390625 C-26.07250441 35.07154408 -26.92265172 36.67215819 -28 39 C-28.598125 39.556875 -29.19625 40.11375 -29.8125 40.6875 C-34.00014934 45.11444359 -36.43430056 50.82752174 -39.125 56.25 C-43.49942818 65.0513495 -43.49942818 65.0513495 -48 68 C-47.34 68.680625 -46.68 69.36125 -46 70.0625 C-43.56114128 73.64457375 -43.66707415 75.75519536 -44 80 C-42.35 80 -40.7 80 -39 80 C-39.66 79.67 -40.32 79.34 -41 79 C-40.67 78.34 -40.34 77.68 -40 77 C-37.71484375 76.5859375 -37.71484375 76.5859375 -34.9375 76.375 C-34.01839844 76.30023438 -33.09929688 76.22546875 -32.15234375 76.1484375 C-31.44207031 76.09945312 -30.73179688 76.05046875 -30 76 C-28.86267574 72.59598052 -29.16010043 70.22543336 -29.9375 66.75 C-30.13214844 65.85796875 -30.32679687 64.9659375 -30.52734375 64.046875 C-30.68332031 63.37140625 -30.83929688 62.6959375 -31 62 C-31.60328125 62.30679688 -32.2065625 62.61359375 -32.828125 62.9296875 C-35.17475573 64.08612063 -37.5626303 65.052134 -40 66 C-40 65.34 -40 64.68 -40 64 C-38.35 63.34 -36.7 62.68 -35 62 C-35 61.01 -35 60.02 -35 59 C-34.67751743 57.66400079 -34.34227417 56.33106622 -34 55 C-33.9175 53.96875 -33.835 52.9375 -33.75 51.875 C-33.5025 50.92625 -33.255 49.9775 -33 49 C-32.24332031 48.73058594 -31.48664062 48.46117188 -30.70703125 48.18359375 C-27.06037704 46.58916918 -26.04029203 44.53819173 -23.9375 41.1875 C-19.75622568 34.75958436 -14.89377083 29.30472234 -9.6015625 23.77734375 C-7.55154333 21.58880977 -5.72375175 19.44491319 -4 17 C-7.7160051 17 -10.36733765 20.58576815 -13 23 Z M-15.1875 21 C-15.785625 21.66 -16.38375 22.32 -17 23 C-14.97954558 22.39816251 -12.97888961 21.72693904 -11 21 C-10.67 20.34 -10.34 19.68 -10 19 C-13.12498166 18.6626154 -13.12498166 18.6626154 -15.1875 21 Z M-23 20 C-23.99 21.485 -23.99 21.485 -25 23 C-24.67 23.99 -24.34 24.98 -24 26 C-23.34 25.34 -22.68 24.68 -22 24 C-22.3185177 21.89179203 -22.3185177 21.89179203 -23 20 Z M-55 22 C-55 25 -55 25 -55 25 Z M-67 23 C-68.25664978 25.90600261 -69 27.79604584 -69 31 C-66.69 31 -64.38 31 -62 31 C-61.34 29.02 -60.68 27.04 -60 25 C-62.31 24.34 -64.62 23.68 -67 23 Z M-57 25 C-56 27 -56 27 -56 27 Z M-18 24 C-20.475 25.485 -20.475 25.485 -23 27 C-22.01 27.33 -21.02 27.66 -20 28 C-19.01 27.34 -18.02 26.68 -17 26 C-17.33 25.34 -17.66 24.68 -18 24 Z M-29 26 C-29.66 27.65 -30.32 29.3 -31 31 C-29.68 29.68 -28.36 28.36 -27 27 C-27.66 26.67 -28.32 26.34 -29 26 Z M-58 27 C-57 29 -57 29 -57 29 Z M-59 29 C-61.62848705 37.37551806 -62.27895987 44.30923655 -61 53 C-60.67 53 -60.34 53 -60 53 C-59.93941406 51.85402344 -59.87882812 50.70804688 -59.81640625 49.52734375 C-59.73193011 47.99738703 -59.64728573 46.46743959 -59.5625 44.9375 C-59.52318359 44.18533203 -59.48386719 43.43316406 -59.44335938 42.65820312 C-59.18419281 38.05301259 -58.7200579 33.55633276 -58 29 C-58.33 29 -58.66 29 -59 29 Z M-28.1875 32 C-28.785625 32.66 -29.38375 33.32 -30 34 C-26.39007621 33.34414811 -26.39007621 33.34414811 -23 32 C-23 31.34 -23 30.68 -23 30 C-26.12498166 29.6626154 -26.12498166 29.6626154 -28.1875 32 Z M-3 29 C-3.99 29.495 -3.99 29.495 -5 30 C-5 30.66 -5 31.32 -5 32 C-4.01 31.67 -3.02 31.34 -2 31 C-2.33 30.34 -2.66 29.68 -3 29 Z M-34 31 C-34.99 32.485 -34.99 32.485 -36 34 C-35.67 34.99 -35.34 35.98 -35 37 C-34.34 36.01 -33.68 35.02 -33 34 C-33.33 33.01 -33.66 32.02 -34 31 Z M-10.4375 39 C-10.953125 39.66 -11.46875 40.32 -12 41 C-11.81695312 41.58265625 -11.63390625 42.1653125 -11.4453125 42.765625 C-10.79826668 46.01220578 -12.00609856 47.81737267 -13.4375 50.75 C-13.91058594 51.73484375 -14.38367188 52.7196875 -14.87109375 53.734375 C-15.24363281 54.48203125 -15.61617187 55.2296875 -16 56 C-18.97 55.67 -21.94 55.34 -25 55 C-25.33 53.35 -25.66 51.7 -26 50 C-26.33 50 -26.66 50 -27 50 C-26.95875 50.78375 -26.9175 51.5675 -26.875 52.375 C-27 55 -27 55 -29 57 C-27.63676257 59.0399719 -27.63676257 59.0399719 -26 61 C-25.34 61 -24.68 61 -24 61 C-24.495 62.485 -24.495 62.485 -25 64 C-19.32334103 69.64923549 -13.93618779 74.13420751 -6 76 C-2.24461637 75.9394293 0.06353249 75.43221578 3.4375 73.875 C5.33224231 71.95377498 5.33224231 71.95377498 5.375 68.5 C5.26140863 64.89063517 5.26140863 64.89063517 3 62 C3.66 61.401875 4.32 60.80375 5 60.1875 C7.3373846 58.12498166 7.3373846 58.12498166 7 55 C6.67 54.67 6.34 54.34 6 54 C6.99 54 7.98 54 9 54 C9.99 53.67 10.98 53.34 12 53 C11.50923604 48.97573552 10.51181377 45.69400063 8.83203125 42.01171875 C7.22311588 38.12161822 6.14772761 34.04553633 5 30 C-0.18149715 30 -6.62600014 35.8726155 -10.4375 39 Z M-70 33 C-70.33 35.31 -70.66 37.62 -71 40 C-68.20866129 39.21791649 -65.55518097 38.38293093 -63 37 C-61.86559222 34.42919865 -61.86559222 34.42919865 -62 32 C-64.83967231 32 -67.23735711 32.40267181 -70 33 Z M-10 33 C-11.63676257 34.9600281 -11.63676257 34.9600281 -13 37 C-11.01508358 36.73323796 -11.01508358 36.73323796 -9 36 C-8.67 35.01 -8.34 34.02 -8 33 C-8.66 33 -9.32 33 -10 33 Z M-39 36 C-41.30671915 38.71549154 -41.30671915 38.71549154 -40.625 41.1875 C-40.41875 41.785625 -40.2125 42.38375 -40 43 C-37.69328085 40.28450846 -37.69328085 40.28450846 -38.375 37.8125 C-38.58125 37.214375 -38.7875 36.61625 -39 36 Z M-33.1875 38 C-33.785625 38.66 -34.38375 39.32 -35 40 C-32.56282742 39.72965366 -32.56282742 39.72965366 -30 39 C-29.34 38.01 -28.68 37.02 -28 36 C-31.12498166 35.6626154 -31.12498166 35.6626154 -33.1875 38 Z M-14 37 C-14.33 37.66 -14.66 38.32 -15 39 C-14.34 39 -13.68 39 -13 39 C-13.33 38.34 -13.66 37.68 -14 37 Z M-71 42 C-71 44.31 -71 46.62 -71 49 C-68.69 48.01 -66.38 47.02 -64 46 C-64 44.02 -64 42.04 -64 40 C-66.6465335 40 -68.5808163 40.98139634 -71 42 Z M-18 42 C-18.99 43.485 -18.99 43.485 -20 45 C-19.67 45.99 -19.34 46.98 -19 48 C-16.65712582 45.32752366 -16.65712582 45.32752366 -16 42 C-16.66 42 -17.32 42 -18 42 Z M-14 42 C-14.061875 42.598125 -14.12375 43.19625 -14.1875 43.8125 C-15.3236757 46.87143458 -17.17330142 47.55041099 -20 49 C-19.67 50.98 -19.34 52.96 -19 55 C-18.01 54.67 -17.02 54.34 -16 54 C-14.84164327 51.02496878 -14.84164327 51.02496878 -14 48 C-13.67 47.67 -13.34 47.34 -13 47 C-12.95936168 45.33382885 -12.957279 43.66611905 -13 42 C-13.33 42 -13.66 42 -14 42 Z M-45 43 C-45.67958603 45.39719432 -45.67958603 45.39719432 -46 48 C-45.34 48.66 -44.68 49.32 -44 50 C-43.67 47.69 -43.34 45.38 -43 43 C-43.66 43 -44.32 43 -45 43 Z M-40 45 C-39.67 45.66 -39.34 46.32 -39 47 C-35.37206002 45.13433512 -35.37206002 45.13433512 -33 42 C-35.89508511 42 -37.59696473 43.48229352 -40 45 Z M-71 50 C-70.34 52.64 -69.68 55.28 -69 58 C-66.9600281 56.63676257 -66.9600281 56.63676257 -65 55 C-65 54.34 -65 53.68 -65 53 C-64.34 53 -63.68 53 -63 53 C-63.33 51.35 -63.66 49.7 -64 48 C-66.6465335 48 -68.5808163 48.98139634 -71 50 Z M-49 49 C-49.67801034 51.90073181 -49.67801034 51.90073181 -50 55 C-49.34 55.66 -48.68 56.32 -48 57 C-46.64381501 55.87465895 -46.64381501 55.87465895 -46.9375 52.9375 C-46.958125 51.968125 -46.97875 50.99875 -47 50 C-47.66 49.67 -48.32 49.34 -49 49 Z M-38 48 C-39.65 48.66 -41.3 49.32 -43 50 C-43 50.66 -43 51.32 -43 52 C-41.35 51.67 -39.7 51.34 -38 51 C-38 50.01 -38 49.02 -38 48 Z M-23 49 C-23.33 49.99 -23.66 50.98 -24 52 C-23.34 52 -22.68 52 -22 52 C-22.33 51.01 -22.66 50.02 -23 49 Z M-30 51 C-30.33 52.32 -30.66 53.64 -31 55 C-30.01 55.495 -30.01 55.495 -29 56 C-29 54.35 -29 52.7 -29 51 C-29.33 51 -29.66 51 -30 51 Z M-33 52 C-32 54 -32 54 -32 54 Z M-60 53 C-59 56 -59 56 -59 56 Z M-66.25 57.125 C-68.41819301 59.93641889 -68.41819301 59.93641889 -67.25 63.3125 C-66.8375 64.199375 -66.425 65.08625 -66 66 C-65.34 66 -64.68 66 -64 66 C-61.59759022 62.97474324 -60.94458369 61.5874129 -61.3125 57.6875 C-61.6528125 56.3571875 -61.6528125 56.3571875 -62 55 C-64.27347138 54.77112549 -64.27347138 54.77112549 -66.25 57.125 Z M-47 57 C-47 57.66 -47 58.32 -47 59 C-44.56282742 58.72965366 -44.56282742 58.72965366 -42 58 C-41.34 57.01 -40.68 56.02 -40 55 C-44.04622502 54.63019987 -44.04622502 54.63019987 -47 57 Z M-59 56 C-58.67 57.65 -58.34 59.3 -58 61 C-57.67 60.01 -57.34 59.02 -57 58 C-57.66 57.34 -58.32 56.68 -59 56 Z M-53 57 C-53 58.98 -53 60.96 -53 63 C-52.01 63 -51.02 63 -50 63 C-50 61.35 -50 59.7 -50 58 C-50.99 57.67 -51.98 57.34 -53 57 Z M-31 58 C-30.34 58.66 -29.68 59.32 -29 60 C-29 59.34 -29 58.68 -29 58 C-29.66 58 -30.32 58 -31 58 Z M-29 60 C-28.67 60.99 -28.34 61.98 -28 63 C-27.34 63 -26.68 63 -26 63 C-26 62.34 -26 61.68 -26 61 C-26.99 60.67 -27.98 60.34 -29 60 Z M-57 61 C-56.67 61.99 -56.34 62.98 -56 64 C-56 63.01 -56 62.02 -56 61 C-56.33 61 -56.66 61 -57 61 Z M-47.6875 62.5 C-48.120625 62.995 -48.55375 63.49 -49 64 C-48.01 64.33 -47.02 64.66 -46 65 C-45.01 63.68 -44.02 62.36 -43 61 C-46.00259517 60.66781808 -46.00259517 60.66781808 -47.6875 62.5 Z M5 61 C5 61.99 5 62.98 5 64 C5.66 63.67 6.32 63.34 7 63 C6.34 62.34 5.68 61.68 5 61 Z M-61 63 C-61.99 64.98 -62.98 66.96 -64 69 C-62.63676257 71.0399719 -62.63676257 71.0399719 -61 73 C-60.34 73 -59.68 73 -59 73 C-57.80648688 69.65670531 -57.80648688 69.65670531 -57 66 C-57.66 65.01 -58.32 64.02 -59 63 C-59.66 63 -60.32 63 -61 63 Z M-55 64 C-54.67 64.99 -54.34 65.98 -54 67 C-54 66.01 -54 65.02 -54 64 C-54.33 64 -54.66 64 -55 64 Z M-28 65 C-28 68.96 -28 72.92 -28 77 C-31.63 77.33 -35.26 77.66 -39 78 C-35.71737969 80.18841354 -34.68209102 80.24854665 -30.875 80.1875 C-29.98554687 80.18105469 -29.09609375 80.17460938 -28.1796875 80.16796875 C-26.02263471 80.23953048 -26.02263471 80.23953048 -25 79 C-25.02645398 76.76461232 -25.02645398 76.76461232 -25.3125 74.1875 C-25.39113281 73.31480469 -25.46976563 72.44210938 -25.55078125 71.54296875 C-25.93718421 68.65096113 -25.93718421 68.65096113 -28 65 Z M-25 66 C-24 68 -24 68 -24 68 Z M-24 68 C-23.89300781 69.12019531 -23.78601562 70.24039063 -23.67578125 71.39453125 C-23.5538473 72.86711817 -23.43279968 74.33977867 -23.3125 75.8125 C-23.20325195 76.91948242 -23.20325195 76.91948242 -23.09179688 78.04882812 C-22.66668929 83.57522672 -22.66668929 83.57522672 -24.48046875 85.88671875 C-24.98191406 86.25410156 -25.48335937 86.62148437 -26 87 C-26 87.66 -26 88.32 -26 89 C-20.39 89.33 -14.78 89.66 -9 90 C-8.30184723 83.43032606 -8.30184723 83.43032606 -9 77 C-11.92157976 74.01720619 -15.20334747 72.62951218 -19 71 C-20.67980805 70.02223587 -22.35061991 69.02826218 -24 68 Z M-57 69 C-57.66 71.31 -58.32 73.62 -59 76 C-57.68 76.99 -56.36 77.98 -55 79 C-55 75.7 -55 72.4 -55 69 C-55.66 69 -56.32 69 -57 69 Z M-44 82 C-43.67 83.65 -43.34 85.3 -43 87 C-42.67 87 -42.34 87 -42 87 C-42 85.35 -42 83.7 -42 82 C-42.66 82 -43.32 82 -44 82 Z M-40 82 C-39.67 84.31 -39.34 86.62 -39 89 C-38.34 88.67 -37.68 88.34 -37 88 C-37.33 86.02 -37.66 84.04 -38 82 C-38.66 82 -39.32 82 -40 82 Z M-35 82 C-35.20970559 86.14093698 -35.20970559 86.14093698 -34 90 C-32.35 89.67 -30.7 89.34 -29 89 C-29 88.01 -29 87.02 -29 86 C-29.66 86 -30.32 86 -31 86 C-31.33 84.68 -31.66 83.36 -32 82 C-32.99 82 -33.98 82 -35 82 Z M-29 82 C-28.67 82.99 -28.34 83.98 -28 85 C-27.01 85 -26.02 85 -25 85 C-25 84.01 -25 83.02 -25 82 C-26.32 82 -27.64 82 -29 82 Z " fill="#006C65" transform="translate(81,13)"/>
<path d="M0 0 C10.67267202 9.01095583 18.62264308 22.56484367 19.97119141 36.61743164 C20.79720453 53.85298637 17.76260428 68.40990419 6.49609375 82.0390625 C-4.37000244 93.5853798 -18.04914221 100.14580926 -33.93652344 100.78320312 C-50.31999394 100.99067637 -64.65221444 95.8830812 -76.625 84.5 C-87.46020909 73.02231858 -93.11508086 58.82999764 -93.28515625 43.05078125 C-92.48304114 26.8324051 -86.0327929 12.54670133 -74.25 1.3125 C-52.28594366 -17.01639022 -22.65824624 -16.82986936 0 0 Z M-77.1484375 7.671875 C-87.59069001 20.79262351 -91.51711241 34.57233883 -90.25 51.3125 C-88.25573381 65.86525326 -80.64489062 78.54176784 -69.125 87.4375 C-56.75544649 96.09786582 -42.44828336 100.25245158 -27.484375 97.66015625 C-12.46724963 94.51082164 -0.61657704 87.37803846 8.5625 74.8359375 C16.43050955 62.44382246 19.45973125 48.77349511 17.2890625 34.22265625 C13.94908788 19.2713581 6.09776291 6.91594564 -6.75 -1.625 C-29.75577219 -15.21339519 -58.50633494 -12.25822737 -77.1484375 7.671875 Z " fill="#006C65" transform="translate(93.25,12.6875)"/>
<path d="M0 0 C0.66 0.66 1.32 1.32 2 2 C1.625 4.625 1.625 4.625 1 7 C-5.0546875 7.1953125 -5.0546875 7.1953125 -7 7 C-7.66 6.34 -8.32 5.68 -9 5 C-6.03 3.35 -3.06 1.7 0 0 Z " fill="#006C64" transform="translate(83,51)"/>
<path d="M0 0 C-0.33 0.66 -0.66 1.32 -1 2 C-2.32488113 2.36548445 -3.66018514 2.6937566 -5 3 C-6.3479743 3.63654342 -7.68596724 4.29605388 -9 5 C-9.33 4.34 -9.66 3.68 -10 3 C-3.375 -1.125 -3.375 -1.125 0 0 Z " fill="#006C65" transform="translate(85,49)"/>
</svg>
