<svg xmlns="http://www.w3.org/2000/svg" viewBox="0 0 2500 300"><defs><style>.minerva-base-style{}</style></defs><g transform="translate(0 0) scale(1.4285714285714286) translate(0 0)" style="fill: #006c66;"><title>minerva</title><path d="M105,0A105,105,0,1,0,210,105,105.1,105.1,0,0,0,105,0Zm0,207.1A102.1,102.1,0,1,1,207.1,105,102.2,102.2,0,0,1,105,207.1Z"/><path class="minerva-base-style" d="M166.6,97c-1.4-3.1-.5-5.1-.9-7.3s-2.7-7-4.3-10.8c-.7-1.7,3.8-1.3.4-7.6,0-.2,4.7-2,0-5.5a26.4,26.4,0,0,1-6-6.7,1,1,0,0,1,0-1.3c2.7-2.4,2.8-5.8-.1-7.5s-4.5,0-6.7,1.4c-.7.5-1.1.8-1.9.5L145.3,51c2.7-2.6,3.3-5.2,3.1-5.6s-4.6-1.3-10.2,1l-.4-.3c2.3-3.9,1-6.7.9-6.9h-.1A81,81,0,0,1,151,25.9h.1c.2-.3.3-.6-.2-.9l-1-.6A92.4,92.4,0,0,0,12.7,105c0,29.5,15,57.9,39.4,75.6a13.5,13.5,0,0,0,2.8,1.6A1.1,1.1,0,0,0,56,182l.3-.5a1,1,0,0,0,.3-.8c0-.7-.9-1.3-2.1-3a27.7,27.7,0,0,1-4.7-15.1,22.1,22.1,0,0,1,4.5-13.7c3.7,3.9,11.7,10.9,11.5,17.4s-6.9,6.8-5.4,12.2c.9,3.4,3.4,2,3.9,4.6.7,4.4,6.7,7.3,9.3,6.9.7-.1,1.2.4,2.4,1.7s6.2,1.6,8.2,1.2,4.1,1.4,8,.9,6.1-.9,8.2-.9,22.5-.3,36,1.8c2.4.4,3.1-.7,2.1-2.5-4.9-8.6-5.6-15.8-2.8-25,5,.4,12.2,1.7,21.6-4a11,11,0,0,0,5.1-9.5c-.1-2.1-1-4.7-.5-6.7s1.3-2.7,2.1-3.2c3.6-2.6,1-4.6.4-4.8a3.4,3.4,0,0,0,1.1-4.6c-.7-.7-2.7-6.2-.4-7.3s5.3-1.8,8.1-3.1a4.5,4.5,0,0,0,2.4-6C174.2,114.4,166.8,97.4,166.6,97ZM64.7,179.1c-.7.2-2.9.3-2.4-2.7s2.3-2.6,3.3-1.6S64.9,177.6,64.7,179.1Zm87-125.9c1.2-.8,2.5-1.1,3.3-.4,2.6,2.6-2.9,4.1-1.8,6.1a30.7,30.7,0,0,0,7.5,8.4c1.2,1,1.4,3.1-3.3,4.1s-23.6,5.9-33.6,16.5c-12.5,13.2-20.4,30.3-21.5,28s-3.6-2.8-3.2-3.5C117,81.6,145.1,57.3,151.7,53.2Zm8.2,21.7c-1,2.9-9.1,5.5-8.7,3.5s0-2.2.6-2.3,3.5-1.1,7.5-2.1C159.7,73.9,160.2,74.1,159.9,74.9Zm-20.6,5.3c-.2-1.2,8.5-4.1,8.8-3.3s-1.8,6-4.7,7-4.7.9-4.6.4A11,11,0,0,0,139.3,80.2ZM119,125.8c-4,2.5-6.2-2.2-6.8-3.1a3.7,3.7,0,0,1-.5-3.1c.3-1.4.5-3.3-.4-9.3-.4-2.7,5-9.2,6.3-10.4s3.1.6,3.2,2.6c.3,3.6-1.8,5.6-3.9,7.2s-3.1,4.4-2.6,5.1a1.5,1.5,0,0,0,1.9-.9c1.5-3.3,6-4.9,6.7-6.7s.3-4.4.2-5.6.9-1.2,1.6-1.1,1.4,1.4,1.8,2.7c2.9,7.5-4.3,12-5.5,13.8S122.1,123.9,119,125.8Zm6.1-29.1c-2.2,1.5-5.3-.5-4.7-1.4a43.7,43.7,0,0,1,11.5-11c3.4-2.1,3.8-2.3,4-1.1a10.6,10.6,0,0,1-2.6,7.5c-2.3,2.5-4.6,2.3-5.8,2.6S126.7,95.6,125.1,96.7Zm-19.3,25.6c-1-.2-1.4-2.1-1.2-2.9s3.1-5.2,4-6.4a.5.5,0,0,1,.8.3C110,117.4,109.4,123.1,105.8,122.3ZM138,48.2a17.7,17.7,0,0,1,7.5-1.6c.8.1-1.9,4.8-6.6,6.8s-8.5,2.5-8.9,2.3S134.1,49.9,138,48.2ZM54.7,126.5c-1.5-1.7-2.8-2.6-2.9-2.5a22.4,22.4,0,0,0-3.6,8.9A65.4,65.4,0,0,1,40.7,105C39.3,69.6,69,41.1,105.2,41.2a56.8,56.8,0,0,1,22.4,4.6,31.3,31.3,0,0,0-3.7,6.6c0-1.9-.5-3.4-.4-4.6s-5.1.9-9.7,8.3a19.9,19.9,0,0,0-2.2,5.3c-.1-2.8-.7-4.9-.9-4.9a16.1,16.1,0,0,0-8.5,8.8,22.4,22.4,0,0,0-1.1,3.4c-.2-1.9-.7-3.2-.9-3.2s-5.9,2.3-8.6,8.9A15.4,15.4,0,0,0,90.5,79c-.5-2.3-1.4-3.7-1.7-3.4-1.9,2.4-5.7,3.5-7.6,9.6a13.2,13.2,0,0,0-.7,4.2c-.8-2-2-3.2-2.3-3.2s-6.1,5.5-7,10.9a15.8,15.8,0,0,0,.2,5.8c-1.1-1.8-2.5-3-3.1-4.8-.9.5-5.7,5-5.8,10.7a19.7,19.7,0,0,0,.7,6.1c-1.6-2.9-3.8-4.2-4.1-4.1s-4,4.1-4.8,11.1A11.8,11.8,0,0,0,54.7,126.5Zm74.1-79.7c2.8-3.4,7.6-6.1,8.2-5.8s-.8,5.6-3.9,8.6-8.1,6.2-8.6,6.1S126.2,49.8,128.8,46.8Zm-9.3,13a21,21,0,0,0-5.6,6.4c-.5.9-1.9-5,1.7-10.6,2.2-3.5,6.6-6.6,6.5-6.2S124.2,56,119.5,59.8Zm-10.1,7.5c-3.4,5.1-3.6,3.3-7.3,8.3-.2.2-.2-6.5,1.1-9.4,2.1-4.7,5.7-7.4,6.2-7.5S111.3,64.5,109.4,67.3ZM98.3,77.4c-1.7,3-3.3,2.3-6.2,6.7-.3.4-1.1-3.6.7-9.1a12.6,12.6,0,0,1,5.9-6.9C99.3,68,100.4,73.8,98.3,77.4ZM88,88.1c-1.8,3.9-2.9,4-5,6.4-.3.4-1.8-3.7-.4-8.8s4-5.6,5.3-7S89.9,84,88,88.1Zm-8.4,6.6a10.3,10.3,0,0,1-.4,3c-1.3,4.3-3.9,6.2-5.3,8.1a15.7,15.7,0,0,1-1.6-5.8,15.2,15.2,0,0,1,5.2-11.2C78.3,88.8,79.6,92,79.6,94.7Zm-8.5,12.8A14.9,14.9,0,0,1,66,118.3a17.7,17.7,0,0,1-2.2-7.6c-.2-6.3,2.4-8.5,3.6-9.7C67.9,102.8,71.1,104.2,71.1,107.5ZM59,113.8c1.8.9,3.9,3.4,4.1,8.2s-3.2,8.7-4.6,9.4c-.9-3.7-2.6-4.4-2.6-8A18,18,0,0,1,59,113.8Zm7.3,12.5c4.6-2,9.6-1.7,9.8-1.5s-1.5,5.9-5.9,8.2-9.5,2.7-10,2.1S61.7,128.3,66.3,126.3Zm-.4-3.4c.3-1.5,3-6.5,7.1-8.3h0a18.4,18.4,0,0,1,9.4-1.5c.5.2-1.7,5.6-5.8,7.6S70.1,121.6,65.9,122.9Zm6.9-11.8c.2-.4,3.5-6.4,7.4-8.2a17.5,17.5,0,0,1,8.9-1.4c.3.1-1.8,5.4-6.2,7.6S72.6,111.6,72.8,111.1Zm8.9-11.9c-.3-.2,4.4-6.4,8.4-8.3a15.6,15.6,0,0,1,8.4-1c.3.3-1.9,5.5-6.5,7.5A24.2,24.2,0,0,1,81.7,99.2ZM92.4,87.4c-.2-.2,3.4-6.3,7.4-7.9s7.7-.1,8.9,0-1.3,4.5-6.6,6.4S93.1,87.7,92.4,87.4Zm12-11.4c.1-.3,4.1-5.9,8.1-7.3a16.4,16.4,0,0,1,9.2-.2c.5.2-2.8,5-7.7,6.5S104.3,76.3,104.4,76Zm12.1-9.9c-.5-.3,4.3-5.7,8.2-7.2a18,18,0,0,1,8.3-1c.3.2-2.5,4.9-7.1,6.7S117.1,66.5,116.5,66.1ZM50.2,175.3C28.6,158.1,15.6,132.1,15.6,105A89.3,89.3,0,0,1,146.4,25.8a.4.4,0,0,1,.1.7,97.3,97.3,0,0,0-10.2,11.4,73.1,73.1,0,0,0-31.3-7A74.3,74.3,0,0,0,30.9,105a72.1,72.1,0,0,0,17.9,48.2,23.1,23.1,0,0,0-1.9,9.4A25.6,25.6,0,0,0,50.2,175.3Zm.2-24.8h-.1A69.2,69.2,0,0,1,33.9,105,71.2,71.2,0,0,1,105,33.9a70.1,70.1,0,0,1,29.6,6.4,22.6,22.6,0,0,0-4.1,2.6A63.1,63.1,0,0,0,105,37.8,67.3,67.3,0,0,0,37.8,105c0,16.1,5,30.2,14.8,42C52.1,147.9,51.3,149.1,50.4,150.5Zm3.5-5.6c-1.3-1.2-4.1-4.3-4.4-8.3V136c0-4.3,1.9-8.6,2.4-9s5.3,3.3,5.4,8.7A14.4,14.4,0,0,1,53.9,144.9Zm8-7.2c3.9-1.8,9.6-1.4,9.3-1.1s-1.8,5.8-6.2,8a12.1,12.1,0,0,1-8.7,1.3C58.6,143.3,58.1,139.5,61.9,137.7Zm5.2,46.5c-.6-2.7-.4-6.3.5-7.3s4.9-1.2,5-.1-1.1,5.4.3,10.2C72.6,187.7,68.3,187.4,67.1,184.2Zm.3-11.1c-.3-2,1.6-3.9,1.6-8.2s-6.6-12.6-11.1-17.3a19.5,19.5,0,0,0,7.9-1.9c6.6-3.1,7.9-10.1,8.1-10.4a11,11,0,0,0-3.8-.4l.8-.4c6.4-3.5,8.1-11,7.8-11.1a17,17,0,0,0-4-.3l2-.7c6.8-2.7,8.7-10.3,8.5-10.6a16.1,16.1,0,0,0-3.5-.4l1.9-.8c6.2-3.1,8.4-10.1,8.1-10.3a10.5,10.5,0,0,0-3.3-.4,23.7,23.7,0,0,0,4.5-1.5c6.7-2.9,8.9-9.3,8.6-9.6a10.9,10.9,0,0,0-3-.5,34.5,34.5,0,0,0,4.4-1.3c6.6-2.2,9.2-8.5,8.8-8.6l-3.7-.8a24.5,24.5,0,0,0,6.6-1.3c7.1-2.4,9.6-6.7,9.8-8.6a6,6,0,0,0-2.3-.8,29.3,29.3,0,0,0,4.7-1.2c6.6-2.7,9.4-9.3,9.6-9.8a29.3,29.3,0,0,0,3.9-1.6l1.9-.9,1.6,1.1c1,.6,1.4.8.9,1.2C122,75,105,99.5,97.6,111.3c-.2.4-.6.3-1.3.3-7.9-.6-12.4,8.9-8.9,17.8-.4,1.8-4.2,5.3-4.5,5.5s-1,1.4.3,1.3,4.2-3.2,5.4-4.5c.4.6,2.2,2,1.3,2.8A63.6,63.6,0,0,1,76,145c-2.6,1.2,4.2,2.1,15.7-8.3.7-.6,1.5,2.4,2.5,3.7-2,6.5,2.9,19.1,2.1,23a2.8,2.8,0,0,1-2.8,2.7c-11.4.3-12.5-.3-18.3,1.4-2.7.8-2,2.6-.1,2.1s4.6-1.5,16.9-.7c3.1.1,6.5-.6,6.5-5.7s-3.6-18.4-2.4-20.3a6.9,6.9,0,0,0,3.5,1.4c-.2,4.5,7,19,3.8,27-1.2,3-6.4,2.7-15.4,1.8C72.7,171.6,67.7,174.9,67.4,173.1Zm35.1,9.9c-5.9,2-8.3-4.9-7.3-6.4s4.4,1,7.3-.9S106,181.8,102.5,183Zm-27,4.3c-.8-3.7-1.1-10,.4-11.5s4.9-.9,4.8.2c-.3,4.3-2.1,9.2,1.2,14.1C83.2,192,76.7,192.3,75.5,187.3Zm11.4,4.2c-1.6-.4-6-7.4-2.4-15.8.3-.8,5.8-.3,6.8,0s-.8,6.8,6.8,9.8C98.8,185.8,98,194.3,86.9,191.5Zm47.2-23.3c-2.5,8.8-3.8,12.3,0,21.9.5,1.3.9,2.3-.2,2.1-7.7-1.4-9.4-2.6-33.7-.6-1.7.2.6-3.4.3-5.8,2.2-.3,5.8-1.3,6.5-4.9s-2.1-7.6-1.8-8.2c3.5-6.7-.2-14.1-3.1-26.6-.3-1.2.4-1.7.9-1.1,15.6,16.9,25.5,20.2,30.9,21.8C134.4,167,134.3,167.6,134.1,168.2ZM174,122.1c-3.3,2.9-8.3,3.1-10.3,4.9s-1.5,2.5-.4,5.2,1.1,1.7-1.1,2.3-4.1,5.8-8.8,4.9c-1.8-.3-.5.8.2.9,2.6.3,3.7-.5,4.6-1.4s2.2-2.4,3.6-2.9,2.9-.5,3,.6-1.9,2.1-2.7,2.5c1,.5,3.9,1.9,1.4,3.6s-4.6-.5-4.9-.7-1.7-.2-1.3.3,5.2,1.3,4.5,2.2c-3.5,4.7-.6,7.5-1.7,12.3s-7.7,7.5-12.8,8.4c-17.4,3.1-34.3-11.6-44.2-22.8.9-2.1.8-4.8-.1-3.8s-.7,2.4-2.8,2.9c-3.9,1-5.7-5.9-6.9-7.1-4.8-4.7-6.7-11.4-3.9-17.3s9-4.7,11.4-1.1,1.7,7,3.4,8.3,4.8.2,5.4,0,1.7,4.3,8,4.1,5.9-10.7,6.9-11.6c8.6-8.4,4.2-15.9,2.6-17.6s1-3.6,1.5-3.7a13,13,0,0,0,9.4-7.7s8.4-.2,11.4-6.2c.8-1.6,3.3,1.5,8.9-2.9a.8.8,0,0,1,1.4.3c3.7,8.9,5.2,11.3,4.9,15.8s8.7,21.5,9.4,23.1S174.8,121.3,174,122.1Z"/><path class="minerva-base-style" d="M153.8,90c-4.9.2-10.6,6.2-12.4,7s-1.3,1.5-.2,1.1,5.9-4.7,10.7-6.4,3.6,1.8,5,1.6S156.6,89.9,153.8,90Z"/><path class="minerva-base-style" d="M154.9,94.8c-.4.1.4,2.2-1.7,2.3-4.6.3-8.3,4.7-11.1,6a12.9,12.9,0,0,1-3.8,1.4.3.3,0,0,0,.1.6c11.7,1.6,16.2,1.1,16.3.7s-.6-1.2-.4-1.7a11.3,11.3,0,0,0,.1-5.5c-.2-.8,1.8-.3,1.8-1.3S155.6,94.7,154.9,94.8Zm-1.8,9.3c-.2.9-5.5.5-8.3.2-.7,0-1.8-.1.3-1.4s4.1-2.8,7.2-3.4a.8.8,0,0,1,.8.6A10.6,10.6,0,0,1,153.1,104.1Z"/><path class="minerva-base-style" d="M168.4,120.8c-.9,0-4.5,1.6-5.9,2.5s-4.4,2.7-4.2-.8c.1-1.3.9-4.4.9-5.3s-1-.7-1.1,0a36.9,36.9,0,0,1-.7,5.3c-.4,1.8,1.2,4,3.6,2.7s4.8-2.9,7.3-3.4C168.9,121.7,169,120.8,168.4,120.8Z"/><path class="minerva-base-style" d="M100.5,133.6c-.7-.3-.5,1.2-1.4,1s-.2-1.3-1.8-3-2.8-1.2-4.3-3.6-.3-12,3.1-10.8,1.6,5,1,8,2.5,2.8,2.8,2.1-1.1-.9-1.4-1.9,3.5-7.6-1.8-9.4c-3.8-1.3-6.4,3.6-5.9,8.9a8,8,0,0,0,5.1,7.1c2.3.8.6,4,3.7,4C101,136,101.3,133.9,100.5,133.6Z"/><path class="minerva-base-style" d="M131.3,33.4c.2.1.3,0,.5-.1l6.5-8.3a.5.5,0,0,0-.2-.6L137,24a.4.4,0,0,0-.5.1L130,32.4c-.2.2-.1.5.2.6Z"/><path class="minerva-base-style" d="M119.2,30l1.1.3a.5.5,0,0,0,.5-.3l3.8-9.4a.4.4,0,0,0-.3-.6l-1.2-.2h-.3l-3.9,9.6A.4.4,0,0,0,119.2,30Z"/><path class="minerva-base-style" d="M105.8,28.7h1.1c.2.1.4-.1.4-.3l1-10a.5.5,0,0,0-.4-.5h-1.1c-.3,0-.4.2-.5.4l-.9,10A.4.4,0,0,0,105.8,28.7Z"/><path class="minerva-base-style" d="M92.8,29.7l1.1-.2c.2,0,.4-.2.3-.4l-1.9-9.9c0-.2-.2-.4-.4-.3H90.7c-.2.1-.4.3-.3.5l1.9,9.9C92.3,29.6,92.5,29.7,92.8,29.7Z"/><path class="minerva-base-style" d="M79.4,32.8l.5.2,1.1-.4a.4.4,0,0,0,.3-.6l-4.6-9a.4.4,0,0,0-.5-.2l-1,.3a.4.4,0,0,0-.3.6Z"/><path class="minerva-base-style" d="M67,38.5c.1.2.3.2.5.1l1-.6a.4.4,0,0,0,.1-.6l-6.7-7.7c-.2-.2-.4-.2-.5-.1l-1,.6c-.3.1-.3.4-.1.6Z"/><path class="minerva-base-style" d="M55.4,46.7c.2.1.4.1.5-.1l.9-.7a.5.5,0,0,0,0-.7l-8.5-5.9h-.5l-.9.8a.5.5,0,0,0,0,.7Z"/><path class="minerva-base-style" d="M45.4,57.1a.4.4,0,0,0,.4-.2l.8-.9c.2-.2.1-.5-.2-.6l-9.8-3.8c-.2-.1-.4-.1-.5.1l-.7.9a.4.4,0,0,0,.2.7Z"/><path class="minerva-base-style" d="M26.8,67.8l10.5,1.5c.2,0,.4-.1.4-.3l.6-1a.4.4,0,0,0-.3-.6L27.5,65.9l-.5.2a5.4,5.4,0,0,1-.5,1.1A.4.4,0,0,0,26.8,67.8Z"/><path class="minerva-base-style" d="M21.1,83.7l10.7-1a.3.3,0,0,0,.3-.3,7.6,7.6,0,0,0,.4-1.1.4.4,0,0,0-.4-.6l-10.8,1-.4.3-.3,1.2C20.6,83.5,20.8,83.8,21.1,83.7Z"/><path class="minerva-base-style" d="M29.2,96.5c0-.4.1-.9.1-1.3s-.2-.5-.5-.4L18.4,98.4c-.2.1-.3.2-.3.4s-.1.8-.1,1.2a.4.4,0,0,0,.6.4l10.3-3.6A.3.3,0,0,0,29.2,96.5Z"/><path class="minerva-base-style" d="M28.9,110.8v-1.3a.5.5,0,0,0-.7-.4l-9.4,6.3c-.2,0-.2.2-.2.4s.1.8.1,1.2a.5.5,0,0,0,.7.3l9.4-6.2C28.9,111,29,110.9,28.9,110.8Z"/><path class="minerva-base-style" d="M31.3,125l-.3-1.3a.4.4,0,0,0-.7-.2L22.6,132c-.1.1-.2.3-.1.4s.3.8.4,1.2a.4.4,0,0,0,.7.2l7.6-8.4C31.3,125.3,31.3,125.2,31.3,125Z"/><path class="minerva-base-style" d="M35.2,137.7,29.8,148c-.1.1,0,.3,0,.4l.7,1.2a.4.4,0,0,0,.7-.1l5.4-10.2c0-.1.1-.2,0-.4l-.6-1.2A.5.5,0,0,0,35.2,137.7Z"/><path class="minerva-base-style" d="M42.9,149.3c-.2-.3-.7-.2-.7.1l-2.9,12c-.1.2,0,.3,0,.4l1,1a.4.4,0,0,0,.7-.1l2.8-11.9c.1-.1,0-.2,0-.3Z"/></g><g transform="translate(366.666 41.434619)"><g transform="translate(0 99.060381)" style="fill: #006c66;"><path d="M42.578-36L42.578-25.750L18.203-25.750L18.203 0L5.500 0L5.500-62L45.625-62L45.625-51.719L18.203-51.719L18.203-36L42.578-36ZM95.859 0L84.313-22.719L74.203-22.719L74.203 0L61.500 0L61.500-62L84.391-62Q95.313-62 101.234-57.104Q107.156-52.207 107.156-43.279L107.156-43.279Q107.156-36.929 104.430-32.692Q101.703-28.456 96.156-25.941L96.156-25.941L109.484-0.598L109.484 0L95.859 0ZM74.203-51.719L74.203-33L84.438-33Q89.219-33 91.844-35.460Q94.469-37.921 94.469-42.257L94.469-42.257Q94.469-46.671 91.992-49.195Q89.516-51.719 84.391-51.719L84.391-51.719L74.203-51.719ZM139-62L139 0L126.313 0L126.313-62L139-62ZM204.875-62L204.875-51.719L186.016-51.719L186.016 0L173.313 0L173.313-51.719L154.688-51.719L154.688-62L204.875-62ZM264.344-54.734L233.953-10.203L265.016-10.203L265.016 0L218.094 0L218.094-7.453L248.563-51.719L218.125-51.719L218.125-62L264.344-62L264.344-54.734ZM304.484-31L304.484-21.141L280.656-21.141L280.656-31L304.484-31ZM374.641-62L374.641 0L361.953 0L361.953-26.766L337.203-26.766L337.203 0L324.500 0L324.500-62L337.203-62L337.203-37L361.953-37L361.953-62L374.641-62ZM433.563 0L429.281-12.719L407.031-12.719L402.797 0L389.297 0L412.234-62L424-62L447.063 0L433.563 0ZM418.109-46.339L410.453-23L425.859-23L418.109-46.339ZM485.453 0L461.500 0L461.500-62L483.078-62Q494.297-62 500.094-57.684Q505.891-53.368 505.891-45.019L505.891-45.019Q505.891-40.460 503.563-36.985Q501.234-33.510 497.094-31.906L497.094-31.906Q501.828-30.711 504.563-27.087Q507.297-23.462 507.297-18.225L507.297-18.225Q507.297-9.278 501.625-4.678Q495.953-0.079 485.453 0L485.453 0ZM485.828-27.031L474.203-27.031L474.203-10.203L485.078-10.203Q489.563-10.203 492.078-12.362Q494.594-14.521 494.594-18.333L494.594-18.333Q494.594-26.905 485.828-27.031L485.828-27.031ZM474.203-51.719L474.203-36L483.594-36Q493.203-36.174 493.203-43.749L493.203-43.749Q493.203-48.003 490.766-49.861Q488.328-51.719 483.078-51.719L483.078-51.719L474.203-51.719ZM562.578-37L562.578-27.063L538.203-27.063L538.203-10.203L566.797-10.203L566.797 0L525.500 0L525.500-62L566.719-62L566.719-51.719L538.203-51.719L538.203-37L562.578-37ZM617.859 0L606.313-22.719L596.203-22.719L596.203 0L583.500 0L583.500-62L606.391-62Q617.313-62 623.234-57.104Q629.156-52.207 629.156-43.279L629.156-43.279Q629.156-36.929 626.430-32.692Q623.703-28.456 618.156-25.941L618.156-25.941L631.484-0.598L631.484 0L617.859 0ZM596.203-51.719L596.203-33L606.438-33Q611.219-33 613.844-35.460Q616.469-37.921 616.469-42.257L616.469-42.257Q616.469-46.671 613.992-49.195Q611.516-51.719 606.391-51.719L606.391-51.719L596.203-51.719ZM670.484-31L670.484-21.141L646.656-21.141L646.656-31L670.484-31ZM703-62L703 0L690.313 0L690.313-62L703-62ZM773.609-62L773.609 0L760.906 0L736.203-40.804L736.203 0L723.500 0L723.500-62L736.203-62L760.953-21.117L760.953-62L773.609-62ZM825.453-15.963L825.453-15.963Q825.453-19.529 822.914-21.436Q820.375-23.344 813.773-25.468Q807.172-27.593 803.313-29.660L803.313-29.660Q792.828-35.289 792.828-44.851L792.828-44.851Q792.828-49.826 795.641-53.721Q798.453-57.615 803.719-59.808Q808.984-62 815.547-62L815.547-62Q822.156-62 827.313-59.613Q832.469-57.227 835.328-52.897Q838.188-48.567 838.188-43.047L838.188-43.047L825.500-43.047Q825.500-47.237 822.828-49.556Q820.156-51.875 815.344-51.875L815.344-51.875Q810.688-51.875 808.102-49.930Q805.516-47.985 805.516-44.820L805.516-44.820Q805.516-41.841 808.547-39.834Q811.578-37.827 817.453-36.052L817.453-36.052Q828.281-32.814 833.234-28.003Q838.188-23.193 838.188-16.032L838.188-16.032Q838.188-8.061 832.141-3.530Q826.094 1 815.844 1L815.844 1Q808.734 1 802.898-1.589Q797.063-4.177 793.992-8.686Q790.922-13.195 790.922-19.119L790.922-19.119L803.656-19.119Q803.656-9.031 815.844-9.031L815.844-9.031Q820.375-9.031 822.914-10.853Q825.453-12.675 825.453-15.963ZM901.875-62L901.875-51.719L883.016-51.719L883.016 0L870.313 0L870.313-51.719L851.688-51.719L851.688-62L901.875-62ZM931-62L931 0L918.313 0L918.313-62L931-62ZM996.875-62L996.875-51.719L978.016-51.719L978.016 0L965.313 0L965.313-51.719L946.688-51.719L946.688-62L996.875-62ZM1046.391-62L1059.141-62L1059.141-21.067Q1059.141-10.869 1052.813-4.934Q1046.484 1 1035.516 1L1035.516 1Q1024.734 1 1018.383-4.761Q1012.031-10.522 1011.906-20.594L1011.906-20.594L1011.906-62L1024.609-62L1024.609-20.918Q1024.609-14.792 1027.508-11.998Q1030.406-9.203 1035.516-9.203L1035.516-9.203Q1046.234-9.203 1046.391-20.571L1046.391-20.571L1046.391-62ZM1124.875-62L1124.875-51.719L1106.016-51.719L1106.016 0L1093.313 0L1093.313-51.719L1074.688-51.719L1074.688-62L1124.875-62Z"/></g><g transform="translate(0 179.070381)" style="fill: #006c66;"><path d="M5.781-50L14.250-50L30.516-9.199L46.797-50L55.297-50L55.297 0L48.734 0L48.734-19.466L49.359-40.487L33.016 0L28 0L11.688-40.392L12.344-19.466L12.344 0L5.781 0L5.781-50ZM103.016 0L98.250-12.594L77.406-12.594L72.719 0L65.953 0L84.969-50L90.703-50L109.734 0L103.016 0ZM87.828-41.868L79.391-18L96.313-18L87.828-41.868ZM123.016-50L135.016-30.832L146.938-50L154.672-50L138.938-25.212L155.047 0L147.250 0L135.016-19.513L122.703 0L114.953 0L131.078-25.212L115.328-50L123.016-50ZM175.938-24L175.938-18.844L159.266-18.844L159.266-24L175.938-24ZM204.063-19.641L192.344-19.641L192.344 0L185.781 0L185.781-50L204.125-50Q212.297-50 216.930-45.817Q221.563-41.635 221.563-34.758L221.563-34.758Q221.563-27.489 217.031-23.565Q212.500-19.641 204.063-19.641L204.063-19.641ZM192.344-44.594L192.344-25L204.125-25Q209.391-25 212.195-27.494Q215-29.989 215-34.679L215-34.679Q215-39.150 212.195-41.825Q209.391-44.500 204.500-44.594L204.500-44.594L192.344-44.594ZM239.375-50L239.375-5.359L262.953-5.359L262.953 0L232.781 0L232.781-50L239.375-50ZM306.016 0L301.250-12.594L280.406-12.594L275.719 0L268.953 0L287.969-50L293.703-50L312.734 0L306.016 0ZM290.828-41.868L282.391-18L299.313-18L290.828-41.868ZM361.031-50L361.031 0L354.422 0L329.375-38.524L329.375 0L322.781 0L322.781-50L329.375-50L354.500-11.303L354.500-50L361.031-50ZM404.781-15.484L411.391-15.484Q410.453-7.578 405.555-3.289Q400.656 1 392.516 1L392.516 1Q383.703 1 378.383-5.311Q373.063-11.621 373.063-22.186L373.063-22.186L373.063-26.954Q373.063-33.873 375.547-39.124Q378.031-44.375 382.570-47.187Q387.109-50 393.094-50L393.094-50Q401.031-50 405.813-45.570Q410.594-41.141 411.391-33.313L411.391-33.313L404.781-33.313Q403.938-39.266 401.078-41.930Q398.219-44.594 393.094-44.594L393.094-44.594Q386.813-44.594 383.242-39.962Q379.672-35.329 379.672-26.781L379.672-26.781L379.672-21.985Q379.672-13.904 383.055-9.140Q386.438-4.375 392.516-4.375L392.516-4.375Q397.984-4.375 400.906-6.852Q403.828-9.328 404.781-15.484L404.781-15.484ZM454.063 0L436.422-23.250L430.344-16.892L430.344 0L423.781 0L423.781-50L430.344-50L430.344-25.275L452.453-50L460.391-50L440.797-27.912L461.922 0L454.063 0ZM479.938-24L479.938-18.844L463.266-18.844L463.266-24L479.938-24ZM526.516-24L526.516-6.086Q523.984-2.528 519.461-0.764Q514.938 1 508.922 1L508.922 1Q502.828 1 498.117-1.852Q493.406-4.703 490.820-9.946Q488.234-15.190 488.172-22.108L488.172-22.108L488.172-26.440Q488.172-37.659 493.414-43.830Q498.656-50 508.172-50L508.172-50Q515.953-50 520.703-46.016Q525.453-42.031 526.516-34.719L526.516-34.719L519.953-34.719Q518.109-44.594 508.203-44.594L508.203-44.594Q501.609-44.594 498.203-39.977Q494.797-35.360 494.766-26.610L494.766-26.610L494.766-22.561Q494.766-14.216 498.594-9.295Q502.422-4.375 508.953-4.375L508.953-4.375Q512.641-4.375 515.414-5.169Q518.188-5.964 519.984-7.840L519.984-7.840L519.984-18.672L508.469-18.672L508.469-24L526.516-24ZM568.906-29L568.906-23.625L547.344-23.625L547.344-5.359L572.391-5.359L572.391 0L540.781 0L540.781-50L572.047-50L572.047-44.594L547.344-44.594L547.344-29L568.906-29ZM597.438-21.812L597.438-21.812Q589-24.227 585.156-27.757Q581.313-31.286 581.313-36.459L581.313-36.459Q581.313-42.334 586.008-46.167Q590.703-50 598.219-50L598.219-50Q603.359-50 607.375-48.016Q611.391-46.031 613.594-42.547Q615.797-39.063 615.797-34.922L615.797-34.922L609.203-34.922Q609.203-39.438 606.328-42.016Q603.453-44.594 598.219-44.594L598.219-44.594Q593.375-44.594 590.656-42.470Q587.938-40.347 587.938-36.567L587.938-36.567Q587.938-33.533 590.516-31.441Q593.094-29.349 599.297-27.614Q605.500-25.880 609.008-23.783Q612.516-21.686 614.203-18.887Q615.891-16.088 615.891-12.300L615.891-12.300Q615.891-6.266 611.180-2.633Q606.469 1 598.563 1L598.563 1Q593.438 1 588.992-0.969Q584.547-2.938 582.141-6.352Q579.734-9.766 579.734-14.109L579.734-14.109L586.328-14.109Q586.328-9.594 589.664-6.984Q593-4.375 598.563-4.375L598.563-4.375Q603.766-4.375 606.531-6.484Q609.297-8.594 609.297-12.236Q609.297-15.879 606.734-17.872Q604.172-19.864 597.438-21.812ZM655.906-29L655.906-23.625L634.344-23.625L634.344-5.359L659.391-5.359L659.391 0L627.781 0L627.781-50L659.047-50L659.047-44.594L634.344-44.594L634.344-29L655.906-29ZM676.375-50L676.375-5.359L699.953-5.359L699.953 0L669.781 0L669.781-50L676.375-50ZM717.375-50L717.375-5.359L740.953-5.359L740.953 0L710.781 0L710.781-50L717.375-50ZM765.438-21.812L765.438-21.812Q757-24.227 753.156-27.757Q749.313-31.286 749.313-36.459L749.313-36.459Q749.313-42.334 754.008-46.167Q758.703-50 766.219-50L766.219-50Q771.359-50 775.375-48.016Q779.391-46.031 781.594-42.547Q783.797-39.063 783.797-34.922L783.797-34.922L777.203-34.922Q777.203-39.438 774.328-42.016Q771.453-44.594 766.219-44.594L766.219-44.594Q761.375-44.594 758.656-42.470Q755.938-40.347 755.938-36.567L755.938-36.567Q755.938-33.533 758.516-31.441Q761.094-29.349 767.297-27.614Q773.500-25.880 777.008-23.783Q780.516-21.686 782.203-18.887Q783.891-16.088 783.891-12.300L783.891-12.300Q783.891-6.266 779.180-2.633Q774.469 1 766.563 1L766.563 1Q761.438 1 756.992-0.969Q752.547-2.938 750.141-6.352Q747.734-9.766 747.734-14.109L747.734-14.109L754.328-14.109Q754.328-9.594 757.664-6.984Q761-4.375 766.563-4.375L766.563-4.375Q771.766-4.375 774.531-6.484Q777.297-8.594 777.297-12.236Q777.297-15.879 774.734-17.872Q772.172-19.864 765.438-21.812ZM825.781-15.484L832.391-15.484Q831.453-7.578 826.555-3.289Q821.656 1 813.516 1L813.516 1Q804.703 1 799.383-5.311Q794.063-11.621 794.063-22.186L794.063-22.186L794.063-26.954Q794.063-33.873 796.547-39.124Q799.031-44.375 803.570-47.187Q808.109-50 814.094-50L814.094-50Q822.031-50 826.813-45.570Q831.594-41.141 832.391-33.313L832.391-33.313L825.781-33.313Q824.938-39.266 822.078-41.930Q819.219-44.594 814.094-44.594L814.094-44.594Q807.813-44.594 804.242-39.962Q800.672-35.329 800.672-26.781L800.672-26.781L800.672-21.985Q800.672-13.904 804.055-9.140Q807.438-4.375 813.516-4.375L813.516-4.375Q818.984-4.375 821.906-6.852Q824.828-9.328 825.781-15.484L825.781-15.484ZM882.031-50L882.031 0L875.422 0L875.422-22.625L850.344-22.625L850.344 0L843.781 0L843.781-50L850.344-50L850.344-28L875.422-28L875.422-50L882.031-50ZM929.016 0L924.250-12.594L903.406-12.594L898.719 0L891.953 0L910.969-50L916.703-50L935.734 0L929.016 0ZM913.828-41.868L905.391-18L922.313-18L913.828-41.868ZM973.219-27L973.219-21.641L952.344-21.641L952.344 0L945.781 0L945.781-50L976.609-50L976.609-44.594L952.344-44.594L952.344-27L973.219-27ZM1022.156-50L1022.156-44.594L1006.172-44.594L1006.172 0L999.641 0L999.641-44.594L983.672-44.594L983.672-50L1022.156-50Z"/></g></g></svg>