<svg width="1492" height="300" viewBox="0 0 1492 300" fill="none" xmlns="http://www.w3.org/2000/svg">
<path d="M150 0C120.333 0 91.3319 8.79735 66.6645 25.2796C41.9972 41.7618 22.7713 65.1886 11.4181 92.5975C0.0649929 120.006 -2.90551 150.166 2.88228 179.264C8.67006 208.361 22.9562 235.088 43.9341 256.066C64.9119 277.044 91.6394 291.33 120.737 297.118C149.834 302.906 179.994 299.935 207.403 288.582C234.812 277.229 258.238 258.003 274.721 233.336C291.203 208.668 300 179.667 300 150C299.962 110.229 284.147 72.098 256.024 43.9758C227.902 15.8535 189.771 0.037823 150 0ZM150 295.857C121.152 295.857 92.9523 287.303 68.9662 271.276C44.9801 255.249 26.2852 232.469 15.2456 205.817C4.20606 179.165 1.3176 149.838 6.94553 121.545C12.5735 93.2512 26.465 67.2619 46.8635 46.8634C67.262 26.4649 93.2512 12.5734 121.545 6.94546C149.838 1.31753 179.165 4.20599 205.817 15.2456C232.469 26.2852 255.249 44.98 271.276 68.9661C287.303 92.9522 295.857 121.152 295.857 150C295.819 188.672 280.44 225.749 253.095 253.095C225.75 280.44 188.672 295.819 150 295.857Z" fill="#006C66"/>
<path d="M238 138.571C236 134.143 237.286 131.286 236.714 128.143C236.143 125 232.857 118.143 230.571 112.714C229.571 110.286 236 110.857 231.143 101.857C231.143 101.571 237.857 98.9998 231.143 93.9998C227.759 91.3231 224.86 88.0856 222.571 84.4284C222.35 84.1696 222.228 83.8403 222.228 83.4998C222.228 83.1593 222.35 82.83 222.571 82.5712C226.429 79.1427 226.571 74.2855 222.429 71.8569C218.286 69.4284 216 71.8569 212.857 73.8569C211.857 74.5712 211.286 74.9998 210.143 74.5712L207.571 72.8569C211.429 69.1427 212.286 65.4284 212 64.8569C211.714 64.2855 205.429 62.9998 197.429 66.2855L196.857 65.8569C200.143 60.2855 198.286 56.2855 198.143 55.9998H198C203.173 49.0217 209.115 42.6482 215.714 36.9998H215.857C216.143 36.5712 216.286 36.1427 215.571 35.7141L214.143 34.8569C194.071 23.7295 171.444 18.0276 148.495 18.314C125.547 18.6004 103.069 24.8651 83.2811 36.49C63.4927 48.115 47.0772 64.6984 35.6543 84.604C24.2313 104.51 18.1957 127.05 18.1428 150C18.1428 192.143 39.5714 232.714 74.4285 258C75.6657 258.919 77.0087 259.686 78.4285 260.286C78.6921 260.383 78.9769 260.407 79.2533 260.357C79.5296 260.307 79.7875 260.184 80 260L80.4285 259.286C80.58 259.139 80.6969 258.96 80.771 258.762C80.8451 258.565 80.8745 258.353 80.8571 258.143C80.8571 257.143 79.5714 256.286 77.8571 253.857C73.5704 247.472 71.2372 239.976 71.1428 232.286C71.0372 225.226 73.3006 218.336 77.5714 212.714C82.8571 218.286 94.2857 228.286 94 237.571C93.7143 246.857 84.1428 247.286 86.2857 255C87.5714 259.857 91.1428 257.857 91.8571 261.571C92.8571 267.857 101.429 272 105.143 271.428C106.143 271.286 106.857 272 108.571 273.857C110.286 275.714 117.429 276.143 120.286 275.571C123.143 275 126.143 277.571 131.714 276.857C137.286 276.143 140.429 275.571 143.429 275.571C146.429 275.571 175.571 275.143 194.857 278.143C198.286 278.714 199.286 277.143 197.857 274.571C190.857 262.286 189.857 252 193.857 238.857C201 239.428 211.286 241.286 224.714 233.143C226.991 231.696 228.858 229.688 230.134 227.311C231.41 224.934 232.053 222.269 232 219.571C231.857 216.571 230.571 212.857 231.286 210C232 207.143 233.143 206.143 234.286 205.428C239.429 201.714 235.714 198.857 234.857 198.571C235.921 197.894 236.679 196.83 236.973 195.604C237.266 194.377 237.071 193.085 236.429 192C235.429 191 232.571 183.143 235.857 181.571C239.143 180 243.429 179 247.429 177.143C248.225 176.816 248.948 176.332 249.554 175.721C250.16 175.109 250.637 174.382 250.957 173.583C251.277 172.783 251.433 171.928 251.416 171.067C251.399 170.206 251.209 169.357 250.857 168.571C248.857 163.428 238.286 139.143 238 138.571ZM92.4285 255.857C91.4285 256.143 88.2857 256.286 89 252C89.7143 247.714 92.2857 248.286 93.7142 249.714C95.1428 251.143 92.7142 253.714 92.4285 255.857ZM216.714 75.9998C218.429 74.8569 220.286 74.4284 221.429 75.4284C225.143 79.1427 217.286 81.2855 218.857 84.1427C221.658 88.7691 225.291 92.8375 229.571 96.1427C231.286 97.5712 231.571 100.571 224.857 102C218.143 103.428 191.143 110.428 176.857 125.571C159 144.428 147.714 168.857 146.143 165.571C144.571 162.286 141 161.571 141.571 160.571C167.143 116.571 207.286 81.8569 216.714 75.9998ZM228.429 107C227 111.143 215.429 114.857 216 112C216.571 109.143 216 108.857 216.857 108.714C217.714 108.571 221.857 107.143 227.571 105.714C228.143 105.571 228.857 105.857 228.429 107ZM199 114.571C198.714 112.857 211.143 108.714 211.571 109.857C212 111 209 118.428 204.857 119.857C200.714 121.286 198.143 121.143 198.286 120.428C198.891 118.539 199.134 116.551 199 114.571ZM170 179.714C164.286 183.286 161.143 176.571 160.286 175.286C159.849 174.645 159.559 173.916 159.435 173.151C159.312 172.385 159.358 171.602 159.571 170.857C160 168.857 160.286 166.143 159 157.571C158.429 153.714 166.143 144.428 168 142.714C169.857 141 172.429 143.571 172.571 146.428C173 151.571 170 154.428 167 156.714C164 159 162.571 163 163.286 164C163.816 164.184 164.398 164.152 164.906 163.912C165.413 163.672 165.806 163.241 166 162.714C168.143 158 174.571 155.714 175.571 153.143C176.571 150.571 176 146.857 175.857 145.143C175.714 143.428 177.143 143.428 178.143 143.571C179.143 143.714 180.143 145.571 180.714 147.428C184.857 158.143 174.571 164.571 172.857 167.143C171.143 169.714 174.429 177 170 179.714ZM178.714 138.143C175.571 140.286 171.143 137.428 172 136.143C176.468 129.943 182.037 124.617 188.429 120.428C193.286 117.428 193.857 117.143 194.143 118.857C194.339 122.775 193.008 126.616 190.429 129.571C187.143 133.143 183.857 132.857 182.143 133.286C180.429 133.714 181 136.571 178.714 138.143ZM151.143 174.714C149.714 174.428 149.143 171.714 149.429 170.571C149.714 169.428 153.857 163.143 155.143 161.428C155.239 161.353 155.354 161.303 155.475 161.284C155.596 161.266 155.72 161.278 155.835 161.321C155.95 161.364 156.051 161.436 156.13 161.53C156.209 161.624 156.263 161.736 156.286 161.857C157.143 167.714 156.286 175.857 151.143 174.714ZM197.143 68.8569C200.504 67.3212 204.162 66.541 207.857 66.5712C209 66.7141 205.143 73.4284 198.429 76.2855C191.714 79.1427 186.286 79.8569 185.714 79.5712C185.143 79.2855 191.571 71.2855 197.143 68.8569ZM78.1428 180.714C76 178.286 74.1428 177 74 177.143C71.3869 180.959 69.6324 185.297 68.8571 189.857C62.3592 177.536 58.6984 163.918 58.1428 150C56.1428 99.4284 98.5714 58.7141 150.286 58.8569C161.288 58.8554 172.175 61.0912 182.286 65.4284C180.149 68.3459 178.374 71.5119 177 74.8569C177 72.1427 176.286 69.9998 176.429 68.2855C176.571 66.5712 169.143 69.5712 162.571 80.1427C161.163 82.5014 160.105 85.0517 159.429 87.7141C159.286 83.7141 158.429 80.7141 158.143 80.7141C152.599 83.1434 148.236 87.6604 146 93.2855C145.348 94.8601 144.822 96.4843 144.429 98.1427C144.143 95.4284 143.429 93.5712 143.143 93.5712C142.857 93.5712 134.714 96.8569 130.857 106.286C129.998 108.382 129.468 110.599 129.286 112.857C128.571 109.571 127.286 107.571 126.857 108C124.143 111.428 118.714 113 116 121.714C115.344 123.647 115.006 125.673 115 127.714C113.857 124.857 112.143 123.143 111.714 123.143C111.286 123.143 103 131 101.714 138.714C101.297 141.47 101.394 144.279 102 147C100.429 144.428 98.4285 142.714 97.5714 140.143C96.2857 140.857 89.4285 147.286 89.2857 155.428C89.1615 158.368 89.4989 161.308 90.2857 164.143C88 160 84.8571 158.143 84.4285 158.286C84 158.428 78.7143 164.143 77.5714 174.143C77.3273 176.349 77.5215 178.583 78.1428 180.714ZM184 66.8569C188 61.9998 194.857 58.1427 195.714 58.5712C196.571 58.9998 194.571 66.5712 190.143 70.8569C185.714 75.1427 178.571 79.7141 177.857 79.5712C177.143 79.4284 180.286 71.1427 184 66.8569ZM170.714 85.4284C167.452 87.8985 164.729 91.0099 162.714 94.5712C162 95.8569 160 87.4284 165.143 79.4284C168.286 74.4284 174.571 69.9998 174.429 70.5712C174.286 71.1427 177.429 79.9998 170.714 85.4284ZM156.286 96.1427C151.429 103.428 151.143 100.857 145.857 108C145.571 108.286 145.571 98.7141 147.429 94.5712C150.429 87.8569 155.571 83.9998 156.286 83.8569C157 83.7141 159 92.1427 156.286 96.1427ZM140.429 110.571C138 114.857 135.714 113.857 131.571 120.143C131.143 120.714 130 115 132.571 107.143C134.058 102.924 137.063 99.4098 141 97.2855C141.857 97.1427 143.429 105.428 140.429 110.571ZM125.714 125.857C123.143 131.428 121.571 131.571 118.571 135C118.143 135.571 116 129.714 118 122.428C120 115.143 123.714 114.428 125.571 112.428C127.429 110.428 128.429 120 125.714 125.857ZM113.714 135.286C113.736 136.734 113.543 138.179 113.143 139.571C111.286 145.714 107.571 148.428 105.571 151.143C104.282 148.554 103.506 145.74 103.286 142.857C103.335 139.819 104.022 136.825 105.302 134.069C106.582 131.312 108.425 128.856 110.714 126.857C111.857 126.857 113.714 131.428 113.714 135.286ZM101.571 153.571C101.487 156.506 100.796 159.392 99.5421 162.047C98.2882 164.703 96.4986 167.07 94.2857 169C92.4323 165.664 91.3578 161.952 91.1428 158.143C90.8571 149.143 94.5714 146 96.2857 144.286C97 146.857 101.571 148.857 101.571 153.571ZM84.2857 162.571C86.8571 163.857 89.8571 167.428 90.1428 174.286C90.4285 181.143 85.5714 186.714 83.5714 187.714C82.2857 182.428 79.8571 181.428 79.8571 176.286C79.9959 171.385 81.5324 166.627 84.2857 162.571ZM94.7143 180.428C101.286 177.571 108.429 178 108.714 178.286C109 178.571 106.571 186.714 100.286 190C94 193.286 86.7143 193.857 86 193C85.2857 192.143 88.1428 183.286 94.7143 180.428ZM94.1428 175.571C94.5714 173.428 98.4285 166.286 104.286 163.714C108.496 161.834 113.128 161.095 117.714 161.571C118.429 161.857 115.286 169.571 109.429 172.428C103.571 175.286 100.143 173.714 94.1428 175.571ZM104 158.714C104.286 158.143 109 149.571 114.571 147C118.562 145.235 122.946 144.545 127.286 145C127.714 145.143 124.714 152.714 118.429 155.857C112.143 159 103.714 159.428 104 158.714ZM116.714 141.714C116.286 141.428 123 132.571 128.714 129.857C132.506 128.285 136.659 127.79 140.714 128.428C141.143 128.857 138 136.286 131.429 139.143C126.77 141.062 121.748 141.939 116.714 141.714ZM132 124.857C131.714 124.571 136.857 115.857 142.571 113.571C148.286 111.286 153.571 113.428 155.286 113.571C157 113.714 153.429 120 145.857 122.714C138.286 125.428 133 125.286 132 124.857ZM149.143 108.571C149.286 108.143 155 100.143 160.714 98.1427C164.978 96.7951 169.539 96.696 173.857 97.8569C174.571 98.1427 169.857 105 162.857 107.143C155.857 109.286 149 109 149.143 108.571ZM166.429 94.4284C165.714 93.9998 172.571 86.2855 178.143 84.1427C181.928 82.7425 185.99 82.2531 190 82.7141C190.429 82.9998 186.429 89.7141 179.857 92.2855C173.286 94.8569 167.286 94.9998 166.429 94.4284ZM71.7143 250.428C40.8571 225.857 22.2857 188.714 22.2857 150C22.254 128.026 27.8985 106.417 38.6725 87.2658C49.4464 68.1147 64.9844 52.0712 83.7809 40.6899C102.577 29.3086 123.995 22.9753 145.958 22.3038C167.922 21.6322 189.686 26.6452 209.143 36.8569C209.241 36.8921 209.327 36.9532 209.393 37.0337C209.458 37.1142 209.501 37.2111 209.515 37.3139C209.53 37.4168 209.516 37.5217 209.476 37.6173C209.435 37.713 209.37 37.7959 209.286 37.8569C204.009 42.8947 199.136 48.3401 194.714 54.1427C180.734 47.5403 165.461 44.1248 150 44.1427C121.948 44.2181 95.0667 55.3951 75.231 75.2308C55.3952 95.0665 44.2182 121.948 44.1428 150C43.9149 175.315 53.018 199.827 69.7142 218.857C67.8801 223.094 66.9554 227.669 67 232.286C66.9685 238.64 68.5933 244.893 71.7143 250.428ZM72 215H71.8571C56.4837 196.856 48.1657 173.779 48.4285 150C48.4663 123.073 59.1797 97.2598 78.2199 78.2197C97.26 59.1795 123.073 48.4662 150 48.4284C164.593 48.3586 179.025 51.479 192.286 57.5712C190.206 58.5954 188.242 59.8407 186.429 61.2855C174.923 56.354 162.517 53.8727 150 53.9998C124.551 54.0376 100.155 64.164 82.1594 82.1593C64.1641 100.155 54.0378 124.551 54 150C54 173 61.1428 193.143 75.1428 210C74.4285 211.286 73.2857 213 72 215ZM77 207C75.1428 205.286 71.1428 200.857 70.7143 195.143V194.286C70.7143 188.143 73.4285 182 74.1428 181.428C74.8571 180.857 81.7143 186.143 81.8571 193.857C81.8259 198.671 80.1071 203.322 77 207ZM88.4285 196.714C94 194.143 102.143 194.714 101.714 195.143C101.286 195.571 99.1428 203.428 92.8571 206.571C89.094 208.728 84.6577 209.39 80.4285 208.428C83.7143 204.714 83 199.286 88.4285 196.714ZM95.8571 263.143C95 259.286 95.2857 254.143 96.5714 252.714C97.8571 251.286 103.571 251 103.714 252.571C103.857 254.143 102.143 260.286 104.143 267.143C103.714 268.143 97.5714 267.714 95.8571 263.143ZM96.2857 247.286C95.8571 244.428 98.5714 241.714 98.5714 235.571C98.5714 229.428 89.1428 217.571 82.7143 210.857C86.625 210.755 90.4704 209.83 94 208.143C103.429 203.714 105.286 193.714 105.571 193.286C103.809 192.78 101.972 192.586 100.143 192.714L101.286 192.143C110.429 187.143 112.857 176.428 112.429 176.286C110.547 175.918 108.629 175.774 106.714 175.857L109.571 174.857C119.286 171 122 160.143 121.714 159.714C120.074 159.341 118.397 159.15 116.714 159.143L119.429 158C128.286 153.571 131.429 143.571 131 143.286C129.469 142.846 127.877 142.653 126.286 142.714C128.495 142.217 130.648 141.499 132.714 140.571C142.286 136.428 145.429 127.286 145 126.857C143.612 126.42 142.169 126.179 140.714 126.143C142.848 125.664 144.948 125.043 147 124.286C156.429 121.143 160.143 112.143 159.571 112L154.286 110.857C157.499 110.674 160.672 110.049 163.714 109C173.857 105.571 177.429 99.4284 177.714 96.7141C176.709 96.1125 175.59 95.7236 174.429 95.5712C176.71 95.1864 178.956 94.613 181.143 93.8569C190.571 89.9998 194.571 80.5712 194.857 79.8569C196.767 79.2298 198.629 78.4659 200.429 77.5712L203.143 76.2855L205.429 77.8569C206.857 78.7141 207.429 78.9998 206.714 79.5712C174.286 107.143 150 142.143 139.429 159C139.143 159.571 138.571 159.428 137.571 159.428C126.286 158.571 119.857 172.143 124.857 184.857C124.286 187.428 118.857 192.428 118.429 192.714C118 193 117 194.714 118.857 194.571C120.714 194.428 124.857 190 126.571 188.143C127.143 189 129.714 191 128.429 192.143C122.529 198.03 115.847 203.077 108.571 207.143C104.857 208.857 114.571 210.143 131 195.286C132 194.428 133.143 198.714 134.571 200.571C131.714 209.857 138.714 227.857 137.571 233.428C137.534 234.464 137.097 235.445 136.35 236.165C135.604 236.884 134.608 237.286 133.571 237.286C117.286 237.714 115.714 236.857 107.429 239.286C103.571 240.428 104.571 243 107.286 242.286C110 241.571 113.857 240.143 131.429 241.286C135.857 241.428 140.714 240.428 140.714 233.143C140.714 225.857 135.571 206.857 137.286 204.143C138.734 205.26 140.466 205.953 142.286 206.143C142 212.571 152.286 233.286 147.714 244.714C146 249 138.571 248.571 125.714 247.286C103.857 245.143 96.7143 249.857 96.2857 247.286ZM146.429 261.428C138 264.286 134.571 254.428 136 252.286C137.429 250.143 142.286 253.714 146.429 251C150.571 248.286 151.429 259.714 146.429 261.428ZM107.857 267.571C106.714 262.286 106.286 253.286 108.429 251.143C110.571 249 115.429 249.857 115.286 251.428C114.857 257.571 112.286 264.571 117 271.571C118.857 274.286 109.571 274.714 107.857 267.571ZM124.143 273.571C121.857 273 115.571 263 120.714 251C121.143 249.857 129 250.571 130.429 251C131.857 251.428 129.286 260.714 140.143 265C141.143 265.428 140 277.571 124.143 273.571ZM191.571 240.286C188 252.857 186.143 257.857 191.571 271.571C192.286 273.428 192.857 274.857 191.286 274.571C180.286 272.571 177.857 270.857 143.143 273.714C140.714 274 144 268.857 143.571 265.428C146.714 265 151.857 263.571 152.857 258.428C153.857 253.286 149.857 247.571 150.286 246.714C155.286 237.143 150 226.571 145.857 208.714C145.429 207 146.429 206.286 147.143 207.143C169.429 231.286 183.571 236 191.286 238.286C192 238.571 191.857 239.428 191.571 240.286ZM248.571 174.428C243.857 178.571 236.714 178.857 233.857 181.428C231 184 231.714 185 233.286 188.857C234.857 192.714 234.857 191.286 231.714 192.143C228.571 193 225.857 200.428 219.143 199.143C216.571 198.714 218.429 200.286 219.429 200.428C223.143 200.857 224.714 199.714 226 198.428C227.286 197.143 229.143 195 231.143 194.286C233.143 193.571 235.286 193.571 235.429 195.143C235.571 196.714 232.714 198.143 231.571 198.714C233 199.428 237.143 201.428 233.571 203.857C230 206.286 227 203.143 226.571 202.857C226.143 202.571 224.143 202.571 224.714 203.286C225.286 204 232.143 205.143 231.143 206.428C226.143 213.143 230.286 217.143 228.714 224C227.143 230.857 217.714 234.714 210.429 236C185.571 240.428 161.429 219.428 147.286 203.428C148.571 200.428 148.429 196.571 147.143 198C145.857 199.428 146.143 201.428 143.143 202.143C137.571 203.571 135 193.714 133.286 192C126.429 185.285 123.714 175.714 127.714 167.286C131.714 158.857 140.571 160.571 144 165.714C147.429 170.857 146.429 175.714 148.857 177.571C151.286 179.428 155.714 177.857 156.571 177.571C157.429 177.286 159 183.714 168 183.428C177 183.143 176.429 168.143 177.857 166.857C190.143 154.857 183.857 144.143 181.571 141.714C179.286 139.286 183 136.571 183.714 136.428C186.679 135.827 189.452 134.511 191.793 132.594C194.133 130.677 195.97 128.217 197.143 125.428C197.143 125.428 209.143 125.143 213.429 116.571C214.571 114.286 218.143 118.714 226.143 112.428C226.275 112.262 226.452 112.137 226.652 112.065C226.852 111.994 227.068 111.979 227.275 112.024C227.483 112.068 227.674 112.17 227.828 112.317C227.981 112.464 228.09 112.651 228.143 112.857C233.429 125.571 235.571 129 235.143 135.428C234.714 141.857 247.571 166.143 248.571 168.428C249.571 170.714 249.714 173.286 248.571 174.428Z" fill="#006C66"/>
<path d="M219.714 128.572C212.714 128.857 204.571 137.429 202 138.572C199.429 139.714 200.143 140.714 201.714 140.143C203.286 139.572 210.143 133.429 217 131C223.857 128.572 222.143 133.572 224.143 133.286C226.143 133 223.714 128.429 219.714 128.572Z" fill="#006C66"/>
<path d="M221.286 135.429C220.714 135.572 221.857 138.572 218.857 138.714C212.286 139.143 207 145.429 203 147.286C201.307 148.234 199.475 148.909 197.571 149.286C197.458 149.305 197.356 149.368 197.289 149.462C197.222 149.556 197.195 149.672 197.214 149.786C197.233 149.9 197.297 150.001 197.39 150.068C197.484 150.135 197.601 150.162 197.714 150.143C214.429 152.429 220.857 151.714 221 151.143C221.143 150.572 220.143 149.429 220.429 148.714C221.123 146.147 221.172 143.448 220.571 140.857C220.286 139.714 223.143 140.429 223.143 139C223.143 137.572 222.286 135.286 221.286 135.429ZM218.714 148.714C218.429 150 210.857 149.429 206.857 149C205.857 149 204.286 148.857 207.286 147C210.286 145.143 213.143 143 217.571 142.143C217.831 142.135 218.086 142.215 218.293 142.371C218.501 142.527 218.65 142.749 218.714 143C219.077 144.888 219.077 146.827 218.714 148.714Z" fill="#006C66"/>
<path d="M240.571 172.571C239.286 172.571 234.143 174.857 232.143 176.143C230.143 177.428 225.857 180 226.143 175C226.286 173.143 227.429 168.714 227.429 167.428C227.429 166.143 226 166.428 225.857 167.428C225.707 169.973 225.373 172.503 224.857 175C224.286 177.571 226.571 180.714 230 178.857C233.429 177 236.857 174.714 240.429 174C241.286 173.857 241.429 172.571 240.571 172.571Z" fill="#006C66"/>
<path d="M143.571 190.857C142.571 190.429 142.857 192.572 141.571 192.286C140.286 192 141.286 190.429 139 188C136.714 185.572 135 186.286 132.857 182.857C130.714 179.429 132.429 165.714 137.286 167.429C142.143 169.143 139.571 174.572 138.714 178.857C137.857 183.143 142.286 182.857 142.714 181.857C143.143 180.857 141.143 180.572 140.714 179.143C140.286 177.714 145.714 168.286 138.143 165.714C132.714 163.857 129 170.857 129.714 178.429C129.814 180.644 130.556 182.782 131.849 184.583C133.143 186.384 134.933 187.77 137 188.572C140.286 189.714 137.857 194.286 142.286 194.286C144.286 194.286 144.714 191.286 143.571 190.857Z" fill="#006C66"/>
<path d="M187.571 47.7141C187.857 47.857 188 47.7141 188.286 47.5712L197.571 35.7141C197.63 35.5602 197.633 35.3908 197.581 35.2346C197.529 35.0784 197.425 34.945 197.286 34.8569L195.714 34.2855C195.597 34.2225 195.462 34.2023 195.331 34.2284C195.201 34.2545 195.084 34.3252 195 34.4284L185.714 46.2855C185.429 46.5712 185.571 46.9998 186 47.1427L187.571 47.7141Z" fill="#006C66"/>
<path d="M170.286 42.8571L171.857 43.2856C172.006 43.2979 172.155 43.2631 172.283 43.1863C172.411 43.1094 172.512 42.9942 172.571 42.8571L178 29.4285C178.048 29.3464 178.075 29.2535 178.078 29.1584C178.082 29.0632 178.061 28.9688 178.018 28.8836C177.976 28.7985 177.913 28.7253 177.834 28.6708C177.756 28.6162 177.666 28.5821 177.571 28.5714L175.857 28.2856H175.429L169.857 41.9999C169.809 42.082 169.782 42.1749 169.779 42.27C169.776 42.3652 169.796 42.4597 169.839 42.5448C169.881 42.63 169.945 42.7031 170.023 42.7577C170.101 42.8122 170.191 42.8464 170.286 42.8571Z" fill="#006C66"/>
<path d="M151.143 40.9999H152.714C153 41.1427 153.286 40.857 153.286 40.5713L154.714 26.2856C154.718 26.1185 154.662 25.9555 154.558 25.825C154.453 25.6945 154.307 25.6047 154.143 25.5713H152.571C152.143 25.5713 152 25.857 151.857 26.1427L150.571 40.4284C150.571 40.58 150.632 40.7253 150.739 40.8325C150.846 40.9397 150.991 40.9999 151.143 40.9999Z" fill="#006C66"/>
<path d="M132.571 42.4285L134.143 42.1428C134.429 42.1428 134.714 41.8571 134.571 41.5713L131.857 27.4285C131.857 27.1428 131.571 26.8571 131.286 26.9999H129.571C129.286 27.1428 129 27.4285 129.143 27.7142L131.857 41.8571C131.857 42.2856 132.143 42.4285 132.571 42.4285Z" fill="#006C66"/>
<path d="M113.429 46.8571L114.143 47.1428L115.714 46.5714C115.809 46.5607 115.899 46.5265 115.977 46.472C116.055 46.4174 116.119 46.3443 116.161 46.2591C116.204 46.174 116.224 46.0795 116.221 45.9843C116.218 45.8892 116.191 45.7963 116.143 45.7142L109.571 32.8571C109.509 32.7291 109.402 32.6289 109.27 32.576C109.138 32.5232 108.99 32.5215 108.857 32.5714L107.429 32.9999C107.334 33.0106 107.244 33.0448 107.166 33.0993C107.087 33.1539 107.024 33.227 106.982 33.3122C106.939 33.3974 106.919 33.4918 106.922 33.587C106.925 33.6821 106.952 33.775 107 33.8571L113.429 46.8571Z" fill="#006C66"/>
<path d="M95.7143 55C95.8571 55.2857 96.1429 55.2857 96.4286 55.1429L97.8571 54.2857C97.9279 54.2431 97.9886 54.1857 98.035 54.1174C98.0815 54.0491 98.1125 53.9716 98.1261 53.8901C98.1397 53.8086 98.1355 53.7252 98.1137 53.6455C98.0919 53.5658 98.0531 53.4918 98 53.4286L88.4286 42.4286C88.1429 42.1429 87.8571 42.1429 87.7143 42.2857L86.2857 43.1429C85.8571 43.2857 85.8571 43.7143 86.1428 44L95.7143 55Z" fill="#006C66"/>
<path d="M79.1428 66.7145C79.4285 66.8574 79.7142 66.8574 79.8571 66.5716L81.1428 65.5716C81.2737 65.4381 81.347 65.2586 81.347 65.0716C81.347 64.8847 81.2737 64.7052 81.1428 64.5716L69 56.1431H68.2857L67 57.2859C66.8691 57.4194 66.7958 57.599 66.7958 57.7859C66.7958 57.9729 66.8691 58.1524 67 58.2859L79.1428 66.7145Z" fill="#006C66"/>
<path d="M64.8571 81.5716C64.97 81.5863 65.0847 81.567 65.1865 81.516C65.2883 81.4651 65.3726 81.385 65.4285 81.2859L66.5714 80.0002C66.8571 79.7144 66.7142 79.2859 66.2857 79.143L52.2857 73.7144C52 73.5716 51.7142 73.5716 51.5714 73.8573L50.5714 75.143C50.4879 75.2141 50.4267 75.3077 50.395 75.4127C50.3633 75.5176 50.3625 75.6295 50.3926 75.7349C50.4227 75.8403 50.4825 75.9349 50.5649 76.0072C50.6472 76.0796 50.7487 76.1267 50.8571 76.143L64.8571 81.5716Z" fill="#006C66"/>
<path d="M38.2857 96.8574L53.2857 99.0002C53.5714 99.0002 53.8571 98.8573 53.8571 98.5716L54.7142 97.1431C54.7625 97.061 54.7894 96.9681 54.7926 96.873C54.7958 96.7778 54.7752 96.6833 54.7326 96.5982C54.69 96.513 54.6268 96.4398 54.5488 96.3853C54.4707 96.3308 54.3803 96.2966 54.2857 96.2859L39.2857 94.1431L38.5714 94.4288C38.3928 94.9777 38.1532 95.5048 37.8571 96.0002C37.8089 96.0823 37.782 96.1752 37.7788 96.2703C37.7756 96.3655 37.7962 96.4599 37.8388 96.5451C37.8814 96.6303 37.9445 96.7034 38.0226 96.758C38.1006 96.8125 38.1911 96.8467 38.2857 96.8574Z" fill="#006C66"/>
<path d="M30.1429 119.572L45.4286 118.143C45.5423 118.143 45.6513 118.098 45.7316 118.017C45.812 117.937 45.8572 117.828 45.8572 117.714C46.0877 117.206 46.2788 116.681 46.4286 116.143C46.4835 116.05 46.5111 115.944 46.5082 115.837C46.5054 115.729 46.4722 115.624 46.4125 115.535C46.3527 115.445 46.2689 115.374 46.1707 115.33C46.0724 115.286 45.9638 115.271 45.8572 115.286L30.4286 116.714L29.8572 117.143L29.4286 118.857C29.4286 119.286 29.7143 119.714 30.1429 119.572Z" fill="#006C66"/>
<path d="M41.7143 137.857C41.7143 137.286 41.8572 136.571 41.8572 136C41.8572 135.428 41.5715 135.286 41.1429 135.428L26.2858 140.571C26.0001 140.714 25.8572 140.857 25.8572 141.143C25.8572 141.428 25.7143 142.286 25.7143 142.857C25.6993 142.964 25.7147 143.072 25.7587 143.171C25.8027 143.269 25.8736 143.353 25.9632 143.412C26.0528 143.472 26.1574 143.505 26.265 143.508C26.3726 143.511 26.4789 143.483 26.5715 143.428L41.2858 138.286C41.3421 138.286 41.3978 138.275 41.4498 138.253C41.5018 138.231 41.549 138.2 41.5888 138.16C41.6286 138.12 41.6602 138.073 41.6817 138.021C41.7033 137.969 41.7143 137.913 41.7143 137.857Z" fill="#006C66"/>
<path d="M41.2857 158.286V156.429C41.2729 156.317 41.2341 156.21 41.1724 156.117C41.1107 156.023 41.0278 155.945 40.9304 155.89C40.8331 155.834 40.7239 155.802 40.6119 155.796C40.4999 155.791 40.3882 155.811 40.2857 155.857L26.8571 164.857C26.5714 164.857 26.5714 165.143 26.5714 165.429C26.5714 165.714 26.7143 166.571 26.7143 167.143C26.7449 167.242 26.7966 167.333 26.8658 167.41C26.935 167.486 27.0201 167.547 27.1152 167.588C27.2103 167.629 27.3132 167.648 27.4166 167.646C27.52 167.643 27.6216 167.617 27.7143 167.571L41.1428 158.714C41.2857 158.571 41.4286 158.429 41.2857 158.286Z" fill="#006C66"/>
<path d="M44.7143 178.571L44.2858 176.714C44.2695 176.606 44.2223 176.504 44.15 176.422C44.0776 176.339 43.9831 176.28 43.8777 176.25C43.7723 176.219 43.6604 176.22 43.5554 176.252C43.4505 176.284 43.3569 176.345 43.2858 176.428L32.2858 188.571C32.1429 188.714 32.0001 189 32.1429 189.143C32.2858 189.285 32.5715 190.285 32.7143 190.857C32.7306 190.965 32.7778 191.067 32.8501 191.149C32.9225 191.231 33.017 191.291 33.1224 191.321C33.2279 191.352 33.3397 191.351 33.4447 191.319C33.5496 191.287 33.6432 191.226 33.7143 191.143L44.5715 179.143C44.7143 179 44.7143 178.857 44.7143 178.571Z" fill="#006C66"/>
<path d="M50.2857 196.714L42.5714 211.429C42.4286 211.572 42.5714 211.857 42.5714 212L43.5714 213.714C43.6325 213.798 43.7153 213.864 43.811 213.905C43.9067 213.945 44.0116 213.959 44.1144 213.944C44.2173 213.929 44.3142 213.887 44.3947 213.821C44.4752 213.756 44.5363 213.669 44.5714 213.572L52.2857 199C52.2857 198.857 52.4286 198.714 52.2857 198.429L51.4286 196.714C51.362 196.626 51.2758 196.554 51.1766 196.504C51.0774 196.455 50.968 196.429 50.8571 196.429C50.7463 196.429 50.6369 196.455 50.5377 196.504C50.4385 196.554 50.3522 196.626 50.2857 196.714Z" fill="#006C66"/>
<path d="M61.2857 213.286C61 212.857 60.2857 213 60.2857 213.428L56.1428 230.571C56 230.857 56.1428 231 56.1428 231.143L57.5714 232.571C57.6325 232.655 57.7153 232.721 57.811 232.762C57.9067 232.802 58.0116 232.816 58.1144 232.801C58.2173 232.786 58.3142 232.744 58.3947 232.678C58.4752 232.613 58.5363 232.526 58.5714 232.428L62.5714 215.428C62.7143 215.286 62.5714 215.143 62.5714 215L61.2857 213.286Z" fill="#006C66"/>
<path d="M409.078 104.495V114.745H384.703V140.495H372V78.4951H412.125V88.7761H384.703V104.495H409.078ZM462.359 140.495L450.813 117.776H440.703V140.495H428V78.4951H450.891C458.172 78.4951 463.787 80.1271 467.734 83.3911C471.682 86.6558 473.656 91.2641 473.656 97.2161C473.656 101.449 472.747 104.978 470.93 107.803C469.112 110.627 466.354 112.877 462.656 114.554L475.984 139.897V140.495H462.359ZM440.703 88.7761V107.495H450.938C454.125 107.495 456.594 106.675 458.344 105.035C460.094 103.394 460.969 101.129 460.969 98.2381C460.969 95.2955 460.143 92.9828 458.492 91.3001C456.841 89.6175 454.308 88.7761 450.891 88.7761H440.703ZM505.5 78.4951V140.495H492.813V78.4951H505.5ZM571.375 78.4951V88.7761H552.516V140.495H539.813V88.7761H521.188V78.4951H571.375ZM630.844 85.7611L600.453 130.292H631.516V140.495H584.594V133.042L615.063 88.7761H584.625V78.4951H630.844V85.7611ZM670.984 109.495V119.354H647.156V109.495H670.984ZM741.141 78.4951V140.495H728.453V113.729H703.703V140.495H691V78.4951H703.703V103.495H728.453V78.4951H741.141ZM800.063 140.495L795.781 127.776H773.531L769.297 140.495H755.797L778.734 78.4951H790.5L813.563 140.495H800.063ZM784.609 94.1561L776.953 117.495H792.359L784.609 94.1561ZM851.953 140.495H828V78.4951H849.578C857.057 78.4951 862.729 79.9338 866.594 82.8111C870.459 85.6885 872.391 89.9101 872.391 95.4761C872.391 98.5154 871.615 101.193 870.063 103.51C868.51 105.827 866.354 107.52 863.594 108.589C866.75 109.386 869.24 110.992 871.063 113.408C872.886 115.825 873.797 118.779 873.797 122.27C873.797 128.235 871.906 132.75 868.125 135.817C864.344 138.883 858.953 140.442 851.953 140.495ZM852.328 113.464H840.703V130.292H851.578C854.568 130.292 856.901 129.572 858.578 128.133C860.255 126.694 861.094 124.703 861.094 122.162C861.094 116.447 858.172 113.548 852.328 113.464ZM840.703 88.7761V104.495H850.094C856.5 104.379 859.703 101.796 859.703 96.7461C859.703 93.9101 858.891 91.8728 857.266 90.6341C855.641 89.3955 853.078 88.7761 849.578 88.7761H840.703ZM929.078 103.495V113.432H904.703V130.292H933.297V140.495H892V78.4951H933.219V88.7761H904.703V103.495H929.078ZM984.359 140.495L972.813 117.776H962.703V140.495H950V78.4951H972.891C980.172 78.4951 985.787 80.1271 989.734 83.3911C993.682 86.6558 995.656 91.2641 995.656 97.2161C995.656 101.449 994.747 104.978 992.93 107.803C991.112 110.627 988.354 112.877 984.656 114.554L997.984 139.897V140.495H984.359ZM962.703 88.7761V107.495H972.938C976.125 107.495 978.594 106.675 980.344 105.035C982.094 103.394 982.969 101.129 982.969 98.2381C982.969 95.2955 982.143 92.9828 980.492 91.3001C978.841 89.6175 976.308 88.7761 972.891 88.7761H962.703ZM1036.98 109.495V119.354H1013.16V109.495H1036.98ZM1069.5 78.4951V140.495H1056.81V78.4951H1069.5ZM1140.11 78.4951V140.495H1127.41L1102.7 99.6911V140.495H1090V78.4951H1102.7L1127.45 119.378V78.4951H1140.11ZM1191.95 124.532C1191.95 122.155 1191.11 120.33 1189.41 119.059C1187.72 117.787 1184.67 116.443 1180.27 115.027C1175.87 113.61 1172.39 112.213 1169.81 110.835C1162.82 107.082 1159.33 102.019 1159.33 95.6441C1159.33 92.3274 1160.27 89.3708 1162.14 86.7741C1164.02 84.1781 1166.71 82.1491 1170.22 80.6871C1173.73 79.2258 1177.67 78.4951 1182.05 78.4951C1186.45 78.4951 1190.37 79.2908 1193.81 80.8821C1197.25 82.4728 1199.92 84.7115 1201.83 87.5981C1203.73 90.4848 1204.69 93.7681 1204.69 97.4481H1192C1192 94.6548 1191.11 92.4851 1189.33 90.9391C1187.55 89.3931 1185.05 88.6201 1181.84 88.6201C1178.74 88.6201 1176.33 89.2685 1174.6 90.5651C1172.88 91.8618 1172.02 93.5651 1172.02 95.6751C1172.02 97.6611 1173.03 99.3231 1175.05 100.661C1177.07 101.999 1180.04 103.26 1183.95 104.443C1191.17 106.602 1196.43 109.285 1199.73 112.492C1203.04 115.699 1204.69 119.689 1204.69 124.463C1204.69 129.777 1202.67 133.944 1198.64 136.965C1194.61 139.985 1189.18 141.495 1182.34 141.495C1177.6 141.495 1173.29 140.632 1169.4 138.906C1165.51 137.181 1162.54 134.815 1160.49 131.809C1158.45 128.803 1157.42 125.325 1157.42 121.376H1170.16C1170.16 128.101 1174.22 131.464 1182.34 131.464C1185.36 131.464 1187.72 130.857 1189.41 129.642C1191.11 128.427 1191.95 126.724 1191.95 124.532ZM1268.38 78.4951V88.7761H1249.52V140.495H1236.81V88.7761H1218.19V78.4951H1268.38ZM1297.5 78.4951V140.495H1284.81V78.4951H1297.5ZM1363.38 78.4951V88.7761H1344.52V140.495H1331.81V88.7761H1313.19V78.4951H1363.38ZM1412.89 78.4951H1425.64V119.428C1425.64 126.227 1423.53 131.604 1419.31 135.561C1415.09 139.517 1409.33 141.495 1402.02 141.495C1394.83 141.495 1389.12 139.575 1384.88 135.734C1380.65 131.893 1378.49 126.616 1378.41 119.901V78.4951H1391.11V119.577C1391.11 123.661 1392.08 126.634 1394.01 128.497C1395.94 130.36 1398.61 131.292 1402.02 131.292C1409.16 131.292 1412.79 127.503 1412.89 119.924V78.4951ZM1491.38 78.4951V88.7761H1472.52V140.495H1459.81V88.7761H1441.19V78.4951H1491.38Z" fill="#006C66"/>
<path d="M372.281 170.505H380.75L397.016 211.306L413.297 170.505H421.797V220.505H415.234V201.039L415.859 180.018L399.516 220.505H394.5L378.188 180.113L378.844 201.039V220.505H372.281V170.505ZM469.516 220.505L464.75 207.911H443.906L439.219 220.505H432.453L451.469 170.505H457.203L476.234 220.505H469.516ZM454.328 178.637L445.891 202.505H462.813L454.328 178.637ZM489.516 170.505L501.516 189.673L513.438 170.505H521.172L505.438 195.293L521.547 220.505H513.75L501.516 200.992L489.203 220.505H481.453L497.578 195.293L481.828 170.505H489.516ZM542.438 196.505V201.661H525.766V196.505H542.438ZM570.563 200.864H558.844V220.505H552.281V170.505H570.625C576.073 170.505 580.341 171.899 583.43 174.688C586.519 177.476 588.063 181.162 588.063 185.747C588.063 190.593 586.552 194.324 583.531 196.94C580.51 199.556 576.188 200.864 570.563 200.864ZM558.844 175.911V195.505H570.625C574.136 195.505 576.826 194.674 578.695 193.011C580.565 191.348 581.5 188.953 581.5 185.826C581.5 182.845 580.565 180.463 578.695 178.68C576.826 176.897 574.261 175.974 571 175.911H558.844ZM605.875 170.505V215.146H629.453V220.505H599.281V170.505H605.875ZM672.516 220.505L667.75 207.911H646.906L642.219 220.505H635.453L654.469 170.505H660.203L679.234 220.505H672.516ZM657.328 178.637L648.891 202.505H665.813L657.328 178.637ZM727.531 170.505V220.505H720.922L695.875 181.981V220.505H689.281V170.505H695.875L721 209.202V170.505H727.531ZM771.281 205.021H777.891C777.266 210.292 775.32 214.357 772.055 217.216C768.789 220.075 764.443 221.505 759.016 221.505C753.141 221.505 748.43 219.401 744.883 215.194C741.336 210.987 739.563 205.362 739.563 198.319V193.551C739.563 188.938 740.391 184.882 742.047 181.381C743.703 177.88 746.044 175.193 749.07 173.318C752.096 171.443 755.604 170.505 759.594 170.505C764.885 170.505 769.125 171.982 772.313 174.935C775.5 177.888 777.36 181.973 777.891 187.192H771.281C770.719 183.223 769.485 180.351 767.578 178.575C765.672 176.799 763.011 175.911 759.594 175.911C755.407 175.911 752.123 177.455 749.742 180.543C747.362 183.632 746.172 188.025 746.172 193.724V198.52C746.172 203.907 747.3 208.189 749.555 211.365C751.81 214.542 754.964 216.13 759.016 216.13C762.661 216.13 765.458 215.304 767.406 213.653C769.354 212.002 770.646 209.125 771.281 205.021ZM820.563 220.505L802.922 197.255L796.844 203.613V220.505H790.281V170.505H796.844V195.23L818.953 170.505H826.891L807.297 192.593L828.422 220.505H820.563ZM846.438 196.505V201.661H829.766V196.505H846.438ZM893.016 196.505V214.419C891.328 216.791 888.976 218.565 885.961 219.741C882.946 220.917 879.433 221.505 875.422 221.505C871.359 221.505 867.758 220.554 864.617 218.653C861.476 216.752 859.044 214.054 857.32 210.559C855.596 207.063 854.713 203.009 854.672 198.397V194.065C854.672 186.586 856.419 180.789 859.914 176.675C863.409 172.562 868.328 170.505 874.672 170.505C879.859 170.505 884.036 171.833 887.203 174.489C890.37 177.146 892.307 180.911 893.016 185.786H886.453C885.224 179.203 881.307 175.911 874.703 175.911C870.307 175.911 866.974 177.45 864.703 180.528C862.432 183.606 861.287 188.062 861.266 193.895V197.944C861.266 203.507 862.542 207.929 865.094 211.21C867.646 214.49 871.099 216.13 875.453 216.13C877.912 216.13 880.065 215.865 881.914 215.336C883.763 214.806 885.287 213.916 886.484 212.665V201.833H874.969V196.505H893.016ZM935.406 191.505V196.88H913.844V215.146H938.891V220.505H907.281V170.505H938.547V175.911H913.844V191.505H935.406ZM963.938 198.693C958.313 197.083 954.219 195.101 951.656 192.748C949.094 190.395 947.813 187.495 947.813 184.046C947.813 180.129 949.378 176.893 952.508 174.338C955.638 171.783 959.708 170.505 964.719 170.505C968.146 170.505 971.198 171.166 973.875 172.489C976.552 173.812 978.625 175.635 980.094 177.958C981.563 180.281 982.297 182.822 982.297 185.583H975.703C975.703 182.572 974.745 180.208 972.828 178.489C970.911 176.77 968.208 175.911 964.719 175.911C961.49 175.911 958.969 176.619 957.156 178.035C955.344 179.45 954.438 181.418 954.438 183.938C954.438 185.961 955.297 187.669 957.016 189.064C958.735 190.459 961.662 191.734 965.797 192.891C969.932 194.047 973.169 195.324 975.508 196.722C977.847 198.12 979.578 199.752 980.703 201.618C981.828 203.484 982.391 205.68 982.391 208.205C982.391 212.228 980.821 215.45 977.68 217.872C974.539 220.294 970.334 221.505 965.063 221.505C961.646 221.505 958.456 220.849 955.492 219.536C952.529 218.223 950.245 216.429 948.641 214.153C947.036 211.877 946.234 209.291 946.234 206.396H952.828C952.828 209.406 953.94 211.781 956.164 213.521C958.388 215.26 961.354 216.13 965.063 216.13C968.532 216.13 971.188 215.427 973.031 214.021C974.875 212.614 975.797 210.697 975.797 208.269C975.797 205.84 974.943 203.962 973.234 202.633C971.526 201.305 968.427 199.992 963.938 198.693ZM1022.41 191.505V196.88H1000.84V215.146H1025.89V220.505H994.281V170.505H1025.55V175.911H1000.84V191.505H1022.41ZM1042.88 170.505V215.146H1066.45V220.505H1036.28V170.505H1042.88ZM1083.88 170.505V215.146H1107.45V220.505H1077.28V170.505H1083.88ZM1131.94 198.693C1126.31 197.083 1122.22 195.101 1119.66 192.748C1117.09 190.395 1115.81 187.495 1115.81 184.046C1115.81 180.129 1117.38 176.893 1120.51 174.338C1123.64 171.783 1127.71 170.505 1132.72 170.505C1136.15 170.505 1139.2 171.166 1141.88 172.489C1144.55 173.812 1146.63 175.635 1148.09 177.958C1149.56 180.281 1150.3 182.822 1150.3 185.583H1143.7C1143.7 182.572 1142.74 180.208 1140.83 178.489C1138.91 176.77 1136.21 175.911 1132.72 175.911C1129.49 175.911 1126.97 176.619 1125.16 178.035C1123.34 179.45 1122.44 181.418 1122.44 183.938C1122.44 185.961 1123.3 187.669 1125.02 189.064C1126.73 190.459 1129.66 191.734 1133.8 192.891C1137.93 194.047 1141.17 195.324 1143.51 196.722C1145.85 198.12 1147.58 199.752 1148.7 201.618C1149.83 203.484 1150.39 205.68 1150.39 208.205C1150.39 212.228 1148.82 215.45 1145.68 217.872C1142.54 220.294 1138.33 221.505 1133.06 221.505C1129.65 221.505 1126.46 220.849 1123.49 219.536C1120.53 218.223 1118.24 216.429 1116.64 214.153C1115.04 211.877 1114.23 209.291 1114.23 206.396H1120.83C1120.83 209.406 1121.94 211.781 1124.16 213.521C1126.39 215.26 1129.35 216.13 1133.06 216.13C1136.53 216.13 1139.19 215.427 1141.03 214.021C1142.88 212.614 1143.8 210.697 1143.8 208.269C1143.8 205.84 1142.94 203.962 1141.23 202.633C1139.53 201.305 1136.43 199.992 1131.94 198.693ZM1192.28 205.021H1198.89C1198.27 210.292 1196.32 214.357 1193.05 217.216C1189.79 220.075 1185.44 221.505 1180.02 221.505C1174.14 221.505 1169.43 219.401 1165.88 215.194C1162.34 210.987 1160.56 205.362 1160.56 198.319V193.551C1160.56 188.938 1161.39 184.882 1163.05 181.381C1164.7 177.88 1167.04 175.193 1170.07 173.318C1173.1 171.443 1176.6 170.505 1180.59 170.505C1185.89 170.505 1190.12 171.982 1193.31 174.935C1196.5 177.888 1198.36 181.973 1198.89 187.192H1192.28C1191.72 183.223 1190.48 180.351 1188.58 178.575C1186.67 176.799 1184.01 175.911 1180.59 175.911C1176.41 175.911 1173.12 177.455 1170.74 180.543C1168.36 183.632 1167.17 188.025 1167.17 193.724V198.52C1167.17 203.907 1168.3 208.189 1170.55 211.365C1172.81 214.542 1175.96 216.13 1180.02 216.13C1183.66 216.13 1186.46 215.304 1188.41 213.653C1190.35 212.002 1191.65 209.125 1192.28 205.021ZM1248.53 170.505V220.505H1241.92V197.88H1216.84V220.505H1210.28V170.505H1216.84V192.505H1241.92V170.505H1248.53ZM1295.52 220.505L1290.75 207.911H1269.91L1265.22 220.505H1258.45L1277.47 170.505H1283.2L1302.23 220.505H1295.52ZM1280.33 178.637L1271.89 202.505H1288.81L1280.33 178.637ZM1339.72 193.505V198.864H1318.84V220.505H1312.28V170.505H1343.11V175.911H1318.84V193.505H1339.72ZM1388.66 170.505V175.911H1372.67V220.505H1366.14V175.911H1350.17V170.505H1388.66Z" fill="#006C66"/>
</svg>
